solid csg.js
facet normal -0.35740674433659914 -0.8628562094610186 -0.35740674433658337
outer loop
vertex -45.75 -80 0.75
vertex -46.28033008588991 -79.78033008588991 0.75
vertex -46.125 -79.625 0.21966991411008951
endloop
endfacet
facet normal -0.35740674433659914 -0.8628562094610186 -0.35740674433658337
outer loop
vertex -45.75 -80 0.75
vertex -46.125 -79.625 0.21966991411008951
vertex -45.75 -79.78033008588991 0.21966991411008951
endloop
endfacet
facet normal -0.1565580108156251 -0.37796447300922476 -0.9124869568340763
outer loop
vertex -45.75 -79.78033008588991 0.21966991411008951
vertex -46.125 -79.625 0.21966991411008951
vertex -45.75 -79.25 0
endloop
endfacet
facet normal -0.8628562094610173 -0.35740674433659203 -0.35740674433659336
outer loop
vertex -46.28033008588991 -79.78033008588991 0.75
vertex -46.5 -79.25 0.75
vertex -46.28033008588991 -79.25 0.21966991411008951
endloop
endfacet
facet normal -0.8628562094610173 -0.35740674433659203 -0.35740674433659336
outer loop
vertex -46.28033008588991 -79.78033008588991 0.75
vertex -46.28033008588991 -79.25 0.21966991411008951
vertex -46.125 -79.625 0.21966991411008951
endloop
endfacet
facet normal -0.37796447300922775 -0.15655801081562015 -0.9124869568340761
outer loop
vertex -46.125 -79.625 0.21966991411008951
vertex -46.28033008588991 -79.25 0.21966991411008951
vertex -45.75 -79.25 0
endloop
endfacet
facet normal 0 -0.923879532511289 -0.3826834323650842
outer loop
vertex 45.75 -79.78033008588991 0.21966991411008951
vertex 45.75 -80 0.75
vertex -45.75 -80 0.75
endloop
endfacet
facet normal 0 -0.923879532511289 -0.3826834323650842
outer loop
vertex 45.75 -79.78033008588991 0.21966991411008951
vertex -45.75 -80 0.75
vertex -45.75 -79.78033008588991 0.21966991411008951
endloop
endfacet
facet normal 0 -0.382683432365091 -0.9238795325112862
outer loop
vertex 45.75 -79.25 0
vertex 45.75 -79.78033008588991 0.21966991411008951
vertex -45.75 -79.78033008588991 0.21966991411008951
endloop
endfacet
facet normal 0 -0.382683432365091 -0.9238795325112862
outer loop
vertex 45.75 -79.25 0
vertex -45.75 -79.78033008588991 0.21966991411008951
vertex -45.75 -79.25 0
endloop
endfacet
facet normal 0.8628562094610112 -0.3574067443366 -0.35740674433660047
outer loop
vertex 46.5 -79.25 0.75
vertex 46.280330085889915 -79.78033008588991 0.75
vertex 46.125 -79.625 0.21966991411008951
endloop
endfacet
facet normal 0.8628562094610112 -0.3574067443366 -0.35740674433660047
outer loop
vertex 46.5 -79.25 0.75
vertex 46.125 -79.625 0.21966991411008951
vertex 46.280330085889915 -79.25 0.21966991411008951
endloop
endfacet
facet normal 0.37796447300922326 -0.15655801081562604 -0.9124869568340769
outer loop
vertex 46.280330085889915 -79.25 0.21966991411008951
vertex 46.125 -79.625 0.21966991411008951
vertex 45.75 -79.25 0
endloop
endfacet
facet normal 0.3574067443365994 -0.8628562094610193 -0.3574067443365814
outer loop
vertex 46.280330085889915 -79.78033008588991 0.75
vertex 45.75 -80 0.75
vertex 45.75 -79.78033008588991 0.21966991411008951
endloop
endfacet
facet normal 0.3574067443365994 -0.8628562094610193 -0.3574067443365814
outer loop
vertex 46.280330085889915 -79.78033008588991 0.75
vertex 45.75 -79.78033008588991 0.21966991411008951
vertex 46.125 -79.625 0.21966991411008951
endloop
endfacet
facet normal 0.1565580108156249 -0.37796447300922936 -0.9124869568340745
outer loop
vertex 46.125 -79.625 0.21966991411008951
vertex 45.75 -79.78033008588991 0.21966991411008951
vertex 45.75 -79.25 0
endloop
endfacet
facet normal 0.9238795325112831 0 -0.3826834323650987
outer loop
vertex 46.28033008588997 79.25000000000006 0.21966991411007797
vertex 46.50000000000006 79.25 0.7500000000000284
vertex 46.5 -79.25 0.75
endloop
endfacet
facet normal 0.9238795325112831 0 -0.3826834323650987
outer loop
vertex 46.28033008588997 79.25000000000006 0.21966991411007797
vertex 46.5 -79.25 0.75
vertex 46.280330085889915 -79.25 0.21966991411008951
endloop
endfacet
facet normal 0 0 -1
outer loop
vertex 45.75000000000003 -22.125 0
vertex 45.75000000000003 -21.927116006067642 0
vertex 45.75000000000003 -19.84403858487464 0
endloop
endfacet
facet normal 0 0 -1
outer loop
vertex 45.75000000000003 -22.125 0
vertex 45.75000000000003 -19.84403858487464 0
vertex 45.750000000000036 -17.305801403078327 0
endloop
endfacet
facet normal 0 0 -1
outer loop
vertex 45.75000000000003 -22.125 0
vertex 45.750000000000036 -17.305801403078327 0
vertex 45.750000000000036 -14.40994749211529 0
endloop
endfacet
facet normal 0 0 -1
outer loop
vertex 45.75000000000003 -22.125 0
vertex 45.750000000000036 -14.40994749211529 0
vertex 45.750000000000036 -11.267762893770168 0
endloop
endfacet
facet normal 0 0 -1
outer loop
vertex 45.75000000000003 -22.125 0
vertex 45.750000000000036 -11.267762893770168 0
vertex 45.750000000000036 -7.999999999999979 0
endloop
endfacet
facet normal 0 0 -1
outer loop
vertex 45.75000000000003 -22.125 0
vertex 45.750000000000036 -7.999999999999979 0
vertex 45.75000000000004 -4.7322371062298405 0
endloop
endfacet
facet normal 0 0 -1
outer loop
vertex 45.75000000000003 -22.125 0
vertex 45.75000000000004 -4.7322371062298405 0
vertex 45.75000000000004 -1.590052507884792 0
endloop
endfacet
facet normal 0 0 -1
outer loop
vertex 45.75000000000003 -22.125 0
vertex 45.75000000000004 -1.590052507884792 0
vertex 45.75000000000004 1.3058014030783287 0
endloop
endfacet
facet normal 0 0 -1
outer loop
vertex 45.75000000000003 -22.125 0
vertex 45.75000000000004 1.3058014030783287 0
vertex 45.75000000000004 3.8440385848746406 0
endloop
endfacet
facet normal 0 0 -1
outer loop
vertex 45.75000000000003 -22.125 0
vertex 45.75000000000004 3.8440385848746406 0
vertex 45.75000000000004 5.927116006067652 0
endloop
endfacet
facet normal 0 0 -1
outer loop
vertex 45.75000000000003 -22.125 0
vertex 45.75000000000004 5.927116006067652 0
vertex 45.75000000000004 6.125 0
endloop
endfacet
facet normal 0 0 -1
outer loop
vertex 45.75000000000003 -22.125 0
vertex 45.75000000000004 6.125 0
vertex 45.75000000000005 17.875 0
endloop
endfacet
facet normal 0 0 -1
outer loop
vertex 45.75000000000003 -22.125 0
vertex 45.75000000000005 17.875 0
vertex 45.75000000000005 18.07288399393235 0
endloop
endfacet
facet normal 0 0 -1
outer loop
vertex 45.75000000000003 -22.125 0
vertex 45.75000000000005 18.07288399393235 0
vertex 45.75000000000006 20.155961415125347 0
endloop
endfacet
facet normal 0 0 -1
outer loop
vertex 45.75000000000003 -22.125 0
vertex 45.75000000000006 20.155961415125347 0
vertex 45.75000000000006 22.694198596921645 0
endloop
endfacet
facet normal 0 0 -1
outer loop
vertex 45.75000000000003 -22.125 0
vertex 45.75000000000006 22.694198596921645 0
vertex 45.75000000000006 25.590052507884735 0
endloop
endfacet
facet normal 0 0 -1
outer loop
vertex 45.75000000000003 -22.125 0
vertex 45.75000000000006 25.590052507884735 0
vertex 45.75000000000006 28.73223710622983 0
endloop
endfacet
facet normal 0 0 -1
outer loop
vertex 45.75000000000003 -22.125 0
vertex 45.75000000000006 28.73223710622983 0
vertex 45.75000000000006 31.999999999999986 0
endloop
endfacet
facet normal 0 0 -1
outer loop
vertex 45.75000000000003 -22.125 0
vertex 45.75000000000006 31.999999999999986 0
vertex 45.750000000000064 35.2677628937702 0
endloop
endfacet
facet normal 0 0 -1
outer loop
vertex 45.75000000000003 -22.125 0
vertex 45.750000000000064 35.2677628937702 0
vertex 45.750000000000064 38.409947492115215 0
endloop
endfacet
facet normal 0 0 -1
outer loop
vertex 45.75000000000003 -22.125 0
vertex 45.750000000000064 38.409947492115215 0
vertex 45.750000000000064 41.305801403078334 0
endloop
endfacet
facet normal 0 0 -1
outer loop
vertex 45.75000000000003 -22.125 0
vertex 45.750000000000064 41.305801403078334 0
vertex 45.750000000000064 43.84403858487466 0
endloop
endfacet
facet normal 0 0 -1
outer loop
vertex 45.75000000000003 -22.125 0
vertex 45.750000000000064 43.84403858487466 0
vertex 45.750000000000064 45.92711600606768 0
endloop
endfacet
facet normal 0 0 -1
outer loop
vertex 45.75000000000003 -22.125 0
vertex 45.750000000000064 45.92711600606768 0
vertex 45.750000000000064 46.125 0
endloop
endfacet
facet normal 0 0 -1
outer loop
vertex 45.75000000000003 -22.125 0
vertex 45.750000000000064 46.125 0
vertex 45.750000000000085 79.25 -1.9895196601282805e-13
endloop
endfacet
facet normal 0 0 -1
outer loop
vertex 45.75000000000003 -22.125 0
vertex 45.750000000000085 79.25 -1.9895196601282805e-13
vertex 46.28033008588997 79.25000000000006 0.21966991411007797
endloop
endfacet
facet normal 0 0 -1
outer loop
vertex 45.75000000000003 -22.125 0
vertex 46.28033008588997 79.25000000000006 0.21966991411007797
vertex 46.280330085889915 -79.25 0.21966991411008951
endloop
endfacet
facet normal 0 0 -1
outer loop
vertex 45.75000000000003 -22.125 0
vertex 46.280330085889915 -79.25 0.21966991411008951
vertex 45.75 -79.25 0
endloop
endfacet
facet normal -0.3826834323650917 0 -0.923879532511286
outer loop
vertex -46.28033008588991 79.25 0.21966991411008951
vertex -45.75 79.25 0
vertex -45.75 46.125 0
endloop
endfacet
facet normal -0.3826834323650917 0 -0.923879532511286
outer loop
vertex -46.28033008588991 79.25 0.21966991411008951
vertex -45.75 46.125 0
vertex -45.75 45.92711600606768 0
endloop
endfacet
facet normal -0.3826834323650917 0 -0.923879532511286
outer loop
vertex -46.28033008588991 79.25 0.21966991411008951
vertex -45.75 45.92711600606768 0
vertex -45.75 43.84403858487466 0
endloop
endfacet
facet normal -0.3826834323650917 0 -0.923879532511286
outer loop
vertex -46.28033008588991 79.25 0.21966991411008951
vertex -45.75 43.84403858487466 0
vertex -45.75 41.305801403078334 0
endloop
endfacet
facet normal -0.3826834323650917 0 -0.923879532511286
outer loop
vertex -46.28033008588991 79.25 0.21966991411008951
vertex -45.75 41.305801403078334 0
vertex -45.75 38.409947492115215 0
endloop
endfacet
facet normal -0.3826834323650917 0 -0.923879532511286
outer loop
vertex -46.28033008588991 79.25 0.21966991411008951
vertex -45.75 38.409947492115215 0
vertex -45.75 35.2677628937702 0
endloop
endfacet
facet normal -0.3826834323650917 0 -0.923879532511286
outer loop
vertex -46.28033008588991 79.25 0.21966991411008951
vertex -45.75 35.2677628937702 0
vertex -45.75 31.999999999999986 0
endloop
endfacet
facet normal -0.3826834323650917 0 -0.923879532511286
outer loop
vertex -46.28033008588991 79.25 0.21966991411008951
vertex -45.75 31.999999999999986 0
vertex -45.75 28.73223710622983 0
endloop
endfacet
facet normal -0.3826834323650917 0 -0.923879532511286
outer loop
vertex -46.28033008588991 79.25 0.21966991411008951
vertex -45.75 28.73223710622983 0
vertex -45.75 25.590052507884735 0
endloop
endfacet
facet normal -0.3826834323650917 0 -0.923879532511286
outer loop
vertex -46.28033008588991 79.25 0.21966991411008951
vertex -45.75 25.590052507884735 0
vertex -45.75 22.694198596921645 0
endloop
endfacet
facet normal -0.3826834323650917 0 -0.923879532511286
outer loop
vertex -46.28033008588991 79.25 0.21966991411008951
vertex -45.75 22.694198596921645 0
vertex -45.75 20.155961415125347 0
endloop
endfacet
facet normal -0.3826834323650917 0 -0.923879532511286
outer loop
vertex -46.28033008588991 79.25 0.21966991411008951
vertex -45.75 20.155961415125347 0
vertex -45.75 18.07288399393235 0
endloop
endfacet
facet normal -0.3826834323650917 0 -0.923879532511286
outer loop
vertex -46.28033008588991 79.25 0.21966991411008951
vertex -45.75 18.07288399393235 0
vertex -45.75 17.875 0
endloop
endfacet
facet normal -0.3826834323650917 0 -0.923879532511286
outer loop
vertex -46.28033008588991 79.25 0.21966991411008951
vertex -45.75 17.875 0
vertex -45.75 6.125 0
endloop
endfacet
facet normal -0.3826834323650917 0 -0.923879532511286
outer loop
vertex -46.28033008588991 79.25 0.21966991411008951
vertex -45.75 6.125 0
vertex -45.75 5.927116006067652 0
endloop
endfacet
facet normal -0.3826834323650917 0 -0.923879532511286
outer loop
vertex -46.28033008588991 79.25 0.21966991411008951
vertex -45.75 5.927116006067652 0
vertex -45.75 3.8440385848746406 0
endloop
endfacet
facet normal -0.3826834323650917 0 -0.923879532511286
outer loop
vertex -46.28033008588991 79.25 0.21966991411008951
vertex -45.75 3.8440385848746406 0
vertex -45.75 1.3058014030783287 0
endloop
endfacet
facet normal -0.3826834323650917 0 -0.923879532511286
outer loop
vertex -46.28033008588991 79.25 0.21966991411008951
vertex -45.75 1.3058014030783287 0
vertex -45.75 -1.590052507884792 0
endloop
endfacet
facet normal -0.3826834323650917 0 -0.923879532511286
outer loop
vertex -46.28033008588991 79.25 0.21966991411008951
vertex -45.75 -1.590052507884792 0
vertex -45.75 -4.7322371062298405 0
endloop
endfacet
facet normal -0.3826834323650917 0 -0.923879532511286
outer loop
vertex -46.28033008588991 79.25 0.21966991411008951
vertex -45.75 -4.7322371062298405 0
vertex -45.75 -7.999999999999979 0
endloop
endfacet
facet normal -0.3826834323650917 0 -0.923879532511286
outer loop
vertex -46.28033008588991 79.25 0.21966991411008951
vertex -45.75 -7.999999999999979 0
vertex -45.75 -11.267762893770168 0
endloop
endfacet
facet normal -0.3826834323650917 0 -0.923879532511286
outer loop
vertex -46.28033008588991 79.25 0.21966991411008951
vertex -45.75 -11.267762893770168 0
vertex -45.75 -14.40994749211529 0
endloop
endfacet
facet normal -0.3826834323650917 0 -0.923879532511286
outer loop
vertex -46.28033008588991 79.25 0.21966991411008951
vertex -45.75 -14.40994749211529 0
vertex -45.75 -17.305801403078327 0
endloop
endfacet
facet normal -0.3826834323650917 0 -0.923879532511286
outer loop
vertex -46.28033008588991 79.25 0.21966991411008951
vertex -45.75 -17.305801403078327 0
vertex -45.75 -19.84403858487464 0
endloop
endfacet
facet normal -0.3826834323650917 0 -0.923879532511286
outer loop
vertex -46.28033008588991 79.25 0.21966991411008951
vertex -45.75 -19.84403858487464 0
vertex -45.75 -21.927116006067642 0
endloop
endfacet
facet normal -0.3826834323650917 0 -0.923879532511286
outer loop
vertex -46.28033008588991 79.25 0.21966991411008951
vertex -45.75 -21.927116006067642 0
vertex -45.75 -22.125 0
endloop
endfacet
facet normal -0.3826834323650917 0 -0.923879532511286
outer loop
vertex -46.28033008588991 79.25 0.21966991411008951
vertex -45.75 -22.125 0
vertex -45.75 -79.25 0
endloop
endfacet
facet normal -0.3826834323650917 0 -0.923879532511286
outer loop
vertex -46.28033008588991 79.25 0.21966991411008951
vertex -45.75 -79.25 0
vertex -46.28033008588991 -79.25 0.21966991411008951
endloop
endfacet
facet normal -0.9238795325112861 0 -0.3826834323650914
outer loop
vertex -46.5 79.25 0.75
vertex -46.28033008588991 79.25 0.21966991411008951
vertex -46.28033008588991 -79.25 0.21966991411008951
endloop
endfacet
facet normal -0.9238795325112861 0 -0.3826834323650914
outer loop
vertex -46.5 79.25 0.75
vertex -46.28033008588991 -79.25 0.21966991411008951
vertex -46.5 -79.25 0.75
endloop
endfacet
facet normal -0.8628562094610112 0.3574067443366 -0.35740674433660047
outer loop
vertex -46.5 79.25 0.75
vertex -46.28033008588991 79.78033008588991 0.75
vertex -46.125 79.625 0.21966991411008951
endloop
endfacet
facet normal -0.8628562094610112 0.3574067443366 -0.35740674433660047
outer loop
vertex -46.5 79.25 0.75
vertex -46.125 79.625 0.21966991411008951
vertex -46.28033008588991 79.25 0.21966991411008951
endloop
endfacet
facet normal -0.37796447300922714 0.15655801081562057 -0.9124869568340762
outer loop
vertex -46.28033008588991 79.25 0.21966991411008951
vertex -46.125 79.625 0.21966991411008951
vertex -45.75 79.25 0
endloop
endfacet
facet normal -0.3574067443366089 0.8628562094609963 -0.35740674433662717
outer loop
vertex -46.28033008588991 79.78033008588991 0.75
vertex -45.75 80 0.75
vertex -45.75 79.78033008588991 0.21966991411008951
endloop
endfacet
facet normal -0.3574067443366089 0.8628562094609963 -0.35740674433662717
outer loop
vertex -46.28033008588991 79.78033008588991 0.75
vertex -45.75 79.78033008588991 0.21966991411008951
vertex -46.125 79.625 0.21966991411008951
endloop
endfacet
facet normal -0.1565580108156249 0.37796447300922936 -0.9124869568340745
outer loop
vertex -46.125 79.625 0.21966991411008951
vertex -45.75 79.78033008588991 0.21966991411008951
vertex -45.75 79.25 0
endloop
endfacet
facet normal 0 0.3826834323650939 -0.9238795325112851
outer loop
vertex 45.75 79.78033008588991 0.21966991411008951
vertex 45.750000000000085 79.25 -1.9895196601282805e-13
vertex -45.75 79.25 0
endloop
endfacet
facet normal 0 0.3826834323650939 -0.9238795325112851
outer loop
vertex 45.75 79.78033008588991 0.21966991411008951
vertex -45.75 79.25 0
vertex -45.75 79.78033008588991 0.21966991411008951
endloop
endfacet
facet normal 0 0.9238795325112947 -0.3826834323650707
outer loop
vertex 45.75 80 0.75
vertex 45.75 79.78033008588991 0.21966991411008951
vertex -45.75 79.78033008588991 0.21966991411008951
endloop
endfacet
facet normal 0 0.9238795325112947 -0.3826834323650707
outer loop
vertex 45.75 80 0.75
vertex -45.75 79.78033008588991 0.21966991411008951
vertex -45.75 80 0.75
endloop
endfacet
facet normal 0.35740674433657343 0.8628562094610392 -0.3574067443365589
outer loop
vertex 45.75 80 0.75
vertex 46.280330085889915 79.78033008588991 0.75
vertex 46.125 79.625 0.21966991411008951
endloop
endfacet
facet normal 0.35740674433657343 0.8628562094610392 -0.3574067443365589
outer loop
vertex 45.75 80 0.75
vertex 46.125 79.625 0.21966991411008951
vertex 45.75 79.78033008588991 0.21966991411008951
endloop
endfacet
facet normal 0.15655801081561685 0.37796447300922736 -0.9124869568340768
outer loop
vertex 45.75 79.78033008588991 0.21966991411008951
vertex 46.125 79.625 0.21966991411008951
vertex 45.750000000000085 79.25 -1.9895196601282805e-13
endloop
endfacet
facet normal 0.862856209461012 0.35740674433659875 -0.3574067443365994
outer loop
vertex 46.280330085889915 79.78033008588991 0.75
vertex 46.50000000000006 79.25 0.7500000000000284
vertex 46.28033008588997 79.25000000000006 0.21966991411007797
endloop
endfacet
facet normal 0.862856209461012 0.35740674433659875 -0.3574067443365994
outer loop
vertex 46.280330085889915 79.78033008588991 0.75
vertex 46.28033008588997 79.25000000000006 0.21966991411007797
vertex 46.125 79.625 0.21966991411008951
endloop
endfacet
facet normal 0.37796447300922204 0.15655801081562604 -0.9124869568340774
outer loop
vertex 46.125 79.625 0.21966991411008951
vertex 46.28033008588997 79.25000000000006 0.21966991411007797
vertex 45.750000000000085 79.25 -1.9895196601282805e-13
endloop
endfacet
facet normal 0 1 0
outer loop
vertex 45.75 80 4.25
vertex 45.75 80 0.75
vertex -45.75 80 0.75
endloop
endfacet
facet normal 0 1 0
outer loop
vertex 45.75 80 4.25
vertex -45.75 80 0.75
vertex -45.75 80 4.25
endloop
endfacet
facet normal -0.3826834323650707 0.9238795325112947 0
outer loop
vertex -46.280330085889645 79.78033008588929 4.25
vertex -45.75 80 4.25
vertex -45.75 80 0.75
endloop
endfacet
facet normal -0.3826834323650707 0.9238795325112947 0
outer loop
vertex -46.280330085889645 79.78033008588929 4.25
vertex -45.75 80 0.75
vertex -46.28033008588991 79.78033008588991 0.75
endloop
endfacet
facet normal -0.9238795325112846 0.38268343236509494 0
outer loop
vertex -46.50000000000025 79.25000000000011 4.25
vertex -46.280330085889645 79.78033008588929 4.25
vertex -46.28033008588991 79.78033008588991 0.75
endloop
endfacet
facet normal -0.9238795325112846 0.38268343236509494 0
outer loop
vertex -46.50000000000025 79.25000000000011 4.25
vertex -46.28033008588991 79.78033008588991 0.75
vertex -46.5 79.25 0.75
endloop
endfacet
facet normal -1 0 0
outer loop
vertex -46.50000000000025 79.25000000000011 4.25
vertex -46.5 79.25 0.75
vertex -46.5 -79.25 0.75
endloop
endfacet
facet normal -1 0 0
outer loop
vertex -46.50000000000025 79.25000000000011 4.25
vertex -46.5 -79.25 0.75
vertex -46.5 -79.25 4.25
endloop
endfacet
facet normal -0.9238795325112897 -0.3826834323650829 0
outer loop
vertex -46.28033008588991 -79.78033008588991 4.250000000000002
vertex -46.5 -79.25 4.25
vertex -46.5 -79.25 0.75
endloop
endfacet
facet normal -0.9238795325112897 -0.3826834323650829 0
outer loop
vertex -46.28033008588991 -79.78033008588991 4.250000000000002
vertex -46.5 -79.25 0.75
vertex -46.28033008588991 -79.78033008588991 0.75
endloop
endfacet
facet normal -0.3826834323650975 -0.9238795325112836 0
outer loop
vertex -45.75 -80 4.250000000000002
vertex -46.28033008588991 -79.78033008588991 4.250000000000002
vertex -46.28033008588991 -79.78033008588991 0.75
endloop
endfacet
facet normal -0.3826834323650975 -0.9238795325112836 0
outer loop
vertex -45.75 -80 4.250000000000002
vertex -46.28033008588991 -79.78033008588991 0.75
vertex -45.75 -80 0.75
endloop
endfacet
facet normal 0 -1 0
outer loop
vertex 45.75 -80 0.75
vertex 45.75 -80 4.25
vertex -45.75 -80 4.250000000000002
endloop
endfacet
facet normal 0 -1 0
outer loop
vertex 45.75 -80 0.75
vertex -45.75 -80 4.250000000000002
vertex -45.75 -80 0.75
endloop
endfacet
facet normal 0.3826834323650707 -0.9238795325112946 0
outer loop
vertex 46.28033008589 -79.78033008589011 4.25
vertex 45.75 -80 4.25
vertex 45.75 -80 0.75
endloop
endfacet
facet normal 0.3826834323650707 -0.9238795325112946 0
outer loop
vertex 46.28033008589 -79.78033008589011 4.25
vertex 45.75 -80 0.75
vertex 46.280330085889915 -79.78033008588991 0.75
endloop
endfacet
facet normal 0.9238795325112876 -0.3826834323650879 0
outer loop
vertex 46.50000000000006 -79.25000000000003 4.25
vertex 46.28033008589 -79.78033008589011 4.25
vertex 46.280330085889915 -79.78033008588991 0.75
endloop
endfacet
facet normal 0.9238795325112876 -0.3826834323650879 0
outer loop
vertex 46.50000000000006 -79.25000000000003 4.25
vertex 46.280330085889915 -79.78033008588991 0.75
vertex 46.5 -79.25 0.75
endloop
endfacet
facet normal 1 0 0
outer loop
vertex 46.50000000000006 79.25 0.7500000000000284
vertex 46.5 79.25 4.25
vertex 46.50000000000006 -79.25000000000003 4.25
endloop
endfacet
facet normal 1 0 0
outer loop
vertex 46.50000000000006 79.25 0.7500000000000284
vertex 46.50000000000006 -79.25000000000003 4.25
vertex 46.5 -79.25 0.75
endloop
endfacet
facet normal 0.9238795325112593 0.38268343236515606 0
outer loop
vertex 46.28033008589098 79.7803300858904 4.250000000000002
vertex 46.5 79.25 4.25
vertex 46.50000000000006 79.25 0.7500000000000284
endloop
endfacet
facet normal 0.9238795325112593 0.38268343236515606 0
outer loop
vertex 46.28033008589098 79.7803300858904 4.250000000000002
vertex 46.50000000000006 79.25 0.7500000000000284
vertex 46.280330085889915 79.78033008588991 0.75
endloop
endfacet
facet normal 0.3826834323650707 0.9238795325112947 0
outer loop
vertex 45.75 80 4.25
vertex 46.28033008589098 79.7803300858904 4.250000000000002
vertex 46.280330085889915 79.78033008588991 0.75
endloop
endfacet
facet normal 0.3826834323650707 0.9238795325112947 0
outer loop
vertex 45.75 80 4.25
vertex 46.280330085889915 79.78033008588991 0.75
vertex 45.75 80 0.75
endloop
endfacet
facet normal -0.35740674433657804 -0.8628562094610259 0.35740674433658615
outer loop
vertex -45.75 -79.78033008588991 4.7803300858899105
vertex -46.125 -79.625 4.7803300858899105
vertex -46.28033008588991 -79.78033008588991 4.250000000000002
endloop
endfacet
facet normal -0.35740674433657804 -0.8628562094610259 0.35740674433658615
outer loop
vertex -45.75 -79.78033008588991 4.7803300858899105
vertex -46.28033008588991 -79.78033008588991 4.250000000000002
vertex -45.75 -80 4.250000000000002
endloop
endfacet
facet normal -0.15655801081562448 -0.3779644730092298 0.9124869568340744
outer loop
vertex -45.75 -79.25 5
vertex -46.125 -79.625 4.7803300858899105
vertex -45.75 -79.78033008588991 4.7803300858899105
endloop
endfacet
facet normal -0.8628562094610169 -0.35740674433659436 0.35740674433659164
outer loop
vertex -46.125 -79.625 4.7803300858899105
vertex -46.28033008588991 -79.25 4.7803300858899105
vertex -46.5 -79.25 4.25
endloop
endfacet
facet normal -0.8628562094610169 -0.35740674433659436 0.35740674433659164
outer loop
vertex -46.125 -79.625 4.7803300858899105
vertex -46.5 -79.25 4.25
vertex -46.28033008588991 -79.78033008588991 4.250000000000002
endloop
endfacet
facet normal -0.3779644730092279 -0.15655801081562015 0.912486956834076
outer loop
vertex -45.75 -79.25 5
vertex -46.28033008588991 -79.25 4.7803300858899105
vertex -46.125 -79.625 4.7803300858899105
endloop
endfacet
facet normal 0 -0.38268343236509694 0.9238795325112837
outer loop
vertex 45.75 -79.78033008588991 4.7803300858899105
vertex 45.75 -79.25 5
vertex -45.75 -79.25 5
endloop
endfacet
facet normal 0 -0.38268343236509694 0.9238795325112837
outer loop
vertex 45.75 -79.78033008588991 4.7803300858899105
vertex -45.75 -79.25 5
vertex -45.75 -79.78033008588991 4.7803300858899105
endloop
endfacet
facet normal 0 -0.9238795325112891 0.3826834323650842
outer loop
vertex 45.75 -80 4.25
vertex 45.75 -79.78033008588991 4.7803300858899105
vertex -45.75 -79.78033008588991 4.7803300858899105
endloop
endfacet
facet normal 0 -0.9238795325112891 0.3826834323650842
outer loop
vertex 45.75 -80 4.25
vertex -45.75 -79.78033008588991 4.7803300858899105
vertex -45.75 -80 4.250000000000002
endloop
endfacet
facet normal 0.8628562094610095 -0.35740674433660424 0.3574067443366
outer loop
vertex 46.280330085889915 -79.25 4.7803300858899105
vertex 46.125 -79.625 4.7803300858899105
vertex 46.28033008589 -79.78033008589011 4.25
endloop
endfacet
facet normal 0.8628562094610095 -0.35740674433660424 0.3574067443366
outer loop
vertex 46.280330085889915 -79.25 4.7803300858899105
vertex 46.28033008589 -79.78033008589011 4.25
vertex 46.50000000000006 -79.25000000000003 4.25
endloop
endfacet
facet normal 0.3779644730092294 -0.15655801081562382 0.9124869568340748
outer loop
vertex 45.75 -79.25 5
vertex 46.125 -79.625 4.7803300858899105
vertex 46.280330085889915 -79.25 4.7803300858899105
endloop
endfacet
facet normal 0.35740674433658953 -0.8628562094610225 0.35740674433658326
outer loop
vertex 46.125 -79.625 4.7803300858899105
vertex 45.75 -79.78033008588991 4.7803300858899105
vertex 45.75 -80 4.25
endloop
endfacet
facet normal 0.35740674433658953 -0.8628562094610225 0.35740674433658326
outer loop
vertex 46.125 -79.625 4.7803300858899105
vertex 45.75 -80 4.25
vertex 46.28033008589 -79.78033008589011 4.25
endloop
endfacet
facet normal 0.1565580108156184 -0.37796447300922675 0.9124869568340768
outer loop
vertex 45.75 -79.25 5
vertex 45.75 -79.78033008588991 4.7803300858899105
vertex 46.125 -79.625 4.7803300858899105
endloop
endfacet
facet normal -0.3826834323650918 0 0.9238795325112861
outer loop
vertex -45.75 -77 5
vertex -45.75 77 5
vertex -45.75 79.25 5
endloop
endfacet
facet normal -0.3826834323650918 0 0.9238795325112861
outer loop
vertex -45.75 -77 5
vertex -45.75 79.25 5
vertex -46.28033008588991 79.25 4.7803300858899105
endloop
endfacet
facet normal -0.3826834323650918 0 0.9238795325112861
outer loop
vertex -45.75 -77 5
vertex -46.28033008588991 79.25 4.7803300858899105
vertex -46.28033008588991 -79.25 4.7803300858899105
endloop
endfacet
facet normal -0.3826834323650918 0 0.9238795325112861
outer loop
vertex -45.75 -77 5
vertex -46.28033008588991 -79.25 4.7803300858899105
vertex -45.75 -79.25 5
endloop
endfacet
facet normal 0.3826834323647324 0 0.9238795325114347
outer loop
vertex 46.28033008589 79.25 4.780330085890114
vertex 45.75 79.25 5
vertex 45.75 77 5
endloop
endfacet
facet normal 0.3826834323647324 0 0.9238795325114347
outer loop
vertex 46.28033008589 79.25 4.780330085890114
vertex 45.75 77 5
vertex 45.75 -77 5
endloop
endfacet
facet normal 0.3826834323647324 0 0.9238795325114347
outer loop
vertex 46.28033008589 79.25 4.780330085890114
vertex 45.75 -77 5
vertex 45.75 -79.25 5
endloop
endfacet
facet normal 0.3826834323647324 0 0.9238795325114347
outer loop
vertex 46.28033008589 79.25 4.780330085890114
vertex 45.75 -79.25 5
vertex 46.280330085889915 -79.25 4.7803300858899105
endloop
endfacet
facet normal 0.9238795325112836 0 0.3826834323650975
outer loop
vertex 46.5 79.25 4.25
vertex 46.28033008589 79.25 4.780330085890114
vertex 46.280330085889915 -79.25 4.7803300858899105
endloop
endfacet
facet normal 0.9238795325112836 0 0.3826834323650975
outer loop
vertex 46.5 79.25 4.25
vertex 46.280330085889915 -79.25 4.7803300858899105
vertex 46.50000000000006 -79.25000000000003 4.25
endloop
endfacet
facet normal -0.9238795325112861 0 0.3826834323650914
outer loop
vertex -46.28033008588991 79.25 4.7803300858899105
vertex -46.50000000000025 79.25000000000011 4.25
vertex -46.5 -79.25 4.25
endloop
endfacet
facet normal -0.9238795325112861 0 0.3826834323650914
outer loop
vertex -46.28033008588991 79.25 4.7803300858899105
vertex -46.5 -79.25 4.25
vertex -46.28033008588991 -79.25 4.7803300858899105
endloop
endfacet
facet normal -0.8628562094610168 0.35740674433660136 0.3574067443365852
outer loop
vertex -46.28033008588991 79.25 4.7803300858899105
vertex -46.125 79.625 4.7803300858899105
vertex -46.280330085889645 79.78033008588929 4.25
endloop
endfacet
facet normal -0.8628562094610168 0.35740674433660136 0.3574067443365852
outer loop
vertex -46.28033008588991 79.25 4.7803300858899105
vertex -46.280330085889645 79.78033008588929 4.25
vertex -46.50000000000025 79.25000000000011 4.25
endloop
endfacet
facet normal -0.3779644730092298 0.15655801081561785 0.9124869568340755
outer loop
vertex -45.75 79.25 5
vertex -46.125 79.625 4.7803300858899105
vertex -46.28033008588991 79.25 4.7803300858899105
endloop
endfacet
facet normal -0.3574067443366063 0.8628562094610083 0.3574067443366008
outer loop
vertex -46.125 79.625 4.7803300858899105
vertex -45.75 79.78033008588991 4.7803300858899105
vertex -45.75 80 4.25
endloop
endfacet
facet normal -0.3574067443366063 0.8628562094610083 0.3574067443366008
outer loop
vertex -46.125 79.625 4.7803300858899105
vertex -45.75 80 4.25
vertex -46.280330085889645 79.78033008588929 4.25
endloop
endfacet
facet normal -0.156558010815626 0.3779644730092268 0.9124869568340754
outer loop
vertex -45.75 79.25 5
vertex -45.75 79.78033008588991 4.7803300858899105
vertex -46.125 79.625 4.7803300858899105
endloop
endfacet
facet normal 0 0.9238795325112947 0.3826834323650707
outer loop
vertex 45.75 79.78033008588991 4.7803300858899105
vertex 45.75 80 4.25
vertex -45.75 80 4.25
endloop
endfacet
facet normal 0 0.9238795325112947 0.3826834323650707
outer loop
vertex 45.75 79.78033008588991 4.7803300858899105
vertex -45.75 80 4.25
vertex -45.75 79.78033008588991 4.7803300858899105
endloop
endfacet
facet normal 0 0.38268343236508534 0.9238795325112886
outer loop
vertex 45.75 79.25 5
vertex 45.75 79.78033008588991 4.7803300858899105
vertex -45.75 79.78033008588991 4.7803300858899105
endloop
endfacet
facet normal 0 0.38268343236508534 0.9238795325112886
outer loop
vertex 45.75 79.25 5
vertex -45.75 79.78033008588991 4.7803300858899105
vertex -45.75 79.25 5
endloop
endfacet
facet normal 0.357406744336564 0.8628562094610254 0.357406744336602
outer loop
vertex 45.75 79.78033008588991 4.7803300858899105
vertex 46.125 79.625 4.7803300858899105
vertex 46.28033008589098 79.7803300858904 4.250000000000002
endloop
endfacet
facet normal 0.357406744336564 0.8628562094610254 0.357406744336602
outer loop
vertex 45.75 79.78033008588991 4.7803300858899105
vertex 46.28033008589098 79.7803300858904 4.250000000000002
vertex 45.75 80 4.25
endloop
endfacet
facet normal 0.1565580108156184 0.37796447300922975 0.9124869568340755
outer loop
vertex 45.75 79.25 5
vertex 46.125 79.625 4.7803300858899105
vertex 45.75 79.78033008588991 4.7803300858899105
endloop
endfacet
facet normal 0.8628562094610243 0.3574067443365873 0.3574067443365813
outer loop
vertex 46.125 79.625 4.7803300858899105
vertex 46.28033008589 79.25 4.780330085890114
vertex 46.5 79.25 4.25
endloop
endfacet
facet normal 0.8628562094610243 0.3574067443365873 0.3574067443365813
outer loop
vertex 46.125 79.625 4.7803300858899105
vertex 46.5 79.25 4.25
vertex 46.28033008589098 79.7803300858904 4.250000000000002
endloop
endfacet
facet normal 0.3779644730092355 0.15655801081562382 0.9124869568340722
outer loop
vertex 45.75 79.25 5
vertex 46.28033008589 79.25 4.780330085890114
vertex 46.125 79.625 4.7803300858899105
endloop
endfacet
facet normal 1 0 0
outer loop
vertex -43.5 -22.125 2
vertex -43.5 -21.927116006067653 2
vertex -43.5 -19.84403858487463 2
endloop
endfacet
facet normal 1 0 0
outer loop
vertex -43.5 -22.125 2
vertex -43.5 -19.84403858487463 2
vertex -43.5 -17.30580140307835 2
endloop
endfacet
facet normal 1 0 0
outer loop
vertex -43.5 -22.125 2
vertex -43.5 -17.30580140307835 2
vertex -43.5 -14.40994749211527 2
endloop
endfacet
facet normal 1 0 0
outer loop
vertex -43.5 -22.125 2
vertex -43.5 -14.40994749211527 2
vertex -43.5 -11.267762893770197 2
endloop
endfacet
facet normal 1 0 0
outer loop
vertex -43.5 -22.125 2
vertex -43.5 -11.267762893770197 2
vertex -43.5 -8.000000000000007 2
endloop
endfacet
facet normal 1 0 0
outer loop
vertex -43.5 -22.125 2
vertex -43.5 -8.000000000000007 2
vertex -43.5 -4.732237106229821 2
endloop
endfacet
facet normal 1 0 0
outer loop
vertex -43.5 -22.125 2
vertex -43.5 -4.732237106229821 2
vertex -43.5 -1.5900525078847876 2
endloop
endfacet
facet normal 1 0 0
outer loop
vertex -43.5 -22.125 2
vertex -43.5 -1.5900525078847876 2
vertex -43.5 1.3058014030783431 2
endloop
endfacet
facet normal 1 0 0
outer loop
vertex -43.5 -22.125 2
vertex -43.5 1.3058014030783431 2
vertex -43.5 3.844038584874652 2
endloop
endfacet
facet normal 1 0 0
outer loop
vertex -43.5 -22.125 2
vertex -43.5 3.844038584874652 2
vertex -43.5 5.927116006067647 2
endloop
endfacet
facet normal 1 0 0
outer loop
vertex -43.5 -22.125 2
vertex -43.5 5.927116006067647 2
vertex -43.5 6.125 2
endloop
endfacet
facet normal 1 0 0
outer loop
vertex -43.5 -22.125 2
vertex -43.5 6.125 2
vertex -43.5 17.875 2
endloop
endfacet
facet normal 1 0 0
outer loop
vertex -43.5 -22.125 2
vertex -43.5 17.875 2
vertex -43.5 18.072883993932358 2
endloop
endfacet
facet normal 1 0 0
outer loop
vertex -43.5 -22.125 2
vertex -43.5 18.072883993932358 2
vertex -43.5 20.155961415125333 2
endloop
endfacet
facet normal 1 0 0
outer loop
vertex -43.5 -22.125 2
vertex -43.5 20.155961415125333 2
vertex -43.5 22.69419859692166 2
endloop
endfacet
facet normal 1 0 0
outer loop
vertex -43.5 -22.125 2
vertex -43.5 22.69419859692166 2
vertex -43.5 25.590052507884735 2
endloop
endfacet
facet normal 1 0 0
outer loop
vertex -43.5 -22.125 2
vertex -43.5 25.590052507884735 2
vertex -43.5 28.732237106229817 2
endloop
endfacet
facet normal 1 0 0
outer loop
vertex -43.5 -22.125 2
vertex -43.5 28.732237106229817 2
vertex -43.5 31.99999999999998 2
endloop
endfacet
facet normal 1 0 0
outer loop
vertex -43.5 -22.125 2
vertex -43.5 31.99999999999998 2
vertex -43.5 35.26776289377019 2
endloop
endfacet
facet normal 1 0 0
outer loop
vertex -43.5 -22.125 2
vertex -43.5 35.26776289377019 2
vertex -43.5 38.40994749211522 2
endloop
endfacet
facet normal 1 0 0
outer loop
vertex -43.5 -22.125 2
vertex -43.5 38.40994749211522 2
vertex -43.5 41.30580140307833 2
endloop
endfacet
facet normal 1 0 0
outer loop
vertex -43.5 -22.125 2
vertex -43.5 41.30580140307833 2
vertex -43.5 43.84403858487467 2
endloop
endfacet
facet normal 1 0 0
outer loop
vertex -43.5 -22.125 2
vertex -43.5 43.84403858487467 2
vertex -43.5 45.927116006067685 2
endloop
endfacet
facet normal 1 0 0
outer loop
vertex -43.5 -22.125 2
vertex -43.5 45.927116006067685 2
vertex -43.5 46.125 2
endloop
endfacet
facet normal 1 0 0
outer loop
vertex -43.5 -22.125 2
vertex -43.5 46.125 2
vertex -43.5 77 2
endloop
endfacet
facet normal 1 0 0
outer loop
vertex -43.5 -22.125 2
vertex -43.5 77 2
vertex -43.5 77 5
endloop
endfacet
facet normal 1 0 0
outer loop
vertex -43.5 -22.125 2
vertex -43.5 77 5
vertex -43.5 -77 5
endloop
endfacet
facet normal 1 0 0
outer loop
vertex -43.5 -22.125 2
vertex -43.5 -77 5
vertex -43.5 -77 2
endloop
endfacet
facet normal -1 0 0
outer loop
vertex 43.5 -77 5
vertex 43.5 77 5
vertex 43.5 77 2
endloop
endfacet
facet normal -1 0 0
outer loop
vertex 43.5 -77 5
vertex 43.5 77 2
vertex 43.5 46.125 2
endloop
endfacet
facet normal -1 0 0
outer loop
vertex 43.5 -77 5
vertex 43.5 46.125 2
vertex 43.5 45.927116006067685 2
endloop
endfacet
facet normal -1 0 0
outer loop
vertex 43.5 -77 5
vertex 43.5 45.927116006067685 2
vertex 43.5 43.84403858487467 2
endloop
endfacet
facet normal -1 0 0
outer loop
vertex 43.5 -77 5
vertex 43.5 43.84403858487467 2
vertex 43.5 41.30580140307833 2
endloop
endfacet
facet normal -1 0 0
outer loop
vertex 43.5 -77 5
vertex 43.5 41.30580140307833 2
vertex 43.5 38.40994749211522 2
endloop
endfacet
facet normal -1 0 0
outer loop
vertex 43.5 -77 5
vertex 43.5 38.40994749211522 2
vertex 43.5 35.26776289377019 2
endloop
endfacet
facet normal -1 0 0
outer loop
vertex 43.5 -77 5
vertex 43.5 35.26776289377019 2
vertex 43.5 31.99999999999998 2
endloop
endfacet
facet normal -1 0 0
outer loop
vertex 43.5 -77 5
vertex 43.5 31.99999999999998 2
vertex 43.5 28.732237106229817 2
endloop
endfacet
facet normal -1 0 0
outer loop
vertex 43.5 -77 5
vertex 43.5 28.732237106229817 2
vertex 43.5 25.590052507884735 2
endloop
endfacet
facet normal -1 0 0
outer loop
vertex 43.5 -77 5
vertex 43.5 25.590052507884735 2
vertex 43.5 22.69419859692166 2
endloop
endfacet
facet normal -1 0 0
outer loop
vertex 43.5 -77 5
vertex 43.5 22.69419859692166 2
vertex 43.5 20.155961415125333 2
endloop
endfacet
facet normal -1 0 0
outer loop
vertex 43.5 -77 5
vertex 43.5 20.155961415125333 2
vertex 43.5 18.072883993932358 2
endloop
endfacet
facet normal -1 0 0
outer loop
vertex 43.5 -77 5
vertex 43.5 18.072883993932358 2
vertex 43.5 17.875 2
endloop
endfacet
facet normal -1 0 0
outer loop
vertex 43.5 -77 5
vertex 43.5 17.875 2
vertex 43.5 6.125 2
endloop
endfacet
facet normal -1 0 0
outer loop
vertex 43.5 -77 5
vertex 43.5 6.125 2
vertex 43.5 5.927116006067647 2
endloop
endfacet
facet normal -1 0 0
outer loop
vertex 43.5 -77 5
vertex 43.5 5.927116006067647 2
vertex 43.5 3.844038584874652 2
endloop
endfacet
facet normal -1 0 0
outer loop
vertex 43.5 -77 5
vertex 43.5 3.844038584874652 2
vertex 43.5 1.3058014030783431 2
endloop
endfacet
facet normal -1 0 0
outer loop
vertex 43.5 -77 5
vertex 43.5 1.3058014030783431 2
vertex 43.5 -1.5900525078847876 2
endloop
endfacet
facet normal -1 0 0
outer loop
vertex 43.5 -77 5
vertex 43.5 -1.5900525078847876 2
vertex 43.5 -4.732237106229821 2
endloop
endfacet
facet normal -1 0 0
outer loop
vertex 43.5 -77 5
vertex 43.5 -4.732237106229821 2
vertex 43.5 -8.000000000000007 2
endloop
endfacet
facet normal -1 0 0
outer loop
vertex 43.5 -77 5
vertex 43.5 -8.000000000000007 2
vertex 43.5 -11.267762893770197 2
endloop
endfacet
facet normal -1 0 0
outer loop
vertex 43.5 -77 5
vertex 43.5 -11.267762893770197 2
vertex 43.5 -14.40994749211527 2
endloop
endfacet
facet normal -1 0 0
outer loop
vertex 43.5 -77 5
vertex 43.5 -14.40994749211527 2
vertex 43.5 -17.30580140307835 2
endloop
endfacet
facet normal -1 0 0
outer loop
vertex 43.5 -77 5
vertex 43.5 -17.30580140307835 2
vertex 43.5 -19.84403858487463 2
endloop
endfacet
facet normal -1 0 0
outer loop
vertex 43.5 -77 5
vertex 43.5 -19.84403858487463 2
vertex 43.5 -21.927116006067653 2
endloop
endfacet
facet normal -1 0 0
outer loop
vertex 43.5 -77 5
vertex 43.5 -21.927116006067653 2
vertex 43.5 -22.125 2
endloop
endfacet
facet normal -1 0 0
outer loop
vertex 43.5 -77 5
vertex 43.5 -22.125 2
vertex 43.5 -77 2
endloop
endfacet
facet normal 0 1 0
outer loop
vertex -43.5 -77 5
vertex 43.5 -77 5
vertex 43.5 -77 2
endloop
endfacet
facet normal 0 1 0
outer loop
vertex -43.5 -77 5
vertex 43.5 -77 2
vertex -43.5 -77 2
endloop
endfacet
facet normal 0 -1 0
outer loop
vertex 43.5 77 2
vertex 43.5 77 5
vertex -43.5 77 5
endloop
endfacet
facet normal 0 -1 0
outer loop
vertex 43.5 77 2
vertex -43.5 77 5
vertex -43.5 77 2
endloop
endfacet
facet normal 0 0 1
outer loop
vertex 45.75 -79.25 5
vertex 45.75 -77 5
vertex 43.5 -77 5
endloop
endfacet
facet normal 0 0 1
outer loop
vertex 45.75 -79.25 5
vertex 43.5 -77 5
vertex -43.5 -77 5
endloop
endfacet
facet normal 0 0 1
outer loop
vertex 45.75 -79.25 5
vertex -43.5 -77 5
vertex -45.75 -77 5
endloop
endfacet
facet normal 0 0 1
outer loop
vertex 45.75 -79.25 5
vertex -45.75 -77 5
vertex -45.75 -79.25 5
endloop
endfacet
facet normal 0 0 1
outer loop
vertex -43.5 -77 5
vertex -43.5 77 5
vertex -45.75 77 5
endloop
endfacet
facet normal 0 0 1
outer loop
vertex -43.5 -77 5
vertex -45.75 77 5
vertex -45.75 -77 5
endloop
endfacet
facet normal 0 0 1
outer loop
vertex 45.75 -77 5
vertex 45.75 77 5
vertex 43.5 77 5
endloop
endfacet
facet normal 0 0 1
outer loop
vertex 45.75 -77 5
vertex 43.5 77 5
vertex 43.5 -77 5
endloop
endfacet
facet normal 0 0 1
outer loop
vertex -43.5 77 5
vertex 43.5 77 5
vertex 45.75 77 5
endloop
endfacet
facet normal 0 0 1
outer loop
vertex -43.5 77 5
vertex 45.75 77 5
vertex 45.75 79.25 5
endloop
endfacet
facet normal 0 0 1
outer loop
vertex -43.5 77 5
vertex 45.75 79.25 5
vertex -45.75 79.25 5
endloop
endfacet
facet normal 0 0 1
outer loop
vertex -43.5 77 5
vertex -45.75 79.25 5
vertex -45.75 77 5
endloop
endfacet
facet normal -0.995184726672197 0.09801714032955972 0
outer loop
vertex 16.42815344675411 28.732237106229853 2
vertex 16.75 32 2
vertex 16.75 32 0
endloop
endfacet
facet normal -0.995184726672197 0.09801714032955972 0
outer loop
vertex 16.42815344675411 28.732237106229853 2
vertex 16.75 32 0
vertex 16.42815344675411 28.732237106229853 0
endloop
endfacet
facet normal -0.956940335732209 0.29028467725446194 0
outer loop
vertex 15.474982169564052 25.590052507884746 2
vertex 16.42815344675411 28.732237106229853 2
vertex 16.42815344675411 28.732237106229853 0
endloop
endfacet
facet normal -0.956940335732209 0.29028467725446194 0
outer loop
vertex 15.474982169564052 25.590052507884746 2
vertex 16.42815344675411 28.732237106229853 0
vertex 15.474982169564052 25.590052507884746 0
endloop
endfacet
facet normal -0.8819212643483546 0.47139673682599864 0
outer loop
vertex 13.927116006067633 22.694198596921666 2
vertex 15.474982169564052 25.590052507884746 2
vertex 15.474982169564052 25.590052507884746 0
endloop
endfacet
facet normal -0.8819212643483546 0.47139673682599864 0
outer loop
vertex 13.927116006067633 22.694198596921666 2
vertex 15.474982169564052 25.590052507884746 0
vertex 13.927116006067633 22.694198596921666 0
endloop
endfacet
facet normal -0.7730104533627373 0.6343932841636452 0
outer loop
vertex 11.844038584874673 20.15596141512533 2
vertex 13.927116006067633 22.694198596921666 2
vertex 13.927116006067633 22.694198596921666 0
endloop
endfacet
facet normal -0.7730104533627373 0.6343932841636452 0
outer loop
vertex 11.844038584874673 20.15596141512533 2
vertex 13.927116006067633 22.694198596921666 0
vertex 11.844038584874673 20.15596141512533 0
endloop
endfacet
facet normal -0.6343932841636462 0.7730104533627363 0
outer loop
vertex 9.305801403078338 18.072883993932365 2
vertex 11.844038584874673 20.15596141512533 2
vertex 11.844038584874673 20.15596141512533 0
endloop
endfacet
facet normal -0.6343932841636462 0.7730104533627363 0
outer loop
vertex 9.305801403078338 18.072883993932365 2
vertex 11.844038584874673 20.15596141512533 0
vertex 9.305801403078338 18.072883993932365 0
endloop
endfacet
facet normal 0.6343932841636462 0.7730104533627363 0
outer loop
vertex -11.84403858487467 20.15596141512533 2
vertex -9.305801403078332 18.072883993932365 2
vertex -9.305801403078332 18.072883993932365 0
endloop
endfacet
facet normal 0.6343932841636462 0.7730104533627363 0
outer loop
vertex -11.84403858487467 20.15596141512533 2
vertex -9.305801403078332 18.072883993932365 0
vertex -11.84403858487467 20.15596141512533 0
endloop
endfacet
facet normal 0.7730104533627373 0.6343932841636452 0
outer loop
vertex -13.927116006067635 22.694198596921666 2
vertex -11.84403858487467 20.15596141512533 2
vertex -11.84403858487467 20.15596141512533 0
endloop
endfacet
facet normal 0.7730104533627373 0.6343932841636452 0
outer loop
vertex -13.927116006067635 22.694198596921666 2
vertex -11.84403858487467 20.15596141512533 0
vertex -13.927116006067635 22.694198596921666 0
endloop
endfacet
facet normal 0.8819212643483554 0.4713967368259972 0
outer loop
vertex -15.474982169564052 25.590052507884746 2
vertex -13.927116006067635 22.694198596921666 2
vertex -13.927116006067635 22.694198596921666 0
endloop
endfacet
facet normal 0.8819212643483554 0.4713967368259972 0
outer loop
vertex -15.474982169564052 25.590052507884746 2
vertex -13.927116006067635 22.694198596921666 0
vertex -15.474982169564052 25.590052507884746 0
endloop
endfacet
facet normal 0.9569403357322086 0.29028467725446355 0
outer loop
vertex -16.42815344675411 28.732237106229853 2
vertex -15.474982169564052 25.590052507884746 2
vertex -15.474982169564052 25.590052507884746 0
endloop
endfacet
facet normal 0.9569403357322086 0.29028467725446355 0
outer loop
vertex -16.42815344675411 28.732237106229853 2
vertex -15.474982169564052 25.590052507884746 0
vertex -16.42815344675411 28.732237106229853 0
endloop
endfacet
facet normal 0.9951847266721969 0.09801714032956005 0
outer loop
vertex -16.75 32 2
vertex -16.42815344675411 28.732237106229853 2
vertex -16.42815344675411 28.732237106229853 0
endloop
endfacet
facet normal 0.9951847266721969 0.09801714032956005 0
outer loop
vertex -16.75 32 2
vertex -16.42815344675411 28.732237106229853 0
vertex -16.75 32 0
endloop
endfacet
facet normal 0.995184726672197 -0.09801714032955972 0
outer loop
vertex -16.42815344675411 35.267762893770154 2
vertex -16.75 32 2
vertex -16.75 32 0
endloop
endfacet
facet normal 0.995184726672197 -0.09801714032955972 0
outer loop
vertex -16.42815344675411 35.267762893770154 2
vertex -16.75 32 0
vertex -16.42815344675411 35.267762893770154 0
endloop
endfacet
facet normal 0.9569403357322087 -0.2902846772544629 0
outer loop
vertex -15.474982169564056 38.40994749211524 2
vertex -16.42815344675411 35.267762893770154 2
vertex -16.42815344675411 35.267762893770154 0
endloop
endfacet
facet normal 0.9569403357322087 -0.2902846772544629 0
outer loop
vertex -15.474982169564056 38.40994749211524 2
vertex -16.42815344675411 35.267762893770154 0
vertex -15.474982169564056 38.40994749211524 0
endloop
endfacet
facet normal 0.881921264348356 -0.47139673682599575 0
outer loop
vertex -13.92711600606764 41.30580140307833 2
vertex -15.474982169564056 38.40994749211524 2
vertex -15.474982169564056 38.40994749211524 0
endloop
endfacet
facet normal 0.881921264348356 -0.47139673682599575 0
outer loop
vertex -13.92711600606764 41.30580140307833 2
vertex -15.474982169564056 38.40994749211524 0
vertex -13.92711600606764 41.30580140307833 0
endloop
endfacet
facet normal 0.7730104533627372 -0.6343932841636452 0
outer loop
vertex -11.844038584874674 43.84403858487467 2
vertex -13.92711600606764 41.30580140307833 2
vertex -13.92711600606764 41.30580140307833 0
endloop
endfacet
facet normal 0.7730104533627372 -0.6343932841636452 0
outer loop
vertex -11.844038584874674 43.84403858487467 2
vertex -13.92711600606764 41.30580140307833 0
vertex -11.844038584874674 43.84403858487467 0
endloop
endfacet
facet normal 0.6343932841636442 -0.7730104533627381 0
outer loop
vertex -9.305801403078336 45.927116006067635 2
vertex -11.844038584874674 43.84403858487467 2
vertex -11.844038584874674 43.84403858487467 0
endloop
endfacet
facet normal 0.6343932841636442 -0.7730104533627381 0
outer loop
vertex -9.305801403078336 45.927116006067635 2
vertex -11.844038584874674 43.84403858487467 0
vertex -9.305801403078336 45.927116006067635 0
endloop
endfacet
facet normal -0.6343932841636442 -0.7730104533627381 0
outer loop
vertex 11.844038584874669 43.84403858487467 2
vertex 9.30580140307833 45.927116006067635 2
vertex 9.30580140307833 45.927116006067635 0
endloop
endfacet
facet normal -0.6343932841636442 -0.7730104533627381 0
outer loop
vertex 11.844038584874669 43.84403858487467 2
vertex 9.30580140307833 45.927116006067635 0
vertex 11.844038584874669 43.84403858487467 0
endloop
endfacet
facet normal -0.7730104533627373 -0.6343932841636452 0
outer loop
vertex 13.927116006067633 41.30580140307833 2
vertex 11.844038584874669 43.84403858487467 2
vertex 11.844038584874669 43.84403858487467 0
endloop
endfacet
facet normal -0.7730104533627373 -0.6343932841636452 0
outer loop
vertex 13.927116006067633 41.30580140307833 2
vertex 11.844038584874669 43.84403858487467 0
vertex 13.927116006067633 41.30580140307833 0
endloop
endfacet
facet normal -0.8819212643483554 -0.4713967368259972 0
outer loop
vertex 15.474982169564049 38.40994749211524 2
vertex 13.927116006067633 41.30580140307833 2
vertex 13.927116006067633 41.30580140307833 0
endloop
endfacet
facet normal -0.8819212643483554 -0.4713967368259972 0
outer loop
vertex 15.474982169564049 38.40994749211524 2
vertex 13.927116006067633 41.30580140307833 0
vertex 15.474982169564049 38.40994749211524 0
endloop
endfacet
facet normal -0.9569403357322089 -0.29028467725446255 0
outer loop
vertex 16.42815344675411 35.267762893770154 2
vertex 15.474982169564049 38.40994749211524 2
vertex 15.474982169564049 38.40994749211524 0
endloop
endfacet
facet normal -0.9569403357322089 -0.29028467725446255 0
outer loop
vertex 16.42815344675411 35.267762893770154 2
vertex 15.474982169564049 38.40994749211524 0
vertex 16.42815344675411 35.267762893770154 0
endloop
endfacet
facet normal -0.995184726672197 -0.09801714032955972 0
outer loop
vertex 16.75 32 2
vertex 16.42815344675411 35.267762893770154 2
vertex 16.42815344675411 35.267762893770154 0
endloop
endfacet
facet normal -0.995184726672197 -0.09801714032955972 0
outer loop
vertex 16.75 32 2
vertex 16.42815344675411 35.267762893770154 0
vertex 16.75 32 0
endloop
endfacet
facet normal 0 1 0
outer loop
vertex -8.93558648963155 17.875 2
vertex 8.93558648963155 17.875 2
vertex 8.93558648963155 17.875 0
endloop
endfacet
facet normal 0 1 0
outer loop
vertex -8.93558648963155 17.875 2
vertex 8.93558648963155 17.875 0
vertex -8.93558648963155 17.875 0
endloop
endfacet
facet normal 0 -1 0
outer loop
vertex 8.935586489631548 46.125 2
vertex -8.935586489631548 46.125 2
vertex -8.935586489631548 46.125 0
endloop
endfacet
facet normal 0 -1 0
outer loop
vertex 8.935586489631548 46.125 2
vertex -8.935586489631548 46.125 0
vertex 8.935586489631548 46.125 0
endloop
endfacet
facet normal -0.47139673682599514 0.8819212643483564 0
outer loop
vertex 8.93558648963155 17.875 2
vertex 9.305801403078338 18.072883993932365 2
vertex 9.305801403078338 18.072883993932365 0
endloop
endfacet
facet normal -0.47139673682599514 0.8819212643483564 0
outer loop
vertex 8.93558648963155 17.875 2
vertex 9.305801403078338 18.072883993932365 0
vertex 8.93558648963155 17.875 0
endloop
endfacet
facet normal 0.4713967368259975 0.881921264348355 0
outer loop
vertex -9.305801403078332 18.072883993932365 2
vertex -8.93558648963155 17.875 2
vertex -8.93558648963155 17.875 0
endloop
endfacet
facet normal 0.4713967368259975 0.881921264348355 0
outer loop
vertex -9.305801403078332 18.072883993932365 2
vertex -8.93558648963155 17.875 0
vertex -9.305801403078332 18.072883993932365 0
endloop
endfacet
facet normal 0.47139673682599514 -0.8819212643483564 0
outer loop
vertex -8.935586489631548 46.125 2
vertex -9.305801403078336 45.927116006067635 2
vertex -9.305801403078336 45.927116006067635 0
endloop
endfacet
facet normal 0.47139673682599514 -0.8819212643483564 0
outer loop
vertex -8.935586489631548 46.125 2
vertex -9.305801403078336 45.927116006067635 0
vertex -8.935586489631548 46.125 0
endloop
endfacet
facet normal -0.47139673682599514 -0.8819212643483564 0
outer loop
vertex 9.30580140307833 45.927116006067635 2
vertex 8.935586489631548 46.125 2
vertex 8.935586489631548 46.125 0
endloop
endfacet
facet normal -0.47139673682599514 -0.8819212643483564 0
outer loop
vertex 9.30580140307833 45.927116006067635 2
vertex 8.935586489631548 46.125 0
vertex 9.30580140307833 45.927116006067635 0
endloop
endfacet
facet normal -0.9951847266721969 0.09801714032956005 0
outer loop
vertex 16.42815344675411 -11.267762893770147 2
vertex 16.75 -8 2
vertex 16.75 -8 0
endloop
endfacet
facet normal -0.9951847266721969 0.09801714032956005 0
outer loop
vertex 16.42815344675411 -11.267762893770147 2
vertex 16.75 -8 0
vertex 16.42815344675411 -11.267762893770147 0
endloop
endfacet
facet normal -0.956940335732209 0.29028467725446194 0
outer loop
vertex 15.474982169564052 -14.409947492115254 2
vertex 16.42815344675411 -11.267762893770147 2
vertex 16.42815344675411 -11.267762893770147 0
endloop
endfacet
facet normal -0.956940335732209 0.29028467725446194 0
outer loop
vertex 15.474982169564052 -14.409947492115254 2
vertex 16.42815344675411 -11.267762893770147 0
vertex 15.474982169564052 -14.409947492115254 0
endloop
endfacet
facet normal -0.8819212643483546 0.47139673682599864 0
outer loop
vertex 13.927116006067633 -17.305801403078334 2
vertex 15.474982169564052 -14.409947492115254 2
vertex 15.474982169564052 -14.409947492115254 0
endloop
endfacet
facet normal -0.8819212643483546 0.47139673682599864 0
outer loop
vertex 13.927116006067633 -17.305801403078334 2
vertex 15.474982169564052 -14.409947492115254 0
vertex 13.927116006067633 -17.305801403078334 0
endloop
endfacet
facet normal -0.7730104533627373 0.6343932841636452 0
outer loop
vertex 11.844038584874673 -19.84403858487467 2
vertex 13.927116006067633 -17.305801403078334 2
vertex 13.927116006067633 -17.305801403078334 0
endloop
endfacet
facet normal -0.7730104533627373 0.6343932841636452 0
outer loop
vertex 11.844038584874673 -19.84403858487467 2
vertex 13.927116006067633 -17.305801403078334 0
vertex 11.844038584874673 -19.84403858487467 0
endloop
endfacet
facet normal 0.7730104533627373 0.6343932841636452 0
outer loop
vertex -13.927116006067635 -17.305801403078334 2
vertex -11.84403858487467 -19.84403858487467 2
vertex -11.84403858487467 -19.84403858487467 0
endloop
endfacet
facet normal 0.7730104533627373 0.6343932841636452 0
outer loop
vertex -13.927116006067635 -17.305801403078334 2
vertex -11.84403858487467 -19.84403858487467 0
vertex -13.927116006067635 -17.305801403078334 0
endloop
endfacet
facet normal 0.8819212643483554 0.4713967368259972 0
outer loop
vertex -15.474982169564052 -14.409947492115254 2
vertex -13.927116006067635 -17.305801403078334 2
vertex -13.927116006067635 -17.305801403078334 0
endloop
endfacet
facet normal 0.8819212643483554 0.4713967368259972 0
outer loop
vertex -15.474982169564052 -14.409947492115254 2
vertex -13.927116006067635 -17.305801403078334 0
vertex -15.474982169564052 -14.409947492115254 0
endloop
endfacet
facet normal 0.9951847266721969 0.09801714032956005 0
outer loop
vertex -16.75 -8 2
vertex -16.42815344675411 -11.267762893770147 2
vertex -16.42815344675411 -11.267762893770147 0
endloop
endfacet
facet normal 0.9951847266721969 0.09801714032956005 0
outer loop
vertex -16.75 -8 2
vertex -16.42815344675411 -11.267762893770147 0
vertex -16.75 -8 0
endloop
endfacet
facet normal 0.995184726672197 -0.09801714032955998 0
outer loop
vertex -16.42815344675411 -4.732237106229842 2
vertex -16.75 -8 2
vertex -16.75 -8 0
endloop
endfacet
facet normal 0.995184726672197 -0.09801714032955998 0
outer loop
vertex -16.42815344675411 -4.732237106229842 2
vertex -16.75 -8 0
vertex -16.42815344675411 -4.732237106229842 0
endloop
endfacet
facet normal 0.8819212643483556 -0.47139673682599653 0
outer loop
vertex -13.92711600606764 1.3058014030783252 2
vertex -15.474982169564056 -1.5900525078847556 2
vertex -15.474982169564056 -1.5900525078847556 0
endloop
endfacet
facet normal 0.8819212643483556 -0.47139673682599653 0
outer loop
vertex -13.92711600606764 1.3058014030783252 2
vertex -15.474982169564056 -1.5900525078847556 0
vertex -13.92711600606764 1.3058014030783252 0
endloop
endfacet
facet normal 0.7730104533627372 -0.6343932841636452 0
outer loop
vertex -11.844038584874674 3.8440385848746708 2
vertex -13.92711600606764 1.3058014030783252 2
vertex -13.92711600606764 1.3058014030783252 0
endloop
endfacet
facet normal 0.7730104533627372 -0.6343932841636452 0
outer loop
vertex -11.844038584874674 3.8440385848746708 2
vertex -13.92711600606764 1.3058014030783252 0
vertex -11.844038584874674 3.8440385848746708 0
endloop
endfacet
facet normal 0.6343932841636452 -0.7730104533627372 0
outer loop
vertex -9.305801403078336 5.927116006067633 2
vertex -11.844038584874674 3.8440385848746708 2
vertex -11.844038584874674 3.8440385848746708 0
endloop
endfacet
facet normal 0.6343932841636452 -0.7730104533627372 0
outer loop
vertex -9.305801403078336 5.927116006067633 2
vertex -11.844038584874674 3.8440385848746708 0
vertex -9.305801403078336 5.927116006067633 0
endloop
endfacet
facet normal -0.8819212643483549 -0.4713967368259979 0
outer loop
vertex 15.474982169564049 -1.5900525078847556 2
vertex 13.927116006067633 1.3058014030783252 2
vertex 13.927116006067633 1.3058014030783252 0
endloop
endfacet
facet normal -0.8819212643483549 -0.4713967368259979 0
outer loop
vertex 15.474982169564049 -1.5900525078847556 2
vertex 13.927116006067633 1.3058014030783252 0
vertex 15.474982169564049 -1.5900525078847556 0
endloop
endfacet
facet normal -0.9569403357322085 -0.2902846772544638 0
outer loop
vertex 16.42815344675411 -4.732237106229842 2
vertex 15.474982169564049 -1.5900525078847556 2
vertex 15.474982169564049 -1.5900525078847556 0
endloop
endfacet
facet normal -0.9569403357322085 -0.2902846772544638 0
outer loop
vertex 16.42815344675411 -4.732237106229842 2
vertex 15.474982169564049 -1.5900525078847556 0
vertex 16.42815344675411 -4.732237106229842 0
endloop
endfacet
facet normal -0.995184726672197 -0.09801714032955998 0
outer loop
vertex 16.75 -8 2
vertex 16.42815344675411 -4.732237106229842 2
vertex 16.42815344675411 -4.732237106229842 0
endloop
endfacet
facet normal -0.995184726672197 -0.09801714032955998 0
outer loop
vertex 16.75 -8 2
vertex 16.42815344675411 -4.732237106229842 0
vertex 16.75 -8 0
endloop
endfacet
facet normal -0.47139673682599514 0.8819212643483564 0
outer loop
vertex 8.93558648963155 -22.125 2
vertex 9.305801403078338 -21.927116006067635 2
vertex 9.305801403078338 -21.927116006067635 0
endloop
endfacet
facet normal -0.47139673682599514 0.8819212643483564 0
outer loop
vertex 8.93558648963155 -22.125 2
vertex 9.305801403078338 -21.927116006067635 0
vertex 8.93558648963155 -22.125 0
endloop
endfacet
facet normal 0.4713967368259975 0.881921264348355 0
outer loop
vertex -9.305801403078332 -21.927116006067635 2
vertex -8.93558648963155 -22.125 2
vertex -8.93558648963155 -22.125 0
endloop
endfacet
facet normal 0.4713967368259975 0.881921264348355 0
outer loop
vertex -9.305801403078332 -21.927116006067635 2
vertex -8.93558648963155 -22.125 0
vertex -9.305801403078332 -21.927116006067635 0
endloop
endfacet
facet normal 0.4713967368259979 -0.8819212643483549 0
outer loop
vertex -8.935586489631548 6.125 2
vertex -9.305801403078336 5.927116006067633 2
vertex -9.305801403078336 5.927116006067633 0
endloop
endfacet
facet normal 0.4713967368259979 -0.8819212643483549 0
outer loop
vertex -8.935586489631548 6.125 2
vertex -9.305801403078336 5.927116006067633 0
vertex -8.935586489631548 6.125 0
endloop
endfacet
facet normal -0.4713967368259979 -0.8819212643483549 0
outer loop
vertex 9.30580140307833 5.927116006067633 2
vertex 8.935586489631548 6.125 2
vertex 8.935586489631548 6.125 0
endloop
endfacet
facet normal -0.4713967368259979 -0.8819212643483549 0
outer loop
vertex 9.30580140307833 5.927116006067633 2
vertex 8.935586489631548 6.125 0
vertex 9.30580140307833 5.927116006067633 0
endloop
endfacet
facet normal -0.6343932841636462 0.7730104533627363 0
outer loop
vertex 9.305801403078338 -21.927116006067635 2
vertex 11.844038584874673 -19.84403858487467 2
vertex 11.844038584874673 -19.84403858487467 0
endloop
endfacet
facet normal -0.6343932841636462 0.7730104533627363 0
outer loop
vertex 9.305801403078338 -21.927116006067635 2
vertex 11.844038584874673 -19.84403858487467 0
vertex 9.305801403078338 -21.927116006067635 0
endloop
endfacet
facet normal 0.6343932841636462 0.7730104533627363 0
outer loop
vertex -11.84403858487467 -19.84403858487467 2
vertex -9.305801403078332 -21.927116006067635 2
vertex -9.305801403078332 -21.927116006067635 0
endloop
endfacet
facet normal 0.6343932841636462 0.7730104533627363 0
outer loop
vertex -11.84403858487467 -19.84403858487467 2
vertex -9.305801403078332 -21.927116006067635 0
vertex -11.84403858487467 -19.84403858487467 0
endloop
endfacet
facet normal 0.9569403357322086 0.29028467725446355 0
outer loop
vertex -16.42815344675411 -11.267762893770147 2
vertex -15.474982169564052 -14.409947492115254 2
vertex -15.474982169564052 -14.409947492115254 0
endloop
endfacet
facet normal 0.9569403357322086 0.29028467725446355 0
outer loop
vertex -16.42815344675411 -11.267762893770147 2
vertex -15.474982169564052 -14.409947492115254 0
vertex -16.42815344675411 -11.267762893770147 0
endloop
endfacet
facet normal 0.9569403357322089 -0.29028467725446216 0
outer loop
vertex -15.474982169564056 -1.5900525078847556 2
vertex -16.42815344675411 -4.732237106229842 2
vertex -16.42815344675411 -4.732237106229842 0
endloop
endfacet
facet normal 0.9569403357322089 -0.29028467725446216 0
outer loop
vertex -15.474982169564056 -1.5900525078847556 2
vertex -16.42815344675411 -4.732237106229842 0
vertex -15.474982169564056 -1.5900525078847556 0
endloop
endfacet
facet normal -0.6343932841636452 -0.7730104533627372 0
outer loop
vertex 11.844038584874667 3.8440385848746708 2
vertex 9.30580140307833 5.927116006067633 2
vertex 9.30580140307833 5.927116006067633 0
endloop
endfacet
facet normal -0.6343932841636452 -0.7730104533627372 0
outer loop
vertex 11.844038584874667 3.8440385848746708 2
vertex 9.30580140307833 5.927116006067633 0
vertex 11.844038584874667 3.8440385848746708 0
endloop
endfacet
facet normal -0.7730104533627373 -0.6343932841636452 0
outer loop
vertex 13.927116006067633 1.3058014030783252 2
vertex 11.844038584874667 3.8440385848746708 2
vertex 11.844038584874667 3.8440385848746708 0
endloop
endfacet
facet normal -0.7730104533627373 -0.6343932841636452 0
outer loop
vertex 13.927116006067633 1.3058014030783252 2
vertex 11.844038584874667 3.8440385848746708 0
vertex 13.927116006067633 1.3058014030783252 0
endloop
endfacet
facet normal 0 1 0
outer loop
vertex 8.93558648963155 -22.125 2
vertex 8.93558648963155 -22.125 0
vertex -8.93558648963155 -22.125 0
endloop
endfacet
facet normal 0 1 0
outer loop
vertex 8.93558648963155 -22.125 2
vertex -8.93558648963155 -22.125 0
vertex -8.93558648963155 -22.125 2
endloop
endfacet
facet normal 0 -1 0
outer loop
vertex 8.935586489631548 6.125 0
vertex 8.935586489631548 6.125 2
vertex -8.935586489631548 6.125 2
endloop
endfacet
facet normal 0 -1 0
outer loop
vertex 8.935586489631548 6.125 0
vertex -8.935586489631548 6.125 2
vertex -8.935586489631548 6.125 0
endloop
endfacet
facet normal 0 -6.006097087179715e-15 -1
outer loop
vertex 45.750000000000085 79.25 -1.9895196601282805e-13
vertex 45.750000000000064 46.125 0
vertex 8.935586489631548 46.125 0
endloop
endfacet
facet normal 0 -6.006097087179715e-15 -1
outer loop
vertex 45.750000000000085 79.25 -1.9895196601282805e-13
vertex 8.935586489631548 46.125 0
vertex -8.935586489631548 46.125 0
endloop
endfacet
facet normal 0 -6.006097087179715e-15 -1
outer loop
vertex 45.750000000000085 79.25 -1.9895196601282805e-13
vertex -8.935586489631548 46.125 0
vertex -45.75 46.125 0
endloop
endfacet
facet normal 0 -6.006097087179715e-15 -1
outer loop
vertex 45.750000000000085 79.25 -1.9895196601282805e-13
vertex -45.75 46.125 0
vertex -45.75 79.25 0
endloop
endfacet
facet normal 0 0 -1
outer loop
vertex -8.935586489631548 46.125 0
vertex -9.305801403078336 45.927116006067635 0
vertex -45.75 45.92711600606768 0
endloop
endfacet
facet normal 0 0 -1
outer loop
vertex -8.935586489631548 46.125 0
vertex -45.75 45.92711600606768 0
vertex -45.75 46.125 0
endloop
endfacet
facet normal 0 0 -1
outer loop
vertex 45.750000000000064 46.125 0
vertex 45.750000000000064 45.92711600606768 0
vertex 9.30580140307833 45.927116006067635 0
endloop
endfacet
facet normal 0 0 -1
outer loop
vertex 45.750000000000064 46.125 0
vertex 9.30580140307833 45.927116006067635 0
vertex 8.935586489631548 46.125 0
endloop
endfacet
facet normal 0 0 -1
outer loop
vertex -9.305801403078336 45.927116006067635 0
vertex -11.844038584874674 43.84403858487467 0
vertex -45.75 43.84403858487466 0
endloop
endfacet
facet normal 0 0 -1
outer loop
vertex -9.305801403078336 45.927116006067635 0
vertex -45.75 43.84403858487466 0
vertex -45.75 45.92711600606768 0
endloop
endfacet
facet normal 0 0 -1
outer loop
vertex 45.750000000000064 45.92711600606768 0
vertex 45.750000000000064 43.84403858487466 0
vertex 11.844038584874669 43.84403858487467 0
endloop
endfacet
facet normal 0 0 -1
outer loop
vertex 45.750000000000064 45.92711600606768 0
vertex 11.844038584874669 43.84403858487467 0
vertex 9.30580140307833 45.927116006067635 0
endloop
endfacet
facet normal 0 0 -1
outer loop
vertex -11.844038584874674 43.84403858487467 0
vertex -13.92711600606764 41.30580140307833 0
vertex -45.75 41.305801403078334 0
endloop
endfacet
facet normal 0 0 -1
outer loop
vertex -11.844038584874674 43.84403858487467 0
vertex -45.75 41.305801403078334 0
vertex -45.75 43.84403858487466 0
endloop
endfacet
facet normal 0 0 -1
outer loop
vertex 45.750000000000064 43.84403858487466 0
vertex 45.750000000000064 41.305801403078334 0
vertex 13.927116006067633 41.30580140307833 0
endloop
endfacet
facet normal 0 0 -1
outer loop
vertex 45.750000000000064 43.84403858487466 0
vertex 13.927116006067633 41.30580140307833 0
vertex 11.844038584874669 43.84403858487467 0
endloop
endfacet
facet normal 0 0 -1
outer loop
vertex -13.92711600606764 41.30580140307833 0
vertex -15.474982169564056 38.40994749211524 0
vertex -45.75 38.409947492115215 0
endloop
endfacet
facet normal 0 0 -1
outer loop
vertex -13.92711600606764 41.30580140307833 0
vertex -45.75 38.409947492115215 0
vertex -45.75 41.305801403078334 0
endloop
endfacet
facet normal 0 0 -1
outer loop
vertex 45.750000000000064 41.305801403078334 0
vertex 45.750000000000064 38.409947492115215 0
vertex 15.474982169564049 38.40994749211524 0
endloop
endfacet
facet normal 0 0 -1
outer loop
vertex 45.750000000000064 41.305801403078334 0
vertex 15.474982169564049 38.40994749211524 0
vertex 13.927116006067633 41.30580140307833 0
endloop
endfacet
facet normal 0 0 -1
outer loop
vertex -15.474982169564056 38.40994749211524 0
vertex -16.42815344675411 35.267762893770154 0
vertex -45.75 35.2677628937702 0
endloop
endfacet
facet normal 0 0 -1
outer loop
vertex -15.474982169564056 38.40994749211524 0
vertex -45.75 35.2677628937702 0
vertex -45.75 38.409947492115215 0
endloop
endfacet
facet normal 0 0 -1
outer loop
vertex 45.750000000000064 38.409947492115215 0
vertex 45.750000000000064 35.2677628937702 0
vertex 16.42815344675411 35.267762893770154 0
endloop
endfacet
facet normal 0 0 -1
outer loop
vertex 45.750000000000064 38.409947492115215 0
vertex 16.42815344675411 35.267762893770154 0
vertex 15.474982169564049 38.40994749211524 0
endloop
endfacet
facet normal 0 0 -1
outer loop
vertex -16.42815344675411 35.267762893770154 0
vertex -16.75 32 0
vertex -45.75 31.999999999999986 0
endloop
endfacet
facet normal 0 0 -1
outer loop
vertex -16.42815344675411 35.267762893770154 0
vertex -45.75 31.999999999999986 0
vertex -45.75 35.2677628937702 0
endloop
endfacet
facet normal 0 0 -1
outer loop
vertex 45.750000000000064 35.2677628937702 0
vertex 45.75000000000006 31.999999999999986 0
vertex 16.75 32 0
endloop
endfacet
facet normal 0 0 -1
outer loop
vertex 45.750000000000064 35.2677628937702 0
vertex 16.75 32 0
vertex 16.42815344675411 35.267762893770154 0
endloop
endfacet
facet normal 0 0 -1
outer loop
vertex -16.75 32 0
vertex -16.42815344675411 28.732237106229853 0
vertex -45.75 28.73223710622983 0
endloop
endfacet
facet normal 0 0 -1
outer loop
vertex -16.75 32 0
vertex -45.75 28.73223710622983 0
vertex -45.75 31.999999999999986 0
endloop
endfacet
facet normal 0 0 -1
outer loop
vertex 45.75000000000006 31.999999999999986 0
vertex 45.75000000000006 28.73223710622983 0
vertex 16.42815344675411 28.732237106229853 0
endloop
endfacet
facet normal 0 0 -1
outer loop
vertex 45.75000000000006 31.999999999999986 0
vertex 16.42815344675411 28.732237106229853 0
vertex 16.75 32 0
endloop
endfacet
facet normal 0 0 -1
outer loop
vertex -16.42815344675411 28.732237106229853 0
vertex -15.474982169564052 25.590052507884746 0
vertex -45.75 25.590052507884735 0
endloop
endfacet
facet normal 0 0 -1
outer loop
vertex -16.42815344675411 28.732237106229853 0
vertex -45.75 25.590052507884735 0
vertex -45.75 28.73223710622983 0
endloop
endfacet
facet normal 0 0 -1
outer loop
vertex 45.75000000000006 28.73223710622983 0
vertex 45.75000000000006 25.590052507884735 0
vertex 15.474982169564052 25.590052507884746 0
endloop
endfacet
facet normal 0 0 -1
outer loop
vertex 45.75000000000006 28.73223710622983 0
vertex 15.474982169564052 25.590052507884746 0
vertex 16.42815344675411 28.732237106229853 0
endloop
endfacet
facet normal 0 0 -1
outer loop
vertex -15.474982169564052 25.590052507884746 0
vertex -13.927116006067635 22.694198596921666 0
vertex -45.75 22.694198596921645 0
endloop
endfacet
facet normal 0 0 -1
outer loop
vertex -15.474982169564052 25.590052507884746 0
vertex -45.75 22.694198596921645 0
vertex -45.75 25.590052507884735 0
endloop
endfacet
facet normal 0 0 -1
outer loop
vertex 45.75000000000006 25.590052507884735 0
vertex 45.75000000000006 22.694198596921645 0
vertex 13.927116006067633 22.694198596921666 0
endloop
endfacet
facet normal 0 0 -1
outer loop
vertex 45.75000000000006 25.590052507884735 0
vertex 13.927116006067633 22.694198596921666 0
vertex 15.474982169564052 25.590052507884746 0
endloop
endfacet
facet normal 0 0 -1
outer loop
vertex -13.927116006067635 22.694198596921666 0
vertex -11.84403858487467 20.15596141512533 0
vertex -45.75 20.155961415125347 0
endloop
endfacet
facet normal 0 0 -1
outer loop
vertex -13.927116006067635 22.694198596921666 0
vertex -45.75 20.155961415125347 0
vertex -45.75 22.694198596921645 0
endloop
endfacet
facet normal 0 0 -1
outer loop
vertex 45.75000000000006 22.694198596921645 0
vertex 45.75000000000006 20.155961415125347 0
vertex 11.844038584874673 20.15596141512533 0
endloop
endfacet
facet normal 0 0 -1
outer loop
vertex 45.75000000000006 22.694198596921645 0
vertex 11.844038584874673 20.15596141512533 0
vertex 13.927116006067633 22.694198596921666 0
endloop
endfacet
facet normal 0 0 -1
outer loop
vertex -11.84403858487467 20.15596141512533 0
vertex -9.305801403078332 18.072883993932365 0
vertex -45.75 18.07288399393235 0
endloop
endfacet
facet normal 0 0 -1
outer loop
vertex -11.84403858487467 20.15596141512533 0
vertex -45.75 18.07288399393235 0
vertex -45.75 20.155961415125347 0
endloop
endfacet
facet normal 0 0 -1
outer loop
vertex 45.75000000000006 20.155961415125347 0
vertex 45.75000000000005 18.07288399393235 0
vertex 9.305801403078338 18.072883993932365 0
endloop
endfacet
facet normal 0 0 -1
outer loop
vertex 45.75000000000006 20.155961415125347 0
vertex 9.305801403078338 18.072883993932365 0
vertex 11.844038584874673 20.15596141512533 0
endloop
endfacet
facet normal 0 0 -1
outer loop
vertex -9.305801403078332 18.072883993932365 0
vertex -8.93558648963155 17.875 0
vertex -45.75 17.875 0
endloop
endfacet
facet normal 0 0 -1
outer loop
vertex -9.305801403078332 18.072883993932365 0
vertex -45.75 17.875 0
vertex -45.75 18.07288399393235 0
endloop
endfacet
facet normal 0 0 -1
outer loop
vertex 45.75000000000005 18.07288399393235 0
vertex 45.75000000000005 17.875 0
vertex 8.93558648963155 17.875 0
endloop
endfacet
facet normal 0 0 -1
outer loop
vertex 45.75000000000005 18.07288399393235 0
vertex 8.93558648963155 17.875 0
vertex 9.305801403078338 18.072883993932365 0
endloop
endfacet
facet normal 0 0 -1
outer loop
vertex -8.93558648963155 17.875 0
vertex 8.93558648963155 17.875 0
vertex 45.75000000000005 17.875 0
endloop
endfacet
facet normal 0 0 -1
outer loop
vertex -8.93558648963155 17.875 0
vertex 45.75000000000005 17.875 0
vertex 45.75000000000004 6.125 0
endloop
endfacet
facet normal 0 0 -1
outer loop
vertex -8.93558648963155 17.875 0
vertex 45.75000000000004 6.125 0
vertex 8.935586489631548 6.125 0
endloop
endfacet
facet normal 0 0 -1
outer loop
vertex -8.93558648963155 17.875 0
vertex 8.935586489631548 6.125 0
vertex -8.935586489631548 6.125 0
endloop
endfacet
facet normal 0 0 -1
outer loop
vertex -8.93558648963155 17.875 0
vertex -8.935586489631548 6.125 0
vertex -45.75 6.125 0
endloop
endfacet
facet normal 0 0 -1
outer loop
vertex -8.93558648963155 17.875 0
vertex -45.75 6.125 0
vertex -45.75 17.875 0
endloop
endfacet
facet normal 0 0 -1
outer loop
vertex -8.935586489631548 6.125 0
vertex -9.305801403078336 5.927116006067633 0
vertex -45.75 5.927116006067652 0
endloop
endfacet
facet normal 0 0 -1
outer loop
vertex -8.935586489631548 6.125 0
vertex -45.75 5.927116006067652 0
vertex -45.75 6.125 0
endloop
endfacet
facet normal 0 0 -1
outer loop
vertex 45.75000000000004 6.125 0
vertex 45.75000000000004 5.927116006067652 0
vertex 9.30580140307833 5.927116006067633 0
endloop
endfacet
facet normal 0 0 -1
outer loop
vertex 45.75000000000004 6.125 0
vertex 9.30580140307833 5.927116006067633 0
vertex 8.935586489631548 6.125 0
endloop
endfacet
facet normal 0 0 -1
outer loop
vertex -9.305801403078336 5.927116006067633 0
vertex -11.844038584874674 3.8440385848746708 0
vertex -45.75 3.8440385848746406 0
endloop
endfacet
facet normal 0 0 -1
outer loop
vertex -9.305801403078336 5.927116006067633 0
vertex -45.75 3.8440385848746406 0
vertex -45.75 5.927116006067652 0
endloop
endfacet
facet normal 0 0 -1
outer loop
vertex 45.75000000000004 5.927116006067652 0
vertex 45.75000000000004 3.8440385848746406 0
vertex 11.844038584874667 3.8440385848746708 0
endloop
endfacet
facet normal 0 0 -1
outer loop
vertex 45.75000000000004 5.927116006067652 0
vertex 11.844038584874667 3.8440385848746708 0
vertex 9.30580140307833 5.927116006067633 0
endloop
endfacet
facet normal 0 0 -1
outer loop
vertex -11.844038584874674 3.8440385848746708 0
vertex -13.92711600606764 1.3058014030783252 0
vertex -45.75 1.3058014030783287 0
endloop
endfacet
facet normal 0 0 -1
outer loop
vertex -11.844038584874674 3.8440385848746708 0
vertex -45.75 1.3058014030783287 0
vertex -45.75 3.8440385848746406 0
endloop
endfacet
facet normal 0 0 -1
outer loop
vertex 45.75000000000004 3.8440385848746406 0
vertex 45.75000000000004 1.3058014030783287 0
vertex 13.927116006067633 1.3058014030783252 0
endloop
endfacet
facet normal 0 0 -1
outer loop
vertex 45.75000000000004 3.8440385848746406 0
vertex 13.927116006067633 1.3058014030783252 0
vertex 11.844038584874667 3.8440385848746708 0
endloop
endfacet
facet normal 0 0 -1
outer loop
vertex -13.92711600606764 1.3058014030783252 0
vertex -15.474982169564056 -1.5900525078847556 0
vertex -45.75 -1.590052507884792 0
endloop
endfacet
facet normal 0 0 -1
outer loop
vertex -13.92711600606764 1.3058014030783252 0
vertex -45.75 -1.590052507884792 0
vertex -45.75 1.3058014030783287 0
endloop
endfacet
facet normal 0 0 -1
outer loop
vertex 45.75000000000004 1.3058014030783287 0
vertex 45.75000000000004 -1.590052507884792 0
vertex 15.474982169564049 -1.5900525078847556 0
endloop
endfacet
facet normal 0 0 -1
outer loop
vertex 45.75000000000004 1.3058014030783287 0
vertex 15.474982169564049 -1.5900525078847556 0
vertex 13.927116006067633 1.3058014030783252 0
endloop
endfacet
facet normal 0 0 -1
outer loop
vertex -15.474982169564056 -1.5900525078847556 0
vertex -16.42815344675411 -4.732237106229842 0
vertex -45.75 -4.7322371062298405 0
endloop
endfacet
facet normal 0 0 -1
outer loop
vertex -15.474982169564056 -1.5900525078847556 0
vertex -45.75 -4.7322371062298405 0
vertex -45.75 -1.590052507884792 0
endloop
endfacet
facet normal 0 0 -1
outer loop
vertex 45.75000000000004 -1.590052507884792 0
vertex 45.75000000000004 -4.7322371062298405 0
vertex 16.42815344675411 -4.732237106229842 0
endloop
endfacet
facet normal 0 0 -1
outer loop
vertex 45.75000000000004 -1.590052507884792 0
vertex 16.42815344675411 -4.732237106229842 0
vertex 15.474982169564049 -1.5900525078847556 0
endloop
endfacet
facet normal 0 0 -1
outer loop
vertex -16.42815344675411 -4.732237106229842 0
vertex -16.75 -8 0
vertex -45.75 -7.999999999999979 0
endloop
endfacet
facet normal 0 0 -1
outer loop
vertex -16.42815344675411 -4.732237106229842 0
vertex -45.75 -7.999999999999979 0
vertex -45.75 -4.7322371062298405 0
endloop
endfacet
facet normal 0 0 -1
outer loop
vertex 45.75000000000004 -4.7322371062298405 0
vertex 45.750000000000036 -7.999999999999979 0
vertex 16.75 -8 0
endloop
endfacet
facet normal 0 0 -1
outer loop
vertex 45.75000000000004 -4.7322371062298405 0
vertex 16.75 -8 0
vertex 16.42815344675411 -4.732237106229842 0
endloop
endfacet
facet normal 0 0 -1
outer loop
vertex -16.75 -8 0
vertex -16.42815344675411 -11.267762893770147 0
vertex -45.75 -11.267762893770168 0
endloop
endfacet
facet normal 0 0 -1
outer loop
vertex -16.75 -8 0
vertex -45.75 -11.267762893770168 0
vertex -45.75 -7.999999999999979 0
endloop
endfacet
facet normal 0 0 -1
outer loop
vertex 45.750000000000036 -7.999999999999979 0
vertex 45.750000000000036 -11.267762893770168 0
vertex 16.42815344675411 -11.267762893770147 0
endloop
endfacet
facet normal 0 0 -1
outer loop
vertex 45.750000000000036 -7.999999999999979 0
vertex 16.42815344675411 -11.267762893770147 0
vertex 16.75 -8 0
endloop
endfacet
facet normal 0 0 -1
outer loop
vertex -16.42815344675411 -11.267762893770147 0
vertex -15.474982169564052 -14.409947492115254 0
vertex -45.75 -14.40994749211529 0
endloop
endfacet
facet normal 0 0 -1
outer loop
vertex -16.42815344675411 -11.267762893770147 0
vertex -45.75 -14.40994749211529 0
vertex -45.75 -11.267762893770168 0
endloop
endfacet
facet normal 0 0 -1
outer loop
vertex 45.750000000000036 -11.267762893770168 0
vertex 45.750000000000036 -14.40994749211529 0
vertex 15.474982169564052 -14.409947492115254 0
endloop
endfacet
facet normal 0 0 -1
outer loop
vertex 45.750000000000036 -11.267762893770168 0
vertex 15.474982169564052 -14.409947492115254 0
vertex 16.42815344675411 -11.267762893770147 0
endloop
endfacet
facet normal 0 0 -1
outer loop
vertex -15.474982169564052 -14.409947492115254 0
vertex -13.927116006067635 -17.305801403078334 0
vertex -45.75 -17.305801403078327 0
endloop
endfacet
facet normal 0 0 -1
outer loop
vertex -15.474982169564052 -14.409947492115254 0
vertex -45.75 -17.305801403078327 0
vertex -45.75 -14.40994749211529 0
endloop
endfacet
facet normal 0 0 -1
outer loop
vertex 45.750000000000036 -14.40994749211529 0
vertex 45.750000000000036 -17.305801403078327 0
vertex 13.927116006067633 -17.305801403078334 0
endloop
endfacet
facet normal 0 0 -1
outer loop
vertex 45.750000000000036 -14.40994749211529 0
vertex 13.927116006067633 -17.305801403078334 0
vertex 15.474982169564052 -14.409947492115254 0
endloop
endfacet
facet normal 0 0 -1
outer loop
vertex -13.927116006067635 -17.305801403078334 0
vertex -11.84403858487467 -19.84403858487467 0
vertex -45.75 -19.84403858487464 0
endloop
endfacet
facet normal 0 0 -1
outer loop
vertex -13.927116006067635 -17.305801403078334 0
vertex -45.75 -19.84403858487464 0
vertex -45.75 -17.305801403078327 0
endloop
endfacet
facet normal 0 0 -1
outer loop
vertex 45.750000000000036 -17.305801403078327 0
vertex 45.75000000000003 -19.84403858487464 0
vertex 11.844038584874673 -19.84403858487467 0
endloop
endfacet
facet normal 0 0 -1
outer loop
vertex 45.750000000000036 -17.305801403078327 0
vertex 11.844038584874673 -19.84403858487467 0
vertex 13.927116006067633 -17.305801403078334 0
endloop
endfacet
facet normal 0 0 -1
outer loop
vertex -11.84403858487467 -19.84403858487467 0
vertex -9.305801403078332 -21.927116006067635 0
vertex -45.75 -21.927116006067642 0
endloop
endfacet
facet normal 0 0 -1
outer loop
vertex -11.84403858487467 -19.84403858487467 0
vertex -45.75 -21.927116006067642 0
vertex -45.75 -19.84403858487464 0
endloop
endfacet
facet normal 0 0 -1
outer loop
vertex 45.75000000000003 -19.84403858487464 0
vertex 45.75000000000003 -21.927116006067642 0
vertex 9.305801403078338 -21.927116006067635 0
endloop
endfacet
facet normal 0 0 -1
outer loop
vertex 45.75000000000003 -19.84403858487464 0
vertex 9.305801403078338 -21.927116006067635 0
vertex 11.844038584874673 -19.84403858487467 0
endloop
endfacet
facet normal 0 0 -1
outer loop
vertex -9.305801403078332 -21.927116006067635 0
vertex -8.93558648963155 -22.125 0
vertex -45.75 -22.125 0
endloop
endfacet
facet normal 0 0 -1
outer loop
vertex -9.305801403078332 -21.927116006067635 0
vertex -45.75 -22.125 0
vertex -45.75 -21.927116006067642 0
endloop
endfacet
facet normal 0 0 -1
outer loop
vertex 45.75000000000003 -21.927116006067642 0
vertex 45.75000000000003 -22.125 0
vertex 8.93558648963155 -22.125 0
endloop
endfacet
facet normal 0 0 -1
outer loop
vertex 45.75000000000003 -21.927116006067642 0
vertex 8.93558648963155 -22.125 0
vertex 9.305801403078338 -21.927116006067635 0
endloop
endfacet
facet normal 0 0 -1
outer loop
vertex -8.93558648963155 -22.125 0
vertex 8.93558648963155 -22.125 0
vertex 45.75000000000003 -22.125 0
endloop
endfacet
facet normal 0 0 -1
outer loop
vertex -8.93558648963155 -22.125 0
vertex 45.75000000000003 -22.125 0
vertex 45.75 -79.25 0
endloop
endfacet
facet normal 0 0 -1
outer loop
vertex -8.93558648963155 -22.125 0
vertex 45.75 -79.25 0
vertex -45.75 -79.25 0
endloop
endfacet
facet normal 0 0 -1
outer loop
vertex -8.93558648963155 -22.125 0
vertex -45.75 -79.25 0
vertex -45.75 -22.125 0
endloop
endfacet
facet normal 0 0 1
outer loop
vertex 43.5 -77 2
vertex 43.5 -22.125 2
vertex 8.93558648963155 -22.125 2
endloop
endfacet
facet normal 0 0 1
outer loop
vertex 43.5 -77 2
vertex 8.93558648963155 -22.125 2
vertex -8.93558648963155 -22.125 2
endloop
endfacet
facet normal 0 0 1
outer loop
vertex 43.5 -77 2
vertex -8.93558648963155 -22.125 2
vertex -43.5 -22.125 2
endloop
endfacet
facet normal 0 0 1
outer loop
vertex 43.5 -77 2
vertex -43.5 -22.125 2
vertex -43.5 -77 2
endloop
endfacet
facet normal 0 0 1
outer loop
vertex -8.93558648963155 -22.125 2
vertex -9.305801403078332 -21.927116006067635 2
vertex -43.5 -21.927116006067653 2
endloop
endfacet
facet normal 0 0 1
outer loop
vertex -8.93558648963155 -22.125 2
vertex -43.5 -21.927116006067653 2
vertex -43.5 -22.125 2
endloop
endfacet
facet normal 0 0 1
outer loop
vertex 43.5 -22.125 2
vertex 43.5 -21.927116006067653 2
vertex 9.305801403078338 -21.927116006067635 2
endloop
endfacet
facet normal 0 0 1
outer loop
vertex 43.5 -22.125 2
vertex 9.305801403078338 -21.927116006067635 2
vertex 8.93558648963155 -22.125 2
endloop
endfacet
facet normal 0 0 1
outer loop
vertex -9.305801403078332 -21.927116006067635 2
vertex -11.84403858487467 -19.84403858487467 2
vertex -43.5 -19.84403858487463 2
endloop
endfacet
facet normal 0 0 1
outer loop
vertex -9.305801403078332 -21.927116006067635 2
vertex -43.5 -19.84403858487463 2
vertex -43.5 -21.927116006067653 2
endloop
endfacet
facet normal 0 0 1
outer loop
vertex 43.5 -21.927116006067653 2
vertex 43.5 -19.84403858487463 2
vertex 11.844038584874673 -19.84403858487467 2
endloop
endfacet
facet normal 0 0 1
outer loop
vertex 43.5 -21.927116006067653 2
vertex 11.844038584874673 -19.84403858487467 2
vertex 9.305801403078338 -21.927116006067635 2
endloop
endfacet
facet normal 0 0 1
outer loop
vertex -11.84403858487467 -19.84403858487467 2
vertex -13.927116006067635 -17.305801403078334 2
vertex -43.5 -17.30580140307835 2
endloop
endfacet
facet normal 0 0 1
outer loop
vertex -11.84403858487467 -19.84403858487467 2
vertex -43.5 -17.30580140307835 2
vertex -43.5 -19.84403858487463 2
endloop
endfacet
facet normal 0 0 1
outer loop
vertex 43.5 -19.84403858487463 2
vertex 43.5 -17.30580140307835 2
vertex 13.927116006067633 -17.305801403078334 2
endloop
endfacet
facet normal 0 0 1
outer loop
vertex 43.5 -19.84403858487463 2
vertex 13.927116006067633 -17.305801403078334 2
vertex 11.844038584874673 -19.84403858487467 2
endloop
endfacet
facet normal 0 0 1
outer loop
vertex -13.927116006067635 -17.305801403078334 2
vertex -15.474982169564052 -14.409947492115254 2
vertex -43.5 -14.40994749211527 2
endloop
endfacet
facet normal 0 0 1
outer loop
vertex -13.927116006067635 -17.305801403078334 2
vertex -43.5 -14.40994749211527 2
vertex -43.5 -17.30580140307835 2
endloop
endfacet
facet normal 0 0 1
outer loop
vertex 43.5 -17.30580140307835 2
vertex 43.5 -14.40994749211527 2
vertex 15.474982169564052 -14.409947492115254 2
endloop
endfacet
facet normal 0 0 1
outer loop
vertex 43.5 -17.30580140307835 2
vertex 15.474982169564052 -14.409947492115254 2
vertex 13.927116006067633 -17.305801403078334 2
endloop
endfacet
facet normal 0 0 1
outer loop
vertex -15.474982169564052 -14.409947492115254 2
vertex -16.42815344675411 -11.267762893770147 2
vertex -43.5 -11.267762893770197 2
endloop
endfacet
facet normal 0 0 1
outer loop
vertex -15.474982169564052 -14.409947492115254 2
vertex -43.5 -11.267762893770197 2
vertex -43.5 -14.40994749211527 2
endloop
endfacet
facet normal 0 0 1
outer loop
vertex 43.5 -14.40994749211527 2
vertex 43.5 -11.267762893770197 2
vertex 16.42815344675411 -11.267762893770147 2
endloop
endfacet
facet normal 0 0 1
outer loop
vertex 43.5 -14.40994749211527 2
vertex 16.42815344675411 -11.267762893770147 2
vertex 15.474982169564052 -14.409947492115254 2
endloop
endfacet
facet normal 0 0 1
outer loop
vertex -16.42815344675411 -11.267762893770147 2
vertex -16.75 -8 2
vertex -43.5 -8.000000000000007 2
endloop
endfacet
facet normal 0 0 1
outer loop
vertex -16.42815344675411 -11.267762893770147 2
vertex -43.5 -8.000000000000007 2
vertex -43.5 -11.267762893770197 2
endloop
endfacet
facet normal 0 0 1
outer loop
vertex 43.5 -11.267762893770197 2
vertex 43.5 -8.000000000000007 2
vertex 16.75 -8 2
endloop
endfacet
facet normal 0 0 1
outer loop
vertex 43.5 -11.267762893770197 2
vertex 16.75 -8 2
vertex 16.42815344675411 -11.267762893770147 2
endloop
endfacet
facet normal 0 0 1
outer loop
vertex -16.75 -8 2
vertex -16.42815344675411 -4.732237106229842 2
vertex -43.5 -4.732237106229821 2
endloop
endfacet
facet normal 0 0 1
outer loop
vertex -16.75 -8 2
vertex -43.5 -4.732237106229821 2
vertex -43.5 -8.000000000000007 2
endloop
endfacet
facet normal 0 0 1
outer loop
vertex 43.5 -8.000000000000007 2
vertex 43.5 -4.732237106229821 2
vertex 16.42815344675411 -4.732237106229842 2
endloop
endfacet
facet normal 0 0 1
outer loop
vertex 43.5 -8.000000000000007 2
vertex 16.42815344675411 -4.732237106229842 2
vertex 16.75 -8 2
endloop
endfacet
facet normal 0 0 1
outer loop
vertex -16.42815344675411 -4.732237106229842 2
vertex -15.474982169564056 -1.5900525078847556 2
vertex -43.5 -1.5900525078847876 2
endloop
endfacet
facet normal 0 0 1
outer loop
vertex -16.42815344675411 -4.732237106229842 2
vertex -43.5 -1.5900525078847876 2
vertex -43.5 -4.732237106229821 2
endloop
endfacet
facet normal 0 0 1
outer loop
vertex 43.5 -4.732237106229821 2
vertex 43.5 -1.5900525078847876 2
vertex 15.474982169564049 -1.5900525078847556 2
endloop
endfacet
facet normal 0 0 1
outer loop
vertex 43.5 -4.732237106229821 2
vertex 15.474982169564049 -1.5900525078847556 2
vertex 16.42815344675411 -4.732237106229842 2
endloop
endfacet
facet normal 0 0 1
outer loop
vertex -15.474982169564056 -1.5900525078847556 2
vertex -13.92711600606764 1.3058014030783252 2
vertex -43.5 1.3058014030783431 2
endloop
endfacet
facet normal 0 0 1
outer loop
vertex -15.474982169564056 -1.5900525078847556 2
vertex -43.5 1.3058014030783431 2
vertex -43.5 -1.5900525078847876 2
endloop
endfacet
facet normal 0 0 1
outer loop
vertex 43.5 -1.5900525078847876 2
vertex 43.5 1.3058014030783431 2
vertex 13.927116006067633 1.3058014030783252 2
endloop
endfacet
facet normal 0 0 1
outer loop
vertex 43.5 -1.5900525078847876 2
vertex 13.927116006067633 1.3058014030783252 2
vertex 15.474982169564049 -1.5900525078847556 2
endloop
endfacet
facet normal 0 0 1
outer loop
vertex -13.92711600606764 1.3058014030783252 2
vertex -11.844038584874674 3.8440385848746708 2
vertex -43.5 3.844038584874652 2
endloop
endfacet
facet normal 0 0 1
outer loop
vertex -13.92711600606764 1.3058014030783252 2
vertex -43.5 3.844038584874652 2
vertex -43.5 1.3058014030783431 2
endloop
endfacet
facet normal 0 0 1
outer loop
vertex 43.5 1.3058014030783431 2
vertex 43.5 3.844038584874652 2
vertex 11.844038584874667 3.8440385848746708 2
endloop
endfacet
facet normal 0 0 1
outer loop
vertex 43.5 1.3058014030783431 2
vertex 11.844038584874667 3.8440385848746708 2
vertex 13.927116006067633 1.3058014030783252 2
endloop
endfacet
facet normal 0 0 1
outer loop
vertex -11.844038584874674 3.8440385848746708 2
vertex -9.305801403078336 5.927116006067633 2
vertex -43.5 5.927116006067647 2
endloop
endfacet
facet normal 0 0 1
outer loop
vertex -11.844038584874674 3.8440385848746708 2
vertex -43.5 5.927116006067647 2
vertex -43.5 3.844038584874652 2
endloop
endfacet
facet normal 0 0 1
outer loop
vertex 43.5 3.844038584874652 2
vertex 43.5 5.927116006067647 2
vertex 9.30580140307833 5.927116006067633 2
endloop
endfacet
facet normal 0 0 1
outer loop
vertex 43.5 3.844038584874652 2
vertex 9.30580140307833 5.927116006067633 2
vertex 11.844038584874667 3.8440385848746708 2
endloop
endfacet
facet normal 0 0 1
outer loop
vertex -9.305801403078336 5.927116006067633 2
vertex -8.935586489631548 6.125 2
vertex -43.5 6.125 2
endloop
endfacet
facet normal 0 0 1
outer loop
vertex -9.305801403078336 5.927116006067633 2
vertex -43.5 6.125 2
vertex -43.5 5.927116006067647 2
endloop
endfacet
facet normal 0 0 1
outer loop
vertex 43.5 5.927116006067647 2
vertex 43.5 6.125 2
vertex 8.935586489631548 6.125 2
endloop
endfacet
facet normal 0 0 1
outer loop
vertex 43.5 5.927116006067647 2
vertex 8.935586489631548 6.125 2
vertex 9.30580140307833 5.927116006067633 2
endloop
endfacet
facet normal 0 0 1
outer loop
vertex -8.935586489631548 6.125 2
vertex 8.935586489631548 6.125 2
vertex 43.5 6.125 2
endloop
endfacet
facet normal 0 0 1
outer loop
vertex -8.935586489631548 6.125 2
vertex 43.5 6.125 2
vertex 43.5 17.875 2
endloop
endfacet
facet normal 0 0 1
outer loop
vertex -8.935586489631548 6.125 2
vertex 43.5 17.875 2
vertex 8.93558648963155 17.875 2
endloop
endfacet
facet normal 0 0 1
outer loop
vertex -8.935586489631548 6.125 2
vertex 8.93558648963155 17.875 2
vertex -8.93558648963155 17.875 2
endloop
endfacet
facet normal 0 0 1
outer loop
vertex -8.935586489631548 6.125 2
vertex -8.93558648963155 17.875 2
vertex -43.5 17.875 2
endloop
endfacet
facet normal 0 0 1
outer loop
vertex -8.935586489631548 6.125 2
vertex -43.5 17.875 2
vertex -43.5 6.125 2
endloop
endfacet
facet normal 0 0 1
outer loop
vertex -8.93558648963155 17.875 2
vertex -9.305801403078332 18.072883993932365 2
vertex -43.5 18.072883993932358 2
endloop
endfacet
facet normal 0 0 1
outer loop
vertex -8.93558648963155 17.875 2
vertex -43.5 18.072883993932358 2
vertex -43.5 17.875 2
endloop
endfacet
facet normal 0 0 1
outer loop
vertex 43.5 17.875 2
vertex 43.5 18.072883993932358 2
vertex 9.305801403078338 18.072883993932365 2
endloop
endfacet
facet normal 0 0 1
outer loop
vertex 43.5 17.875 2
vertex 9.305801403078338 18.072883993932365 2
vertex 8.93558648963155 17.875 2
endloop
endfacet
facet normal 0 0 1
outer loop
vertex -9.305801403078332 18.072883993932365 2
vertex -11.84403858487467 20.15596141512533 2
vertex -43.5 20.155961415125333 2
endloop
endfacet
facet normal 0 0 1
outer loop
vertex -9.305801403078332 18.072883993932365 2
vertex -43.5 20.155961415125333 2
vertex -43.5 18.072883993932358 2
endloop
endfacet
facet normal 0 0 1
outer loop
vertex 43.5 18.072883993932358 2
vertex 43.5 20.155961415125333 2
vertex 11.844038584874673 20.15596141512533 2
endloop
endfacet
facet normal 0 0 1
outer loop
vertex 43.5 18.072883993932358 2
vertex 11.844038584874673 20.15596141512533 2
vertex 9.305801403078338 18.072883993932365 2
endloop
endfacet
facet normal 0 0 1
outer loop
vertex -11.84403858487467 20.15596141512533 2
vertex -13.927116006067635 22.694198596921666 2
vertex -43.5 22.69419859692166 2
endloop
endfacet
facet normal 0 0 1
outer loop
vertex -11.84403858487467 20.15596141512533 2
vertex -43.5 22.69419859692166 2
vertex -43.5 20.155961415125333 2
endloop
endfacet
facet normal 0 0 1
outer loop
vertex 43.5 20.155961415125333 2
vertex 43.5 22.69419859692166 2
vertex 13.927116006067633 22.694198596921666 2
endloop
endfacet
facet normal 0 0 1
outer loop
vertex 43.5 20.155961415125333 2
vertex 13.927116006067633 22.694198596921666 2
vertex 11.844038584874673 20.15596141512533 2
endloop
endfacet
facet normal 0 0 1
outer loop
vertex -13.927116006067635 22.694198596921666 2
vertex -15.474982169564052 25.590052507884746 2
vertex -43.5 25.590052507884735 2
endloop
endfacet
facet normal 0 0 1
outer loop
vertex -13.927116006067635 22.694198596921666 2
vertex -43.5 25.590052507884735 2
vertex -43.5 22.69419859692166 2
endloop
endfacet
facet normal 0 0 1
outer loop
vertex 43.5 22.69419859692166 2
vertex 43.5 25.590052507884735 2
vertex 15.474982169564052 25.590052507884746 2
endloop
endfacet
facet normal 0 0 1
outer loop
vertex 43.5 22.69419859692166 2
vertex 15.474982169564052 25.590052507884746 2
vertex 13.927116006067633 22.694198596921666 2
endloop
endfacet
facet normal 0 0 1
outer loop
vertex -15.474982169564052 25.590052507884746 2
vertex -16.42815344675411 28.732237106229853 2
vertex -43.5 28.732237106229817 2
endloop
endfacet
facet normal 0 0 1
outer loop
vertex -15.474982169564052 25.590052507884746 2
vertex -43.5 28.732237106229817 2
vertex -43.5 25.590052507884735 2
endloop
endfacet
facet normal 0 0 1
outer loop
vertex 43.5 25.590052507884735 2
vertex 43.5 28.732237106229817 2
vertex 16.42815344675411 28.732237106229853 2
endloop
endfacet
facet normal 0 0 1
outer loop
vertex 43.5 25.590052507884735 2
vertex 16.42815344675411 28.732237106229853 2
vertex 15.474982169564052 25.590052507884746 2
endloop
endfacet
facet normal 0 0 1
outer loop
vertex -16.42815344675411 28.732237106229853 2
vertex -16.75 32 2
vertex -43.5 31.99999999999998 2
endloop
endfacet
facet normal 0 0 1
outer loop
vertex -16.42815344675411 28.732237106229853 2
vertex -43.5 31.99999999999998 2
vertex -43.5 28.732237106229817 2
endloop
endfacet
facet normal 0 0 1
outer loop
vertex 43.5 28.732237106229817 2
vertex 43.5 31.99999999999998 2
vertex 16.75 32 2
endloop
endfacet
facet normal 0 0 1
outer loop
vertex 43.5 28.732237106229817 2
vertex 16.75 32 2
vertex 16.42815344675411 28.732237106229853 2
endloop
endfacet
facet normal 0 0 1
outer loop
vertex -16.75 32 2
vertex -16.42815344675411 35.267762893770154 2
vertex -43.5 35.26776289377019 2
endloop
endfacet
facet normal 0 0 1
outer loop
vertex -16.75 32 2
vertex -43.5 35.26776289377019 2
vertex -43.5 31.99999999999998 2
endloop
endfacet
facet normal 0 0 1
outer loop
vertex 43.5 31.99999999999998 2
vertex 43.5 35.26776289377019 2
vertex 16.42815344675411 35.267762893770154 2
endloop
endfacet
facet normal 0 0 1
outer loop
vertex 43.5 31.99999999999998 2
vertex 16.42815344675411 35.267762893770154 2
vertex 16.75 32 2
endloop
endfacet
facet normal 0 0 1
outer loop
vertex -16.42815344675411 35.267762893770154 2
vertex -15.474982169564056 38.40994749211524 2
vertex -43.5 38.40994749211522 2
endloop
endfacet
facet normal 0 0 1
outer loop
vertex -16.42815344675411 35.267762893770154 2
vertex -43.5 38.40994749211522 2
vertex -43.5 35.26776289377019 2
endloop
endfacet
facet normal 0 0 1
outer loop
vertex 43.5 35.26776289377019 2
vertex 43.5 38.40994749211522 2
vertex 15.474982169564049 38.40994749211524 2
endloop
endfacet
facet normal 0 0 1
outer loop
vertex 43.5 35.26776289377019 2
vertex 15.474982169564049 38.40994749211524 2
vertex 16.42815344675411 35.267762893770154 2
endloop
endfacet
facet normal 0 0 1
outer loop
vertex -15.474982169564056 38.40994749211524 2
vertex -13.92711600606764 41.30580140307833 2
vertex -43.5 41.30580140307833 2
endloop
endfacet
facet normal 0 0 1
outer loop
vertex -15.474982169564056 38.40994749211524 2
vertex -43.5 41.30580140307833 2
vertex -43.5 38.40994749211522 2
endloop
endfacet
facet normal 0 0 1
outer loop
vertex 43.5 38.40994749211522 2
vertex 43.5 41.30580140307833 2
vertex 13.927116006067633 41.30580140307833 2
endloop
endfacet
facet normal 0 0 1
outer loop
vertex 43.5 38.40994749211522 2
vertex 13.927116006067633 41.30580140307833 2
vertex 15.474982169564049 38.40994749211524 2
endloop
endfacet
facet normal 0 0 1
outer loop
vertex -13.92711600606764 41.30580140307833 2
vertex -11.844038584874674 43.84403858487467 2
vertex -43.5 43.84403858487467 2
endloop
endfacet
facet normal 0 0 1
outer loop
vertex -13.92711600606764 41.30580140307833 2
vertex -43.5 43.84403858487467 2
vertex -43.5 41.30580140307833 2
endloop
endfacet
facet normal 0 0 1
outer loop
vertex 43.5 41.30580140307833 2
vertex 43.5 43.84403858487467 2
vertex 11.844038584874669 43.84403858487467 2
endloop
endfacet
facet normal 0 0 1
outer loop
vertex 43.5 41.30580140307833 2
vertex 11.844038584874669 43.84403858487467 2
vertex 13.927116006067633 41.30580140307833 2
endloop
endfacet
facet normal 0 0 1
outer loop
vertex -11.844038584874674 43.84403858487467 2
vertex -9.305801403078336 45.927116006067635 2
vertex -43.5 45.927116006067685 2
endloop
endfacet
facet normal 0 0 1
outer loop
vertex -11.844038584874674 43.84403858487467 2
vertex -43.5 45.927116006067685 2
vertex -43.5 43.84403858487467 2
endloop
endfacet
facet normal 0 0 1
outer loop
vertex 43.5 43.84403858487467 2
vertex 43.5 45.927116006067685 2
vertex 9.30580140307833 45.927116006067635 2
endloop
endfacet
facet normal 0 0 1
outer loop
vertex 43.5 43.84403858487467 2
vertex 9.30580140307833 45.927116006067635 2
vertex 11.844038584874669 43.84403858487467 2
endloop
endfacet
facet normal 0 0 1
outer loop
vertex -9.305801403078336 45.927116006067635 2
vertex -8.935586489631548 46.125 2
vertex -43.5 46.125 2
endloop
endfacet
facet normal 0 0 1
outer loop
vertex -9.305801403078336 45.927116006067635 2
vertex -43.5 46.125 2
vertex -43.5 45.927116006067685 2
endloop
endfacet
facet normal 0 0 1
outer loop
vertex 43.5 45.927116006067685 2
vertex 43.5 46.125 2
vertex 8.935586489631548 46.125 2
endloop
endfacet
facet normal 0 0 1
outer loop
vertex 43.5 45.927116006067685 2
vertex 8.935586489631548 46.125 2
vertex 9.30580140307833 45.927116006067635 2
endloop
endfacet
facet normal 0 0 1
outer loop
vertex -8.935586489631548 46.125 2
vertex 8.935586489631548 46.125 2
vertex 43.5 46.125 2
endloop
endfacet
facet normal 0 0 1
outer loop
vertex -8.935586489631548 46.125 2
vertex 43.5 46.125 2
vertex 43.5 77 2
endloop
endfacet
facet normal 0 0 1
outer loop
vertex -8.935586489631548 46.125 2
vertex 43.5 77 2
vertex -43.5 77 2
endloop
endfacet
facet normal 0 0 1
outer loop
vertex -8.935586489631548 46.125 2
vertex -43.5 77 2
vertex -43.5 46.125 2
endloop
endfacet
endsolid csg.js
