solid csg.js
facet normal 0 0 -1
outer loop
vertex 20 63.5 0
vertex 20 48.5 0
vertex 0 48.5 0
endloop
endfacet
facet normal 0 0 -1
outer loop
vertex 20 63.5 0
vertex 0 48.5 0
vertex 0 63.5 0
endloop
endfacet
facet normal 0 0 -1
outer loop
vertex 20 48.5 0
vertex 64.5 48.5 0
vertex 64.5 0 0
endloop
endfacet
facet normal 0 0 -1
outer loop
vertex 20 48.5 0
vertex 64.5 0 0
vertex 20 0 0
endloop
endfacet
facet normal 0 0 -1
outer loop
vertex 20 48.5 0
vertex 20 0 0
vertex 0 0 0
endloop
endfacet
facet normal 0 0 -1
outer loop
vertex 20 48.5 0
vertex 0 0 0
vertex 0 48.5 0
endloop
endfacet
facet normal 0 0 -1
outer loop
vertex 20 0 0
vertex 20 -15 0
vertex 0 -15 0
endloop
endfacet
facet normal 0 0 -1
outer loop
vertex 20 0 0
vertex 0 -15 0
vertex 0 0 0
endloop
endfacet
facet normal 0 0 1
outer loop
vertex 64.5 2 5
vertex 64.5 46.5 5
vertex 0 46.5 5
endloop
endfacet
facet normal 0 0 1
outer loop
vertex 64.5 2 5
vertex 0 46.5 5
vertex 0 2 5
endloop
endfacet
facet normal 0 1 0
outer loop
vertex 0 2 20.000000000000004
vertex 64.5 2 20
vertex 64.5 2 5
endloop
endfacet
facet normal 0 1 0
outer loop
vertex 0 2 20.000000000000004
vertex 64.5 2 5
vertex 0 2 5
endloop
endfacet
facet normal 0 -1 0
outer loop
vertex 64.5 46.5 5
vertex 64.5 46.5 20.000000000000004
vertex 0 46.5 20
endloop
endfacet
facet normal 0 -1 0
outer loop
vertex 64.5 46.5 5
vertex 0 46.5 20
vertex 0 46.5 5
endloop
endfacet
facet normal -1 0 0
outer loop
vertex 0 2 20.000000000000004
vertex 0 2 5
vertex 0 0 5
endloop
endfacet
facet normal -1 0 0
outer loop
vertex 0 2 20.000000000000004
vertex 0 0 5
vertex 0 0 20.000000000000004
endloop
endfacet
facet normal -1 0 0
outer loop
vertex 0 48.5 20.000000000000004
vertex 0 48.5 5
vertex 0 46.5 5
endloop
endfacet
facet normal -1 0 0
outer loop
vertex 0 48.5 20.000000000000004
vertex 0 46.5 5
vertex 0 46.5 20
endloop
endfacet
facet normal -1 0 0
outer loop
vertex 0 0 5
vertex 0 2 5
vertex 0 46.5 5
endloop
endfacet
facet normal -1 0 0
outer loop
vertex 0 0 5
vertex 0 46.5 5
vertex 0 48.5 5
endloop
endfacet
facet normal -1 0 0
outer loop
vertex 0 0 5
vertex 0 48.5 5
vertex 0 63.5 5
endloop
endfacet
facet normal -1 0 0
outer loop
vertex 0 0 5
vertex 0 63.5 5
vertex 0 63.5 0
endloop
endfacet
facet normal -1 0 0
outer loop
vertex 0 0 5
vertex 0 63.5 0
vertex 0 48.5 0
endloop
endfacet
facet normal -1 0 0
outer loop
vertex 0 0 5
vertex 0 48.5 0
vertex 0 0 0
endloop
endfacet
facet normal -1 0 0
outer loop
vertex 0 0 5
vertex 0 0 0
vertex 0 -15 0
endloop
endfacet
facet normal -1 0 0
outer loop
vertex 0 0 5
vertex 0 -15 0
vertex 0 -15 5
endloop
endfacet
facet normal 1 0 0
outer loop
vertex 64.5 48.5 0
vertex 64.5 48.5 5
vertex 64.5 46.5 5
endloop
endfacet
facet normal 1 0 0
outer loop
vertex 64.5 48.5 0
vertex 64.5 46.5 5
vertex 64.5 2 5
endloop
endfacet
facet normal 1 0 0
outer loop
vertex 64.5 48.5 0
vertex 64.5 2 5
vertex 64.5 0 5
endloop
endfacet
facet normal 1 0 0
outer loop
vertex 64.5 48.5 0
vertex 64.5 0 5
vertex 64.5 0 0
endloop
endfacet
facet normal 1 0 0
outer loop
vertex 64.5 2 5
vertex 64.5 2 20
vertex 64.5 0 20
endloop
endfacet
facet normal 1 0 0
outer loop
vertex 64.5 2 5
vertex 64.5 0 20
vertex 64.5 0 5
endloop
endfacet
facet normal 1 0 0
outer loop
vertex 64.5 48.5 5
vertex 64.5 48.5 20
vertex 64.5 46.5 20.000000000000004
endloop
endfacet
facet normal 1 0 0
outer loop
vertex 64.5 48.5 5
vertex 64.5 46.5 20.000000000000004
vertex 64.5 46.5 5
endloop
endfacet
facet normal 0 0 1
outer loop
vertex 64.5 0 20
vertex 64.5 2 20
vertex 0 2 20.000000000000004
endloop
endfacet
facet normal 0 0 1
outer loop
vertex 64.5 0 20
vertex 0 2 20.000000000000004
vertex 0 0 20.000000000000004
endloop
endfacet
facet normal 0 0 1
outer loop
vertex 64.5 46.5 20.000000000000004
vertex 64.5 48.5 20
vertex 0 48.5 20.000000000000004
endloop
endfacet
facet normal 0 0 1
outer loop
vertex 64.5 46.5 20.000000000000004
vertex 0 48.5 20.000000000000004
vertex 0 46.5 20
endloop
endfacet
facet normal 0 -1 0
outer loop
vertex 64.5 0 0
vertex 64.5 0 5
vertex 20 0 5
endloop
endfacet
facet normal 0 -1 0
outer loop
vertex 64.5 0 0
vertex 20 0 5
vertex 20 0 0
endloop
endfacet
facet normal 0 -1 0
outer loop
vertex 20 0 5
vertex 64.5 0 5
vertex 64.5 0 20
endloop
endfacet
facet normal 0 -1 0
outer loop
vertex 20 0 5
vertex 64.5 0 20
vertex 0 0 20.000000000000004
endloop
endfacet
facet normal 0 -1 0
outer loop
vertex 20 0 5
vertex 0 0 20.000000000000004
vertex 0 0 5
endloop
endfacet
facet normal 0 1 0
outer loop
vertex 64.5 48.5 20
vertex 64.5 48.5 5
vertex 20 48.5 5
endloop
endfacet
facet normal 0 1 0
outer loop
vertex 64.5 48.5 20
vertex 20 48.5 5
vertex 0 48.5 5
endloop
endfacet
facet normal 0 1 0
outer loop
vertex 64.5 48.5 20
vertex 0 48.5 5
vertex 0 48.5 20.000000000000004
endloop
endfacet
facet normal 0 1 0
outer loop
vertex 64.5 48.5 5
vertex 64.5 48.5 0
vertex 20 48.5 0
endloop
endfacet
facet normal 0 1 0
outer loop
vertex 64.5 48.5 5
vertex 20 48.5 0
vertex 20 48.5 5
endloop
endfacet
facet normal 0 -1 0
outer loop
vertex 0 -15 0
vertex 20 -15 0
vertex 20 -15 5
endloop
endfacet
facet normal 0 -1 0
outer loop
vertex 0 -15 0
vertex 20 -15 5
vertex 0 -15 5
endloop
endfacet
facet normal 0 1 0
outer loop
vertex 0 63.5 0
vertex 0 63.5 5
vertex 20 63.5 5
endloop
endfacet
facet normal 0 1 0
outer loop
vertex 0 63.5 0
vertex 20 63.5 5
vertex 20 63.5 0
endloop
endfacet
facet normal 1 0 0
outer loop
vertex 20 0 0
vertex 20 0 5
vertex 20 -15 5
endloop
endfacet
facet normal 1 0 0
outer loop
vertex 20 0 0
vertex 20 -15 5
vertex 20 -15 0
endloop
endfacet
facet normal 1 0 0
outer loop
vertex 20 63.5 0
vertex 20 63.5 5
vertex 20 48.5 5
endloop
endfacet
facet normal 1 0 0
outer loop
vertex 20 63.5 0
vertex 20 48.5 5
vertex 20 48.5 0
endloop
endfacet
facet normal 0 0 1
outer loop
vertex 20 -15 5
vertex 20 0 5
vertex 0 0 5
endloop
endfacet
facet normal 0 0 1
outer loop
vertex 20 -15 5
vertex 0 0 5
vertex 0 -15 5
endloop
endfacet
facet normal 0 0 1
outer loop
vertex 20 48.5 5
vertex 20 63.5 5
vertex 0 63.5 5
endloop
endfacet
facet normal 0 0 1
outer loop
vertex 20 48.5 5
vertex 0 63.5 5
vertex 0 48.5 5
endloop
endfacet
endsolid csg.js
