solid csg.js
facet normal 0 0 -1
outer loop
vertex 0.9754516100806415 68.40392640201615 0
vertex 1.91341716182545 68.11939766255644 0
vertex 2.777851165098009 67.65734806151272 0
endloop
endfacet
facet normal 0 0 -1
outer loop
vertex 0.9754516100806415 68.40392640201615 0
vertex 2.777851165098009 67.65734806151272 0
vertex 3.535533905932737 67.03553390593274 0
endloop
endfacet
facet normal 0 0 -1
outer loop
vertex 0.9754516100806415 68.40392640201615 0
vertex 3.535533905932737 67.03553390593274 0
vertex 4.157348061512726 66.27785116509801 0
endloop
endfacet
facet normal 0 0 -1
outer loop
vertex 0.9754516100806415 68.40392640201615 0
vertex 4.157348061512726 66.27785116509801 0
vertex 4.619397662556432 65.41341716182545 0
endloop
endfacet
facet normal 0 0 -1
outer loop
vertex 0.9754516100806415 68.40392640201615 0
vertex 4.619397662556432 65.41341716182545 0
vertex 4.903926402016151 64.47545161008064 0
endloop
endfacet
facet normal 0 0 -1
outer loop
vertex 0.9754516100806415 68.40392640201615 0
vertex 4.903926402016151 64.47545161008064 0
vertex 5 63.5 0
endloop
endfacet
facet normal 0 0 -1
outer loop
vertex 0.9754516100806415 68.40392640201615 0
vertex 5 63.5 0
vertex 4.950754298321418 63 0
endloop
endfacet
facet normal 0 0 -1
outer loop
vertex 0.9754516100806415 68.40392640201615 0
vertex 4.950754298321418 63 0
vertex -4.950754298321418 63 0
endloop
endfacet
facet normal 0 0 -1
outer loop
vertex 0.9754516100806415 68.40392640201615 0
vertex -4.950754298321418 63 0
vertex -5 63.5 0
endloop
endfacet
facet normal 0 0 -1
outer loop
vertex 0.9754516100806415 68.40392640201615 0
vertex -5 63.5 0
vertex -4.903926402016151 64.47545161008064 0
endloop
endfacet
facet normal 0 0 -1
outer loop
vertex 0.9754516100806415 68.40392640201615 0
vertex -4.903926402016151 64.47545161008064 0
vertex -4.619397662556435 65.41341716182545 0
endloop
endfacet
facet normal 0 0 -1
outer loop
vertex 0.9754516100806415 68.40392640201615 0
vertex -4.619397662556435 65.41341716182545 0
vertex -4.157348061512728 66.27785116509801 0
endloop
endfacet
facet normal 0 0 -1
outer loop
vertex 0.9754516100806415 68.40392640201615 0
vertex -4.157348061512728 66.27785116509801 0
vertex -3.5355339059327386 67.03553390593274 0
endloop
endfacet
facet normal 0 0 -1
outer loop
vertex 0.9754516100806415 68.40392640201615 0
vertex -3.5355339059327386 67.03553390593274 0
vertex -2.777851165098011 67.65734806151272 0
endloop
endfacet
facet normal 0 0 -1
outer loop
vertex 0.9754516100806415 68.40392640201615 0
vertex -2.777851165098011 67.65734806151272 0
vertex -1.9134171618254516 68.11939766255644 0
endloop
endfacet
facet normal 0 0 -1
outer loop
vertex 0.9754516100806415 68.40392640201615 0
vertex -1.9134171618254516 68.11939766255644 0
vertex -0.9754516100806433 68.40392640201615 0
endloop
endfacet
facet normal 0 0 -1
outer loop
vertex 0.9754516100806415 68.40392640201615 0
vertex -0.9754516100806433 68.40392640201615 0
vertex -9.184850993605148e-16 68.5 0
endloop
endfacet
facet normal 0 0 -1
outer loop
vertex 4.950754298321418 63 0
vertex 20 63 0
vertex 20 58.5 0
endloop
endfacet
facet normal 0 0 -1
outer loop
vertex 4.950754298321418 63 0
vertex 20 58.5 0
vertex 3.3306690738754696e-16 58.5 0
endloop
endfacet
facet normal 0 0 -1
outer loop
vertex 4.950754298321418 63 0
vertex 3.3306690738754696e-16 58.5 0
vertex -0.9754516100806399 58.596073597983846 0
endloop
endfacet
facet normal 0 0 -1
outer loop
vertex 4.950754298321418 63 0
vertex -0.9754516100806399 58.596073597983846 0
vertex -1.9134171618254485 58.88060233744356 0
endloop
endfacet
facet normal 0 0 -1
outer loop
vertex 4.950754298321418 63 0
vertex -1.9134171618254485 58.88060233744356 0
vertex -2.77785116509801 59.34265193848727 0
endloop
endfacet
facet normal 0 0 -1
outer loop
vertex 4.950754298321418 63 0
vertex -2.77785116509801 59.34265193848727 0
vertex -3.5355339059327373 59.96446609406726 0
endloop
endfacet
facet normal 0 0 -1
outer loop
vertex 4.950754298321418 63 0
vertex -3.5355339059327373 59.96446609406726 0
vertex -4.157348061512726 60.722148834901986 0
endloop
endfacet
facet normal 0 0 -1
outer loop
vertex 4.950754298321418 63 0
vertex -4.157348061512726 60.722148834901986 0
vertex -4.619397662556434 61.58658283817455 0
endloop
endfacet
facet normal 0 0 -1
outer loop
vertex 4.950754298321418 63 0
vertex -4.619397662556434 61.58658283817455 0
vertex -4.903926402016152 62.52454838991936 0
endloop
endfacet
facet normal 0 0 -1
outer loop
vertex 4.950754298321418 63 0
vertex -4.903926402016152 62.52454838991936 0
vertex -4.950754298321418 63 0
endloop
endfacet
facet normal 0 0 -1
outer loop
vertex 20 58.5 0
vertex 20 48 0
vertex 2.8548592061789737e-16 48 0
endloop
endfacet
facet normal 0 0 -1
outer loop
vertex 20 58.5 0
vertex 2.8548592061789737e-16 48 0
vertex 3.3306690738754696e-16 58.5 0
endloop
endfacet
facet normal 0 0 -1
outer loop
vertex 65.47545161008064 52.903926402016154 0
vertex 66.41341716182545 52.61939766255643 0
vertex 67.27785116509801 52.15734806151273 0
endloop
endfacet
facet normal 0 0 -1
outer loop
vertex 65.47545161008064 52.903926402016154 0
vertex 67.27785116509801 52.15734806151273 0
vertex 68.03553390593274 51.53553390593274 0
endloop
endfacet
facet normal 0 0 -1
outer loop
vertex 65.47545161008064 52.903926402016154 0
vertex 68.03553390593274 51.53553390593274 0
vertex 68.65734806151272 50.77785116509801 0
endloop
endfacet
facet normal 0 0 -1
outer loop
vertex 65.47545161008064 52.903926402016154 0
vertex 68.65734806151272 50.77785116509801 0
vertex 69.11939766255644 49.91341716182544 0
endloop
endfacet
facet normal 0 0 -1
outer loop
vertex 65.47545161008064 52.903926402016154 0
vertex 69.11939766255644 49.91341716182544 0
vertex 69.40392640201615 48.97545161008065 0
endloop
endfacet
facet normal 0 0 -1
outer loop
vertex 65.47545161008064 52.903926402016154 0
vertex 69.40392640201615 48.97545161008065 0
vertex 69.5 48 0
endloop
endfacet
facet normal 0 0 -1
outer loop
vertex 65.47545161008064 52.903926402016154 0
vertex 69.5 48 0
vertex 59.5 48 0
endloop
endfacet
facet normal 0 0 -1
outer loop
vertex 65.47545161008064 52.903926402016154 0
vertex 59.5 48 0
vertex 59.596073597983846 48.97545161008065 0
endloop
endfacet
facet normal 0 0 -1
outer loop
vertex 65.47545161008064 52.903926402016154 0
vertex 59.596073597983846 48.97545161008065 0
vertex 59.88060233744356 49.91341716182544 0
endloop
endfacet
facet normal 0 0 -1
outer loop
vertex 65.47545161008064 52.903926402016154 0
vertex 59.88060233744356 49.91341716182544 0
vertex 60.34265193848727 50.77785116509801 0
endloop
endfacet
facet normal 0 0 -1
outer loop
vertex 65.47545161008064 52.903926402016154 0
vertex 60.34265193848727 50.77785116509801 0
vertex 60.96446609406726 51.53553390593274 0
endloop
endfacet
facet normal 0 0 -1
outer loop
vertex 65.47545161008064 52.903926402016154 0
vertex 60.96446609406726 51.53553390593274 0
vertex 61.722148834901986 52.15734806151273 0
endloop
endfacet
facet normal 0 0 -1
outer loop
vertex 65.47545161008064 52.903926402016154 0
vertex 61.722148834901986 52.15734806151273 0
vertex 62.58658283817455 52.61939766255643 0
endloop
endfacet
facet normal 0 0 -1
outer loop
vertex 65.47545161008064 52.903926402016154 0
vertex 62.58658283817455 52.61939766255643 0
vertex 63.52454838991936 52.903926402016154 0
endloop
endfacet
facet normal 0 0 -1
outer loop
vertex 65.47545161008064 52.903926402016154 0
vertex 63.52454838991936 52.903926402016154 0
vertex 64.5 53 0
endloop
endfacet
facet normal 0 0 -1
outer loop
vertex 20 48 0
vertex 59.5 48 0
vertex 69.5 48 0
endloop
endfacet
facet normal 0 0 -1
outer loop
vertex 20 48 0
vertex 69.5 48 0
vertex 69.40392640201615 47.02454838991936 0
endloop
endfacet
facet normal 0 0 -1
outer loop
vertex 20 48 0
vertex 69.40392640201615 47.02454838991936 0
vertex 69.11939766255644 46.08658283817455 0
endloop
endfacet
facet normal 0 0 -1
outer loop
vertex 20 48 0
vertex 69.11939766255644 46.08658283817455 0
vertex 68.65734806151272 45.222148834901986 0
endloop
endfacet
facet normal 0 0 -1
outer loop
vertex 20 48 0
vertex 68.65734806151272 45.222148834901986 0
vertex 68.03553390593274 44.46446609406726 0
endloop
endfacet
facet normal 0 0 -1
outer loop
vertex 20 48 0
vertex 68.03553390593274 44.46446609406726 0
vertex 67.27785116509801 43.84265193848727 0
endloop
endfacet
facet normal 0 0 -1
outer loop
vertex 20 48 0
vertex 67.27785116509801 43.84265193848727 0
vertex 66.41341716182545 43.38060233744356 0
endloop
endfacet
facet normal 0 0 -1
outer loop
vertex 20 48 0
vertex 66.41341716182545 43.38060233744356 0
vertex 65.47545161008064 43.096073597983846 0
endloop
endfacet
facet normal 0 0 -1
outer loop
vertex 20 48 0
vertex 65.47545161008064 43.096073597983846 0
vertex 64.5 43 0
endloop
endfacet
facet normal 0 0 -1
outer loop
vertex 20 48 0
vertex 64.5 43 0
vertex 0 43 0
endloop
endfacet
facet normal 0 0 -1
outer loop
vertex 20 48 0
vertex 0 43 0
vertex 2.8548592061789737e-16 48 0
endloop
endfacet
facet normal 0 0 -1
outer loop
vertex 64.5 43 0
vertex 64.5 5 0
vertex 0 5 0
endloop
endfacet
facet normal 0 0 -1
outer loop
vertex 64.5 43 0
vertex 0 5 0
vertex 0 43 0
endloop
endfacet
facet normal 0 0 -1
outer loop
vertex 64.5 5 0
vertex 65.47545161008064 4.903926402016151 0
vertex 66.41341716182545 4.619397662556432 0
endloop
endfacet
facet normal 0 0 -1
outer loop
vertex 64.5 5 0
vertex 66.41341716182545 4.619397662556432 0
vertex 67.27785116509801 4.157348061512726 0
endloop
endfacet
facet normal 0 0 -1
outer loop
vertex 64.5 5 0
vertex 67.27785116509801 4.157348061512726 0
vertex 68.03553390593274 3.5355339059327373 0
endloop
endfacet
facet normal 0 0 -1
outer loop
vertex 64.5 5 0
vertex 68.03553390593274 3.5355339059327373 0
vertex 68.65734806151272 2.7778511650980073 0
endloop
endfacet
facet normal 0 0 -1
outer loop
vertex 64.5 5 0
vertex 68.65734806151272 2.7778511650980073 0
vertex 69.11939766255644 1.913417161825446 0
endloop
endfacet
facet normal 0 0 -1
outer loop
vertex 64.5 5 0
vertex 69.11939766255644 1.913417161825446 0
vertex 69.40392640201615 0.9754516100806441 0
endloop
endfacet
facet normal 0 0 -1
outer loop
vertex 64.5 5 0
vertex 69.40392640201615 0.9754516100806441 0
vertex 69.5 0 0
endloop
endfacet
facet normal 0 0 -1
outer loop
vertex 64.5 5 0
vertex 69.5 0 0
vertex 59.5 0 0
endloop
endfacet
facet normal 0 0 -1
outer loop
vertex 64.5 5 0
vertex 59.5 0 0
vertex 20 0 0
endloop
endfacet
facet normal 0 0 -1
outer loop
vertex 64.5 5 0
vertex 20 0 0
vertex 0 0 0
endloop
endfacet
facet normal 0 0 -1
outer loop
vertex 64.5 5 0
vertex 0 0 0
vertex 0 5 0
endloop
endfacet
facet normal 0 0 -1
outer loop
vertex 69.5 0 0
vertex 69.40392640201615 -0.9754516100806412 0
vertex 69.11939766255644 -1.913417161825449 0
endloop
endfacet
facet normal 0 0 -1
outer loop
vertex 69.5 0 0
vertex 69.11939766255644 -1.913417161825449 0
vertex 68.65734806151272 -2.777851165098011 0
endloop
endfacet
facet normal 0 0 -1
outer loop
vertex 69.5 0 0
vertex 68.65734806151272 -2.777851165098011 0
vertex 68.03553390593274 -3.5355339059327373 0
endloop
endfacet
facet normal 0 0 -1
outer loop
vertex 69.5 0 0
vertex 68.03553390593274 -3.5355339059327373 0
vertex 67.27785116509801 -4.157348061512726 0
endloop
endfacet
facet normal 0 0 -1
outer loop
vertex 69.5 0 0
vertex 67.27785116509801 -4.157348061512726 0
vertex 66.41341716182545 -4.619397662556434 0
endloop
endfacet
facet normal 0 0 -1
outer loop
vertex 69.5 0 0
vertex 66.41341716182545 -4.619397662556434 0
vertex 65.47545161008064 -4.903926402016152 0
endloop
endfacet
facet normal 0 0 -1
outer loop
vertex 69.5 0 0
vertex 65.47545161008064 -4.903926402016152 0
vertex 64.5 -5 0
endloop
endfacet
facet normal 0 0 -1
outer loop
vertex 69.5 0 0
vertex 64.5 -5 0
vertex 63.52454838991936 -4.903926402016152 0
endloop
endfacet
facet normal 0 0 -1
outer loop
vertex 69.5 0 0
vertex 63.52454838991936 -4.903926402016152 0
vertex 62.58658283817455 -4.619397662556434 0
endloop
endfacet
facet normal 0 0 -1
outer loop
vertex 69.5 0 0
vertex 62.58658283817455 -4.619397662556434 0
vertex 61.722148834901986 -4.157348061512726 0
endloop
endfacet
facet normal 0 0 -1
outer loop
vertex 69.5 0 0
vertex 61.722148834901986 -4.157348061512726 0
vertex 60.96446609406726 -3.5355339059327373 0
endloop
endfacet
facet normal 0 0 -1
outer loop
vertex 69.5 0 0
vertex 60.96446609406726 -3.5355339059327373 0
vertex 60.34265193848727 -2.777851165098011 0
endloop
endfacet
facet normal 0 0 -1
outer loop
vertex 69.5 0 0
vertex 60.34265193848727 -2.777851165098011 0
vertex 59.88060233744356 -1.913417161825449 0
endloop
endfacet
facet normal 0 0 -1
outer loop
vertex 69.5 0 0
vertex 59.88060233744356 -1.913417161825449 0
vertex 59.596073597983846 -0.9754516100806412 0
endloop
endfacet
facet normal 0 0 -1
outer loop
vertex 69.5 0 0
vertex 59.596073597983846 -0.9754516100806412 0
vertex 59.5 0 0
endloop
endfacet
facet normal 0 0 -1
outer loop
vertex 20 0 0
vertex 20 -10 0
vertex 2.265761274745215e-17 -10 0
endloop
endfacet
facet normal 0 0 -1
outer loop
vertex 20 0 0
vertex 2.265761274745215e-17 -10 0
vertex 0 0 0
endloop
endfacet
facet normal 0 0 -1
outer loop
vertex 20 -10 0
vertex 20 -15 0
vertex 5 -15 0
endloop
endfacet
facet normal 0 0 -1
outer loop
vertex 20 -10 0
vertex 5 -15 0
vertex -5 -15 0
endloop
endfacet
facet normal 0 0 -1
outer loop
vertex 20 -10 0
vertex -5 -15 0
vertex -4.903926402016151 -14.024548389919357 0
endloop
endfacet
facet normal 0 0 -1
outer loop
vertex 20 -10 0
vertex -4.903926402016151 -14.024548389919357 0
vertex -4.619397662556435 -13.086582838174554 0
endloop
endfacet
facet normal 0 0 -1
outer loop
vertex 20 -10 0
vertex -4.619397662556435 -13.086582838174554 0
vertex -4.157348061512728 -12.222148834901994 0
endloop
endfacet
facet normal 0 0 -1
outer loop
vertex 20 -10 0
vertex -4.157348061512728 -12.222148834901994 0
vertex -3.5355339059327386 -11.464466094067262 0
endloop
endfacet
facet normal 0 0 -1
outer loop
vertex 20 -10 0
vertex -3.5355339059327386 -11.464466094067262 0
vertex -2.777851165098011 -10.842651938487274 0
endloop
endfacet
facet normal 0 0 -1
outer loop
vertex 20 -10 0
vertex -2.777851165098011 -10.842651938487274 0
vertex -1.9134171618254516 -10.380602337443568 0
endloop
endfacet
facet normal 0 0 -1
outer loop
vertex 20 -10 0
vertex -1.9134171618254516 -10.380602337443568 0
vertex -0.9754516100806433 -10.09607359798385 0
endloop
endfacet
facet normal 0 0 -1
outer loop
vertex 20 -10 0
vertex -0.9754516100806433 -10.09607359798385 0
vertex 2.265761274745215e-17 -10 0
endloop
endfacet
facet normal 0 0 -1
outer loop
vertex 5 -15 0
vertex 4.903926402016152 -15.975451610080642 0
vertex 4.619397662556434 -16.91341716182545 0
endloop
endfacet
facet normal 0 0 -1
outer loop
vertex 5 -15 0
vertex 4.619397662556434 -16.91341716182545 0
vertex 4.157348061512726 -17.77785116509801 0
endloop
endfacet
facet normal 0 0 -1
outer loop
vertex 5 -15 0
vertex 4.157348061512726 -17.77785116509801 0
vertex 3.5355339059327378 -18.535533905932738 0
endloop
endfacet
facet normal 0 0 -1
outer loop
vertex 5 -15 0
vertex 3.5355339059327378 -18.535533905932738 0
vertex 2.7778511650980113 -19.157348061512728 0
endloop
endfacet
facet normal 0 0 -1
outer loop
vertex 5 -15 0
vertex 2.7778511650980113 -19.157348061512728 0
vertex 1.9134171618254492 -19.619397662556434 0
endloop
endfacet
facet normal 0 0 -1
outer loop
vertex 5 -15 0
vertex 1.9134171618254492 -19.619397662556434 0
vertex 0.9754516100806416 -19.903926402016154 0
endloop
endfacet
facet normal 0 0 -1
outer loop
vertex 5 -15 0
vertex 0.9754516100806416 -19.903926402016154 0
vertex 3.3306690738754696e-16 -20 0
endloop
endfacet
facet normal 0 0 -1
outer loop
vertex 5 -15 0
vertex 3.3306690738754696e-16 -20 0
vertex -0.9754516100806399 -19.903926402016154 0
endloop
endfacet
facet normal 0 0 -1
outer loop
vertex 5 -15 0
vertex -0.9754516100806399 -19.903926402016154 0
vertex -1.9134171618254485 -19.619397662556434 0
endloop
endfacet
facet normal 0 0 -1
outer loop
vertex 5 -15 0
vertex -1.9134171618254485 -19.619397662556434 0
vertex -2.77785116509801 -19.157348061512728 0
endloop
endfacet
facet normal 0 0 -1
outer loop
vertex 5 -15 0
vertex -2.77785116509801 -19.157348061512728 0
vertex -3.5355339059327373 -18.535533905932738 0
endloop
endfacet
facet normal 0 0 -1
outer loop
vertex 5 -15 0
vertex -3.5355339059327373 -18.535533905932738 0
vertex -4.157348061512726 -17.77785116509801 0
endloop
endfacet
facet normal 0 0 -1
outer loop
vertex 5 -15 0
vertex -4.157348061512726 -17.77785116509801 0
vertex -4.619397662556434 -16.91341716182545 0
endloop
endfacet
facet normal 0 0 -1
outer loop
vertex 5 -15 0
vertex -4.619397662556434 -16.91341716182545 0
vertex -4.903926402016152 -15.975451610080642 0
endloop
endfacet
facet normal 0 0 -1
outer loop
vertex 5 -15 0
vertex -4.903926402016152 -15.975451610080642 0
vertex -5 -15 0
endloop
endfacet
facet normal 0 0 1
outer loop
vertex 64.5 1.5 5
vertex 64.5 46.5 5
vertex 0 46.5 5
endloop
endfacet
facet normal 0 0 1
outer loop
vertex 64.5 1.5 5
vertex 0 46.5 5
vertex 0 1.5 5
endloop
endfacet
facet normal 0 1 0
outer loop
vertex 0 1.5 20.000000000000004
vertex 64.5 1.5 20
vertex 64.5 1.5 5
endloop
endfacet
facet normal 0 1 0
outer loop
vertex 0 1.5 20.000000000000004
vertex 64.5 1.5 5
vertex 0 1.5 5
endloop
endfacet
facet normal 0 -1 0
outer loop
vertex 64.5 46.5 5
vertex 64.5 46.5 20.000000000000004
vertex 0 46.5 20
endloop
endfacet
facet normal 0 -1 0
outer loop
vertex 64.5 46.5 5
vertex 0 46.5 20
vertex 0 46.5 5
endloop
endfacet
facet normal -1 0 0
outer loop
vertex 0 1.5 20.000000000000004
vertex 0 1.5 5
vertex 0 0 5
endloop
endfacet
facet normal -1 0 0
outer loop
vertex 0 1.5 20.000000000000004
vertex 0 0 5
vertex 0 0 20.000000000000004
endloop
endfacet
facet normal -1 0 0
outer loop
vertex 0 48 20.000000000000004
vertex 0 48 5
vertex 0 46.5 5
endloop
endfacet
facet normal -1 0 0
outer loop
vertex 0 48 20.000000000000004
vertex 0 46.5 5
vertex 0 46.5 20
endloop
endfacet
facet normal -1 0 0
outer loop
vertex 0 1.5 5
vertex 0 46.5 5
vertex 0 48 5
endloop
endfacet
facet normal -1 0 0
outer loop
vertex 0 1.5 5
vertex 0 48 5
vertex 0 48 4
endloop
endfacet
facet normal -1 0 0
outer loop
vertex 0 1.5 5
vertex 0 48 4
vertex 0 0 4
endloop
endfacet
facet normal -1 0 0
outer loop
vertex 0 1.5 5
vertex 0 0 4
vertex 0 0 5
endloop
endfacet
facet normal -1 0 0
outer loop
vertex 0 0 4
vertex 0 48 4
vertex 0 63 4
endloop
endfacet
facet normal -1 0 0
outer loop
vertex 0 0 4
vertex 0 63 4
vertex 0 63 0.10000000000000009
endloop
endfacet
facet normal -1 0 0
outer loop
vertex 0 0 4
vertex 0 63 0.10000000000000009
vertex 0 58.50000000000001 0.10000000000000009
endloop
endfacet
facet normal -1 0 0
outer loop
vertex 0 0 4
vertex 0 58.50000000000001 0.10000000000000009
vertex 0 -10 0.10000000000000009
endloop
endfacet
facet normal -1 0 0
outer loop
vertex 0 0 4
vertex 0 -10 0.10000000000000009
vertex 0 -15 0.10000000000000009
endloop
endfacet
facet normal -1 0 0
outer loop
vertex 0 0 4
vertex 0 -15 0.10000000000000009
vertex 0 -15 4
endloop
endfacet
facet normal -1 4.531522549490438e-18 -3.330669073875467e-15
outer loop
vertex 0 58.50000000000001 0.10000000000000009
vertex 3.3306690738754696e-16 58.5 0
vertex 2.8548592061789737e-16 48 0
endloop
endfacet
facet normal -1 4.531522549490438e-18 -3.330669073875467e-15
outer loop
vertex 0 58.50000000000001 0.10000000000000009
vertex 2.8548592061789737e-16 48 0
vertex 0 43 0
endloop
endfacet
facet normal -1 4.531522549490438e-18 -3.330669073875467e-15
outer loop
vertex 0 58.50000000000001 0.10000000000000009
vertex 0 43 0
vertex 0 5 0
endloop
endfacet
facet normal -1 4.531522549490438e-18 -3.330669073875467e-15
outer loop
vertex 0 58.50000000000001 0.10000000000000009
vertex 0 5 0
vertex 0 0 0
endloop
endfacet
facet normal -1 4.531522549490438e-18 -3.330669073875467e-15
outer loop
vertex 0 58.50000000000001 0.10000000000000009
vertex 0 0 0
vertex 2.265761274745215e-17 -10 0
endloop
endfacet
facet normal -1 4.531522549490438e-18 -3.330669073875467e-15
outer loop
vertex 0 58.50000000000001 0.10000000000000009
vertex 2.265761274745215e-17 -10 0
vertex 0 -10 0.10000000000000009
endloop
endfacet
facet normal 1 0 0
outer loop
vertex 64.5 43 0
vertex 64.5 43 0.1
vertex 64.5 5 0.1
endloop
endfacet
facet normal 1 0 0
outer loop
vertex 64.5 43 0
vertex 64.5 5 0.1
vertex 64.5 5 0
endloop
endfacet
facet normal 1 0 0
outer loop
vertex 64.5 5 0.1
vertex 64.5 43 0.1
vertex 64.5 48 0.1
endloop
endfacet
facet normal 1 0 0
outer loop
vertex 64.5 5 0.1
vertex 64.5 48 0.1
vertex 64.5 48 4
endloop
endfacet
facet normal 1 0 0
outer loop
vertex 64.5 5 0.1
vertex 64.5 48 4
vertex 64.5 48 5
endloop
endfacet
facet normal 1 0 0
outer loop
vertex 64.5 5 0.1
vertex 64.5 48 5
vertex 64.5 46.5 5
endloop
endfacet
facet normal 1 0 0
outer loop
vertex 64.5 5 0.1
vertex 64.5 46.5 5
vertex 64.5 1.5 5
endloop
endfacet
facet normal 1 0 0
outer loop
vertex 64.5 5 0.1
vertex 64.5 1.5 5
vertex 64.5 0 5
endloop
endfacet
facet normal 1 0 0
outer loop
vertex 64.5 5 0.1
vertex 64.5 0 5
vertex 64.5 0 4
endloop
endfacet
facet normal 1 0 0
outer loop
vertex 64.5 5 0.1
vertex 64.5 0 4
vertex 64.5 0 0.1
endloop
endfacet
facet normal 1 0 0
outer loop
vertex 64.5 1.5 5
vertex 64.5 1.5 20
vertex 64.5 0 20
endloop
endfacet
facet normal 1 0 0
outer loop
vertex 64.5 1.5 5
vertex 64.5 0 20
vertex 64.5 0 5
endloop
endfacet
facet normal 1 0 0
outer loop
vertex 64.5 48 5
vertex 64.5 48 20
vertex 64.5 46.5 20.000000000000004
endloop
endfacet
facet normal 1 0 0
outer loop
vertex 64.5 48 5
vertex 64.5 46.5 20.000000000000004
vertex 64.5 46.5 5
endloop
endfacet
facet normal 0 0 1
outer loop
vertex 64.5 0 20
vertex 64.5 1.5 20
vertex 0 1.5 20.000000000000004
endloop
endfacet
facet normal 0 0 1
outer loop
vertex 64.5 0 20
vertex 0 1.5 20.000000000000004
vertex 0 0 20.000000000000004
endloop
endfacet
facet normal 0 0 1
outer loop
vertex 64.5 46.5 20.000000000000004
vertex 64.5 48 20
vertex 0 48 20.000000000000004
endloop
endfacet
facet normal 0 0 1
outer loop
vertex 64.5 46.5 20.000000000000004
vertex 0 48 20.000000000000004
vertex 0 46.5 20
endloop
endfacet
facet normal 0 -1 0
outer loop
vertex 59.5 0 0
vertex 59.50000000000001 0 0.1
vertex 20 0 0.1
endloop
endfacet
facet normal 0 -1 0
outer loop
vertex 59.5 0 0
vertex 20 0 0.1
vertex 20 0 0
endloop
endfacet
facet normal 0 -1 0
outer loop
vertex 59.50000000000001 0 0.1
vertex 64.5 0 0.1
vertex 64.5 0 4
endloop
endfacet
facet normal 0 -1 0
outer loop
vertex 59.50000000000001 0 0.1
vertex 64.5 0 4
vertex 20 0 4
endloop
endfacet
facet normal 0 -1 0
outer loop
vertex 59.50000000000001 0 0.1
vertex 20 0 4
vertex 20 0 0.1
endloop
endfacet
facet normal 0 -1 0
outer loop
vertex 20 0 4
vertex 64.5 0 4
vertex 64.5 0 5
endloop
endfacet
facet normal 0 -1 0
outer loop
vertex 20 0 4
vertex 64.5 0 5
vertex 64.5 0 20
endloop
endfacet
facet normal 0 -1 0
outer loop
vertex 20 0 4
vertex 64.5 0 20
vertex 0 0 20.000000000000004
endloop
endfacet
facet normal 0 -1 0
outer loop
vertex 20 0 4
vertex 0 0 20.000000000000004
vertex 0 0 5
endloop
endfacet
facet normal 0 -1 0
outer loop
vertex 20 0 4
vertex 0 0 5
vertex 0 0 4
endloop
endfacet
facet normal 0 1 0
outer loop
vertex 64.5 48 20
vertex 64.5 48 5
vertex 64.5 48 4
endloop
endfacet
facet normal 0 1 0
outer loop
vertex 64.5 48 20
vertex 64.5 48 4
vertex 20 48 4
endloop
endfacet
facet normal 0 1 0
outer loop
vertex 64.5 48 20
vertex 20 48 4
vertex 0 48 4
endloop
endfacet
facet normal 0 1 0
outer loop
vertex 64.5 48 20
vertex 0 48 4
vertex 0 48 5
endloop
endfacet
facet normal 0 1 0
outer loop
vertex 64.5 48 20
vertex 0 48 5
vertex 0 48 20.000000000000004
endloop
endfacet
facet normal 0 1 0
outer loop
vertex 64.5 48 4
vertex 64.5 48 0.1
vertex 59.50000000000001 48 0.10000000000000142
endloop
endfacet
facet normal 0 1 0
outer loop
vertex 64.5 48 4
vertex 59.50000000000001 48 0.10000000000000142
vertex 20 48 0.10000000000000142
endloop
endfacet
facet normal 0 1 0
outer loop
vertex 64.5 48 4
vertex 20 48 0.10000000000000142
vertex 20 48 4
endloop
endfacet
facet normal 0 1 0
outer loop
vertex 59.50000000000001 48 0.10000000000000142
vertex 59.5 48 0
vertex 20 48 0
endloop
endfacet
facet normal 0 1 0
outer loop
vertex 59.50000000000001 48 0.10000000000000142
vertex 20 48 0
vertex 20 48 0.10000000000000142
endloop
endfacet
facet normal 0 1 0
outer loop
vertex 20 63 4
vertex 20 63 0.1
vertex 4.950754298321417 63 0.1
endloop
endfacet
facet normal 0 1 0
outer loop
vertex 20 63 4
vertex 4.950754298321417 63 0.1
vertex 0 63 0.10000000000000009
endloop
endfacet
facet normal 0 1 0
outer loop
vertex 20 63 4
vertex 0 63 0.10000000000000009
vertex 0 63 4
endloop
endfacet
facet normal 0 1 0
outer loop
vertex 20 63 0.1
vertex 20 63 0
vertex 4.950754298321418 63 0
endloop
endfacet
facet normal 0 1 0
outer loop
vertex 20 63 0.1
vertex 4.950754298321418 63 0
vertex 4.950754298321417 63 0.1
endloop
endfacet
facet normal -0.09801714032955999 -0.9951847266721969 0
outer loop
vertex -0.9754516100806399 58.596073597983846 0
vertex 3.3306690738754696e-16 58.5 0
vertex 0 58.50000000000001 0.10000000000000009
endloop
endfacet
facet normal -0.09801714032955999 -0.9951847266721969 0
outer loop
vertex -0.9754516100806399 58.596073597983846 0
vertex 0 58.50000000000001 0.10000000000000009
vertex -0.9754516100806399 58.596073597983846 0.1
endloop
endfacet
facet normal 0 0 1
outer loop
vertex 0.9754516100806416 -19.903926402016154 0.1
vertex 1.9134171618254492 -19.619397662556434 0.1
vertex 2.7778511650980113 -19.157348061512728 0.1
endloop
endfacet
facet normal 0 0 1
outer loop
vertex 0.9754516100806416 -19.903926402016154 0.1
vertex 2.7778511650980113 -19.157348061512728 0.1
vertex 3.5355339059327378 -18.535533905932738 0.1
endloop
endfacet
facet normal 0 0 1
outer loop
vertex 0.9754516100806416 -19.903926402016154 0.1
vertex 3.5355339059327378 -18.535533905932738 0.1
vertex 4.157348061512726 -17.77785116509801 0.1
endloop
endfacet
facet normal 0 0 1
outer loop
vertex 0.9754516100806416 -19.903926402016154 0.1
vertex 4.157348061512726 -17.77785116509801 0.1
vertex 4.619397662556434 -16.91341716182545 0.1
endloop
endfacet
facet normal 0 0 1
outer loop
vertex 0.9754516100806416 -19.903926402016154 0.1
vertex 4.619397662556434 -16.91341716182545 0.1
vertex 4.903926402016152 -15.975451610080642 0.1
endloop
endfacet
facet normal 0 0 1
outer loop
vertex 0.9754516100806416 -19.903926402016154 0.1
vertex 4.903926402016152 -15.975451610080642 0.1
vertex 5 -15 0.1
endloop
endfacet
facet normal 0 0 1
outer loop
vertex 0.9754516100806416 -19.903926402016154 0.1
vertex 5 -15 0.1
vertex 0 -15 0.10000000000000009
endloop
endfacet
facet normal 0 0 1
outer loop
vertex 0.9754516100806416 -19.903926402016154 0.1
vertex 0 -15 0.10000000000000009
vertex -5 -15 0.1
endloop
endfacet
facet normal 0 0 1
outer loop
vertex 0.9754516100806416 -19.903926402016154 0.1
vertex -5 -15 0.1
vertex -4.903926402016152 -15.975451610080642 0.1
endloop
endfacet
facet normal 0 0 1
outer loop
vertex 0.9754516100806416 -19.903926402016154 0.1
vertex -4.903926402016152 -15.975451610080642 0.1
vertex -4.619397662556434 -16.91341716182545 0.1
endloop
endfacet
facet normal 0 0 1
outer loop
vertex 0.9754516100806416 -19.903926402016154 0.1
vertex -4.619397662556434 -16.91341716182545 0.1
vertex -4.157348061512726 -17.77785116509801 0.1
endloop
endfacet
facet normal 0 0 1
outer loop
vertex 0.9754516100806416 -19.903926402016154 0.1
vertex -4.157348061512726 -17.77785116509801 0.1
vertex -3.5355339059327373 -18.535533905932738 0.1
endloop
endfacet
facet normal 0 0 1
outer loop
vertex 0.9754516100806416 -19.903926402016154 0.1
vertex -3.5355339059327373 -18.535533905932738 0.1
vertex -2.77785116509801 -19.157348061512728 0.1
endloop
endfacet
facet normal 0 0 1
outer loop
vertex 0.9754516100806416 -19.903926402016154 0.1
vertex -2.77785116509801 -19.157348061512728 0.1
vertex -1.9134171618254485 -19.619397662556434 0.1
endloop
endfacet
facet normal 0 0 1
outer loop
vertex 0.9754516100806416 -19.903926402016154 0.1
vertex -1.9134171618254485 -19.619397662556434 0.1
vertex -0.9754516100806399 -19.903926402016154 0.1
endloop
endfacet
facet normal 0 0 1
outer loop
vertex 0.9754516100806416 -19.903926402016154 0.1
vertex -0.9754516100806399 -19.903926402016154 0.1
vertex 3.061616997868383e-16 -20 0.1
endloop
endfacet
facet normal 0 0 1
outer loop
vertex 0 -15 0.10000000000000009
vertex 0 -10 0.10000000000000009
vertex -0.9754516100806433 -10.09607359798385 0.1
endloop
endfacet
facet normal 0 0 1
outer loop
vertex 0 -15 0.10000000000000009
vertex -0.9754516100806433 -10.09607359798385 0.1
vertex -1.9134171618254516 -10.380602337443568 0.1
endloop
endfacet
facet normal 0 0 1
outer loop
vertex 0 -15 0.10000000000000009
vertex -1.9134171618254516 -10.380602337443568 0.1
vertex -2.777851165098011 -10.842651938487274 0.1
endloop
endfacet
facet normal 0 0 1
outer loop
vertex 0 -15 0.10000000000000009
vertex -2.777851165098011 -10.842651938487274 0.1
vertex -3.5355339059327386 -11.464466094067262 0.1
endloop
endfacet
facet normal 0 0 1
outer loop
vertex 0 -15 0.10000000000000009
vertex -3.5355339059327386 -11.464466094067262 0.1
vertex -4.157348061512728 -12.222148834901994 0.1
endloop
endfacet
facet normal 0 0 1
outer loop
vertex 0 -15 0.10000000000000009
vertex -4.157348061512728 -12.222148834901994 0.1
vertex -4.619397662556435 -13.086582838174554 0.1
endloop
endfacet
facet normal 0 0 1
outer loop
vertex 0 -15 0.10000000000000009
vertex -4.619397662556435 -13.086582838174554 0.1
vertex -4.903926402016151 -14.024548389919357 0.1
endloop
endfacet
facet normal 0 0 1
outer loop
vertex 0 -15 0.10000000000000009
vertex -4.903926402016151 -14.024548389919357 0.1
vertex -5 -15 0.1
endloop
endfacet
facet normal 0 0 1
outer loop
vertex 65.47545161008064 -4.903926402016152 0.1
vertex 66.41341716182545 -4.619397662556434 0.1
vertex 67.27785116509801 -4.157348061512726 0.1
endloop
endfacet
facet normal 0 0 1
outer loop
vertex 65.47545161008064 -4.903926402016152 0.1
vertex 67.27785116509801 -4.157348061512726 0.1
vertex 68.03553390593274 -3.5355339059327373 0.1
endloop
endfacet
facet normal 0 0 1
outer loop
vertex 65.47545161008064 -4.903926402016152 0.1
vertex 68.03553390593274 -3.5355339059327373 0.1
vertex 68.65734806151272 -2.777851165098011 0.1
endloop
endfacet
facet normal 0 0 1
outer loop
vertex 65.47545161008064 -4.903926402016152 0.1
vertex 68.65734806151272 -2.777851165098011 0.1
vertex 69.11939766255644 -1.913417161825449 0.1
endloop
endfacet
facet normal 0 0 1
outer loop
vertex 65.47545161008064 -4.903926402016152 0.1
vertex 69.11939766255644 -1.913417161825449 0.1
vertex 69.40392640201615 -0.9754516100806412 0.1
endloop
endfacet
facet normal 0 0 1
outer loop
vertex 65.47545161008064 -4.903926402016152 0.1
vertex 69.40392640201615 -0.9754516100806412 0.1
vertex 69.5 0 0.1
endloop
endfacet
facet normal 0 0 1
outer loop
vertex 65.47545161008064 -4.903926402016152 0.1
vertex 69.5 0 0.1
vertex 64.5 0 0.1
endloop
endfacet
facet normal 0 0 1
outer loop
vertex 65.47545161008064 -4.903926402016152 0.1
vertex 64.5 0 0.1
vertex 59.50000000000001 0 0.1
endloop
endfacet
facet normal 0 0 1
outer loop
vertex 65.47545161008064 -4.903926402016152 0.1
vertex 59.50000000000001 0 0.1
vertex 59.596073597983846 -0.9754516100806412 0.1
endloop
endfacet
facet normal 0 0 1
outer loop
vertex 65.47545161008064 -4.903926402016152 0.1
vertex 59.596073597983846 -0.9754516100806412 0.1
vertex 59.88060233744356 -1.913417161825449 0.1
endloop
endfacet
facet normal 0 0 1
outer loop
vertex 65.47545161008064 -4.903926402016152 0.1
vertex 59.88060233744356 -1.913417161825449 0.1
vertex 60.34265193848727 -2.777851165098011 0.1
endloop
endfacet
facet normal 0 0 1
outer loop
vertex 65.47545161008064 -4.903926402016152 0.1
vertex 60.34265193848727 -2.777851165098011 0.1
vertex 60.96446609406726 -3.5355339059327373 0.1
endloop
endfacet
facet normal 0 0 1
outer loop
vertex 65.47545161008064 -4.903926402016152 0.1
vertex 60.96446609406726 -3.5355339059327373 0.1
vertex 61.722148834901986 -4.157348061512726 0.1
endloop
endfacet
facet normal 0 0 1
outer loop
vertex 65.47545161008064 -4.903926402016152 0.1
vertex 61.722148834901986 -4.157348061512726 0.1
vertex 62.58658283817455 -4.619397662556434 0.1
endloop
endfacet
facet normal 0 0 1
outer loop
vertex 65.47545161008064 -4.903926402016152 0.1
vertex 62.58658283817455 -4.619397662556434 0.1
vertex 63.52454838991936 -4.903926402016152 0.1
endloop
endfacet
facet normal 0 0 1
outer loop
vertex 65.47545161008064 -4.903926402016152 0.1
vertex 63.52454838991936 -4.903926402016152 0.1
vertex 64.5 -5 0.1
endloop
endfacet
facet normal 0 0 1
outer loop
vertex 69.5 0 0.1
vertex 69.40392640201615 0.9754516100806441 0.1
vertex 69.11939766255644 1.913417161825446 0.1
endloop
endfacet
facet normal 0 0 1
outer loop
vertex 69.5 0 0.1
vertex 69.11939766255644 1.913417161825446 0.1
vertex 68.65734806151272 2.7778511650980073 0.1
endloop
endfacet
facet normal 0 0 1
outer loop
vertex 69.5 0 0.1
vertex 68.65734806151272 2.7778511650980073 0.1
vertex 68.03553390593274 3.5355339059327373 0.1
endloop
endfacet
facet normal 0 0 1
outer loop
vertex 69.5 0 0.1
vertex 68.03553390593274 3.5355339059327373 0.1
vertex 67.27785116509801 4.157348061512726 0.1
endloop
endfacet
facet normal 0 0 1
outer loop
vertex 69.5 0 0.1
vertex 67.27785116509801 4.157348061512726 0.1
vertex 66.41341716182545 4.619397662556432 0.1
endloop
endfacet
facet normal 0 0 1
outer loop
vertex 69.5 0 0.1
vertex 66.41341716182545 4.619397662556432 0.1
vertex 65.47545161008064 4.903926402016151 0.1
endloop
endfacet
facet normal 0 0 1
outer loop
vertex 69.5 0 0.1
vertex 65.47545161008064 4.903926402016151 0.1
vertex 64.5 5 0.1
endloop
endfacet
facet normal 0 0 1
outer loop
vertex 69.5 0 0.1
vertex 64.5 5 0.1
vertex 64.5 0 0.1
endloop
endfacet
facet normal 0 0 1
outer loop
vertex 65.47545161008064 43.096073597983846 0.1
vertex 66.41341716182545 43.38060233744356 0.1
vertex 67.27785116509801 43.84265193848727 0.1
endloop
endfacet
facet normal 0 0 1
outer loop
vertex 65.47545161008064 43.096073597983846 0.1
vertex 67.27785116509801 43.84265193848727 0.1
vertex 68.03553390593274 44.46446609406726 0.1
endloop
endfacet
facet normal 0 0 1
outer loop
vertex 65.47545161008064 43.096073597983846 0.1
vertex 68.03553390593274 44.46446609406726 0.1
vertex 68.65734806151272 45.222148834901986 0.1
endloop
endfacet
facet normal 0 0 1
outer loop
vertex 65.47545161008064 43.096073597983846 0.1
vertex 68.65734806151272 45.222148834901986 0.1
vertex 69.11939766255644 46.08658283817455 0.1
endloop
endfacet
facet normal 0 0 1
outer loop
vertex 65.47545161008064 43.096073597983846 0.1
vertex 69.11939766255644 46.08658283817455 0.1
vertex 69.40392640201615 47.02454838991936 0.1
endloop
endfacet
facet normal 0 0 1
outer loop
vertex 65.47545161008064 43.096073597983846 0.1
vertex 69.40392640201615 47.02454838991936 0.1
vertex 69.5 48 0.1
endloop
endfacet
facet normal 0 0 1
outer loop
vertex 65.47545161008064 43.096073597983846 0.1
vertex 69.5 48 0.1
vertex 64.5 48 0.1
endloop
endfacet
facet normal 0 0 1
outer loop
vertex 65.47545161008064 43.096073597983846 0.1
vertex 64.5 48 0.1
vertex 64.5 43 0.1
endloop
endfacet
facet normal 0 0 1
outer loop
vertex 64.5 48 0.1
vertex 69.5 48 0.1
vertex 69.40392640201615 48.97545161008065 0.1
endloop
endfacet
facet normal 0 0 1
outer loop
vertex 64.5 48 0.1
vertex 69.40392640201615 48.97545161008065 0.1
vertex 69.11939766255644 49.91341716182544 0.1
endloop
endfacet
facet normal 0 0 1
outer loop
vertex 64.5 48 0.1
vertex 69.11939766255644 49.91341716182544 0.1
vertex 68.65734806151272 50.77785116509801 0.1
endloop
endfacet
facet normal 0 0 1
outer loop
vertex 64.5 48 0.1
vertex 68.65734806151272 50.77785116509801 0.1
vertex 68.03553390593274 51.53553390593274 0.1
endloop
endfacet
facet normal 0 0 1
outer loop
vertex 64.5 48 0.1
vertex 68.03553390593274 51.53553390593274 0.1
vertex 67.27785116509801 52.15734806151273 0.1
endloop
endfacet
facet normal 0 0 1
outer loop
vertex 64.5 48 0.1
vertex 67.27785116509801 52.15734806151273 0.1
vertex 66.41341716182545 52.61939766255643 0.1
endloop
endfacet
facet normal 0 0 1
outer loop
vertex 64.5 48 0.1
vertex 66.41341716182545 52.61939766255643 0.1
vertex 65.47545161008064 52.903926402016154 0.1
endloop
endfacet
facet normal 0 0 1
outer loop
vertex 64.5 48 0.1
vertex 65.47545161008064 52.903926402016154 0.1
vertex 64.5 53 0.1
endloop
endfacet
facet normal 0 0 1
outer loop
vertex 64.5 48 0.1
vertex 64.5 53 0.1
vertex 63.52454838991936 52.903926402016154 0.1
endloop
endfacet
facet normal 0 0 1
outer loop
vertex 64.5 48 0.1
vertex 63.52454838991936 52.903926402016154 0.1
vertex 62.58658283817455 52.61939766255643 0.1
endloop
endfacet
facet normal 0 0 1
outer loop
vertex 64.5 48 0.1
vertex 62.58658283817455 52.61939766255643 0.1
vertex 61.722148834901986 52.15734806151273 0.1
endloop
endfacet
facet normal 0 0 1
outer loop
vertex 64.5 48 0.1
vertex 61.722148834901986 52.15734806151273 0.1
vertex 60.96446609406726 51.53553390593274 0.1
endloop
endfacet
facet normal 0 0 1
outer loop
vertex 64.5 48 0.1
vertex 60.96446609406726 51.53553390593274 0.1
vertex 60.34265193848727 50.77785116509801 0.1
endloop
endfacet
facet normal 0 0 1
outer loop
vertex 64.5 48 0.1
vertex 60.34265193848727 50.77785116509801 0.1
vertex 59.88060233744356 49.91341716182544 0.1
endloop
endfacet
facet normal 0 0 1
outer loop
vertex 64.5 48 0.1
vertex 59.88060233744356 49.91341716182544 0.1
vertex 59.596073597983846 48.97545161008065 0.1
endloop
endfacet
facet normal 0 0 1
outer loop
vertex 64.5 48 0.1
vertex 59.596073597983846 48.97545161008065 0.1
vertex 59.50000000000001 48 0.10000000000000142
endloop
endfacet
facet normal 0 0 1
outer loop
vertex 0 63 0.10000000000000009
vertex -4.950754298321418 63 0.1
vertex -4.903926402016152 62.52454838991936 0.1
endloop
endfacet
facet normal 0 0 1
outer loop
vertex 0 63 0.10000000000000009
vertex -4.903926402016152 62.52454838991936 0.1
vertex -4.619397662556434 61.58658283817455 0.1
endloop
endfacet
facet normal 0 0 1
outer loop
vertex 0 63 0.10000000000000009
vertex -4.619397662556434 61.58658283817455 0.1
vertex -4.157348061512726 60.722148834901986 0.1
endloop
endfacet
facet normal 0 0 1
outer loop
vertex 0 63 0.10000000000000009
vertex -4.157348061512726 60.722148834901986 0.1
vertex -3.5355339059327373 59.96446609406726 0.1
endloop
endfacet
facet normal 0 0 1
outer loop
vertex 0 63 0.10000000000000009
vertex -3.5355339059327373 59.96446609406726 0.1
vertex -2.77785116509801 59.34265193848727 0.1
endloop
endfacet
facet normal 0 0 1
outer loop
vertex 0 63 0.10000000000000009
vertex -2.77785116509801 59.34265193848727 0.1
vertex -1.9134171618254485 58.88060233744356 0.1
endloop
endfacet
facet normal 0 0 1
outer loop
vertex 0 63 0.10000000000000009
vertex -1.9134171618254485 58.88060233744356 0.1
vertex -0.9754516100806399 58.596073597983846 0.1
endloop
endfacet
facet normal 0 0 1
outer loop
vertex 0 63 0.10000000000000009
vertex -0.9754516100806399 58.596073597983846 0.1
vertex 0 58.50000000000001 0.10000000000000009
endloop
endfacet
facet normal 1.6818998041393172e-17 -1.6565267201582323e-18 1
outer loop
vertex 0 63 0.10000000000000009
vertex 4.950754298321417 63 0.1
vertex 5 63.5 0.1
endloop
endfacet
facet normal 1.6818998041393172e-17 -1.6565267201582323e-18 1
outer loop
vertex 0 63 0.10000000000000009
vertex 5 63.5 0.1
vertex 4.903926402016151 64.47545161008064 0.1
endloop
endfacet
facet normal 1.6818998041393172e-17 -1.6565267201582323e-18 1
outer loop
vertex 0 63 0.10000000000000009
vertex 4.903926402016151 64.47545161008064 0.1
vertex 4.619397662556432 65.41341716182545 0.1
endloop
endfacet
facet normal 1.6818998041393172e-17 -1.6565267201582323e-18 1
outer loop
vertex 0 63 0.10000000000000009
vertex 4.619397662556432 65.41341716182545 0.1
vertex 4.157348061512726 66.27785116509801 0.1
endloop
endfacet
facet normal 1.6818998041393172e-17 -1.6565267201582323e-18 1
outer loop
vertex 0 63 0.10000000000000009
vertex 4.157348061512726 66.27785116509801 0.1
vertex 3.535533905932737 67.03553390593274 0.1
endloop
endfacet
facet normal 1.6818998041393172e-17 -1.6565267201582323e-18 1
outer loop
vertex 0 63 0.10000000000000009
vertex 3.535533905932737 67.03553390593274 0.1
vertex 2.777851165098009 67.65734806151272 0.1
endloop
endfacet
facet normal 1.6818998041393172e-17 -1.6565267201582323e-18 1
outer loop
vertex 0 63 0.10000000000000009
vertex 2.777851165098009 67.65734806151272 0.1
vertex 1.91341716182545 68.11939766255644 0.1
endloop
endfacet
facet normal 1.6818998041393172e-17 -1.6565267201582323e-18 1
outer loop
vertex 0 63 0.10000000000000009
vertex 1.91341716182545 68.11939766255644 0.1
vertex 0.9754516100806415 68.40392640201615 0.1
endloop
endfacet
facet normal 1.6818998041393172e-17 -1.6565267201582323e-18 1
outer loop
vertex 0 63 0.10000000000000009
vertex 0.9754516100806415 68.40392640201615 0.1
vertex -8.881784197001252e-16 68.5 0.1
endloop
endfacet
facet normal 1.6818998041393172e-17 -1.6565267201582323e-18 1
outer loop
vertex 0 63 0.10000000000000009
vertex -8.881784197001252e-16 68.5 0.1
vertex -0.9754516100806433 68.40392640201615 0.1
endloop
endfacet
facet normal 1.6818998041393172e-17 -1.6565267201582323e-18 1
outer loop
vertex 0 63 0.10000000000000009
vertex -0.9754516100806433 68.40392640201615 0.1
vertex -1.9134171618254516 68.11939766255644 0.1
endloop
endfacet
facet normal 1.6818998041393172e-17 -1.6565267201582323e-18 1
outer loop
vertex 0 63 0.10000000000000009
vertex -1.9134171618254516 68.11939766255644 0.1
vertex -2.777851165098011 67.65734806151272 0.1
endloop
endfacet
facet normal 1.6818998041393172e-17 -1.6565267201582323e-18 1
outer loop
vertex 0 63 0.10000000000000009
vertex -2.777851165098011 67.65734806151272 0.1
vertex -3.5355339059327386 67.03553390593274 0.1
endloop
endfacet
facet normal 1.6818998041393172e-17 -1.6565267201582323e-18 1
outer loop
vertex 0 63 0.10000000000000009
vertex -3.5355339059327386 67.03553390593274 0.1
vertex -4.157348061512728 66.27785116509801 0.1
endloop
endfacet
facet normal 1.6818998041393172e-17 -1.6565267201582323e-18 1
outer loop
vertex 0 63 0.10000000000000009
vertex -4.157348061512728 66.27785116509801 0.1
vertex -4.619397662556435 65.41341716182545 0.1
endloop
endfacet
facet normal 1.6818998041393172e-17 -1.6565267201582323e-18 1
outer loop
vertex 0 63 0.10000000000000009
vertex -4.619397662556435 65.41341716182545 0.1
vertex -4.903926402016151 64.47545161008064 0.1
endloop
endfacet
facet normal 1.6818998041393172e-17 -1.6565267201582323e-18 1
outer loop
vertex 0 63 0.10000000000000009
vertex -4.903926402016151 64.47545161008064 0.1
vertex -5 63.5 0.1
endloop
endfacet
facet normal 1.6818998041393172e-17 -1.6565267201582323e-18 1
outer loop
vertex 0 63 0.10000000000000009
vertex -5 63.5 0.1
vertex -4.950754298321418 63 0.1
endloop
endfacet
facet normal -0.29028467725446216 -0.9569403357322089 0
outer loop
vertex -1.9134171618254485 58.88060233744356 0
vertex -0.9754516100806399 58.596073597983846 0
vertex -0.9754516100806399 58.596073597983846 0.1
endloop
endfacet
facet normal -0.29028467725446216 -0.9569403357322089 0
outer loop
vertex -1.9134171618254485 58.88060233744356 0
vertex -0.9754516100806399 58.596073597983846 0.1
vertex -1.9134171618254485 58.88060233744356 0.1
endloop
endfacet
facet normal -0.4713967368259949 -0.8819212643483565 0
outer loop
vertex -2.77785116509801 59.34265193848727 0
vertex -1.9134171618254485 58.88060233744356 0
vertex -1.9134171618254485 58.88060233744356 0.1
endloop
endfacet
facet normal -0.4713967368259949 -0.8819212643483565 0
outer loop
vertex -2.77785116509801 59.34265193848727 0
vertex -1.9134171618254485 58.88060233744356 0.1
vertex -2.77785116509801 59.34265193848727 0.1
endloop
endfacet
facet normal -0.634393284163644 -0.7730104533627382 0
outer loop
vertex -3.5355339059327373 59.96446609406726 0
vertex -2.77785116509801 59.34265193848727 0
vertex -2.77785116509801 59.34265193848727 0.1
endloop
endfacet
facet normal -0.634393284163644 -0.7730104533627382 0
outer loop
vertex -3.5355339059327373 59.96446609406726 0
vertex -2.77785116509801 59.34265193848727 0.1
vertex -3.5355339059327373 59.96446609406726 0.1
endloop
endfacet
facet normal -0.7730104533627369 -0.6343932841636457 0
outer loop
vertex -4.157348061512726 60.722148834901986 0
vertex -3.5355339059327373 59.96446609406726 0
vertex -3.5355339059327373 59.96446609406726 0.1
endloop
endfacet
facet normal -0.7730104533627369 -0.6343932841636457 0
outer loop
vertex -4.157348061512726 60.722148834901986 0
vertex -3.5355339059327373 59.96446609406726 0.1
vertex -4.157348061512726 60.722148834901986 0.1
endloop
endfacet
facet normal -0.8819212643483554 -0.4713967368259972 0
outer loop
vertex -4.619397662556434 61.58658283817455 0
vertex -4.157348061512726 60.722148834901986 0
vertex -4.157348061512726 60.722148834901986 0.1
endloop
endfacet
facet normal -0.8819212643483554 -0.4713967368259972 0
outer loop
vertex -4.619397662556434 61.58658283817455 0
vertex -4.157348061512726 60.722148834901986 0.1
vertex -4.619397662556434 61.58658283817455 0.1
endloop
endfacet
facet normal -0.9569403357322085 -0.2902846772544637 0
outer loop
vertex -4.903926402016152 62.52454838991936 0
vertex -4.619397662556434 61.58658283817455 0
vertex -4.619397662556434 61.58658283817455 0.1
endloop
endfacet
facet normal -0.9569403357322085 -0.2902846772544637 0
outer loop
vertex -4.903926402016152 62.52454838991936 0
vertex -4.619397662556434 61.58658283817455 0.1
vertex -4.903926402016152 62.52454838991936 0.1
endloop
endfacet
facet normal 0 0 1
outer loop
vertex -5 63.5 0
vertex -4.950754298321418 63 0
vertex -4.903926402016152 62.52454838991936 0
endloop
endfacet
facet normal 0 0 1
outer loop
vertex -5 63.5 0
vertex -4.903926402016152 62.52454838991936 0
vertex -4.903926402016152 62.52454838991936 0.1
endloop
endfacet
facet normal 0 0 1
outer loop
vertex -5 63.5 0
vertex -4.903926402016152 62.52454838991936 0.1
vertex -4.950754298321418 63 0.1
endloop
endfacet
facet normal 0 0 1
outer loop
vertex -5 63.5 0
vertex -4.950754298321418 63 0.1
vertex -5 63.5 0.1
endloop
endfacet
facet normal -0.9951847266721969 0.0980171403295613 0
outer loop
vertex -4.903926402016151 64.47545161008064 0
vertex -5 63.5 0
vertex -5 63.5 0.1
endloop
endfacet
facet normal -0.9951847266721969 0.0980171403295613 0
outer loop
vertex -4.903926402016151 64.47545161008064 0
vertex -5 63.5 0.1
vertex -4.903926402016151 64.47545161008064 0.1
endloop
endfacet
facet normal -0.9569403357322095 0.29028467725446094 0
outer loop
vertex -4.619397662556435 65.41341716182545 0
vertex -4.903926402016151 64.47545161008064 0
vertex -4.903926402016151 64.47545161008064 0.1
endloop
endfacet
facet normal -0.9569403357322095 0.29028467725446094 0
outer loop
vertex -4.619397662556435 65.41341716182545 0
vertex -4.903926402016151 64.47545161008064 0.1
vertex -4.619397662556435 65.41341716182545 0.1
endloop
endfacet
facet normal -0.8819212643483572 0.4713967368259939 0
outer loop
vertex -4.157348061512728 66.27785116509801 0
vertex -4.619397662556435 65.41341716182545 0
vertex -4.619397662556435 65.41341716182545 0.1
endloop
endfacet
facet normal -0.8819212643483572 0.4713967368259939 0
outer loop
vertex -4.157348061512728 66.27785116509801 0
vertex -4.619397662556435 65.41341716182545 0.1
vertex -4.157348061512728 66.27785116509801 0.1
endloop
endfacet
facet normal -0.7730104533627405 0.6343932841636412 0
outer loop
vertex -3.5355339059327386 67.03553390593274 0
vertex -4.157348061512728 66.27785116509801 0
vertex -4.157348061512728 66.27785116509801 0.1
endloop
endfacet
facet normal -0.7730104533627405 0.6343932841636412 0
outer loop
vertex -3.5355339059327386 67.03553390593274 0
vertex -4.157348061512728 66.27785116509801 0.1
vertex -3.5355339059327386 67.03553390593274 0.1
endloop
endfacet
facet normal -0.6343932841636483 0.7730104533627349 0
outer loop
vertex -2.777851165098011 67.65734806151272 0
vertex -3.5355339059327386 67.03553390593274 0
vertex -3.5355339059327386 67.03553390593274 0.1
endloop
endfacet
facet normal -0.6343932841636483 0.7730104533627349 0
outer loop
vertex -2.777851165098011 67.65734806151272 0
vertex -3.5355339059327386 67.03553390593274 0.1
vertex -2.777851165098011 67.65734806151272 0.1
endloop
endfacet
facet normal -0.47139673682599503 0.8819212643483564 0
outer loop
vertex -1.9134171618254516 68.11939766255644 0
vertex -2.777851165098011 67.65734806151272 0
vertex -2.777851165098011 67.65734806151272 0.1
endloop
endfacet
facet normal -0.47139673682599503 0.8819212643483564 0
outer loop
vertex -1.9134171618254516 68.11939766255644 0
vertex -2.777851165098011 67.65734806151272 0.1
vertex -1.9134171618254516 68.11939766255644 0.1
endloop
endfacet
facet normal -0.2902846772544621 0.9569403357322089 0
outer loop
vertex -0.9754516100806433 68.40392640201615 0
vertex -1.9134171618254516 68.11939766255644 0
vertex -1.9134171618254516 68.11939766255644 0.1
endloop
endfacet
facet normal -0.2902846772544621 0.9569403357322089 0
outer loop
vertex -0.9754516100806433 68.40392640201615 0
vertex -1.9134171618254516 68.11939766255644 0.1
vertex -0.9754516100806433 68.40392640201615 0.1
endloop
endfacet
facet normal -0.09801714032956 0.9951847266721969 0
outer loop
vertex -9.184850993605148e-16 68.5 0
vertex -0.9754516100806433 68.40392640201615 0
vertex -0.9754516100806433 68.40392640201615 0.1
endloop
endfacet
facet normal -0.09801714032956 0.9951847266721969 0
outer loop
vertex -9.184850993605148e-16 68.5 0
vertex -0.9754516100806433 68.40392640201615 0.1
vertex -8.881784197001252e-16 68.5 0.1
endloop
endfacet
facet normal 0.09801714032957408 0.9951847266721956 0
outer loop
vertex 0.9754516100806415 68.40392640201615 0
vertex -9.184850993605148e-16 68.5 0
vertex -8.881784197001252e-16 68.5 0.1
endloop
endfacet
facet normal 0.09801714032957408 0.9951847266721956 0
outer loop
vertex 0.9754516100806415 68.40392640201615 0
vertex -8.881784197001252e-16 68.5 0.1
vertex 0.9754516100806415 68.40392640201615 0.1
endloop
endfacet
facet normal 0.29028467725446205 0.956940335732209 0
outer loop
vertex 1.91341716182545 68.11939766255644 0
vertex 0.9754516100806415 68.40392640201615 0
vertex 0.9754516100806415 68.40392640201615 0.1
endloop
endfacet
facet normal 0.29028467725446205 0.956940335732209 0
outer loop
vertex 1.91341716182545 68.11939766255644 0
vertex 0.9754516100806415 68.40392640201615 0.1
vertex 1.91341716182545 68.11939766255644 0.1
endloop
endfacet
facet normal 0.4713967368260062 0.8819212643483504 0
outer loop
vertex 2.777851165098009 67.65734806151272 0
vertex 1.91341716182545 68.11939766255644 0
vertex 1.91341716182545 68.11939766255644 0.1
endloop
endfacet
facet normal 0.4713967368260062 0.8819212643483504 0
outer loop
vertex 2.777851165098009 67.65734806151272 0
vertex 1.91341716182545 68.11939766255644 0.1
vertex 2.777851165098009 67.65734806151272 0.1
endloop
endfacet
facet normal 0.6343932841636396 0.7730104533627419 0
outer loop
vertex 3.535533905932737 67.03553390593274 0
vertex 2.777851165098009 67.65734806151272 0
vertex 2.777851165098009 67.65734806151272 0.1
endloop
endfacet
facet normal 0.6343932841636396 0.7730104533627419 0
outer loop
vertex 3.535533905932737 67.03553390593274 0
vertex 2.777851165098009 67.65734806151272 0.1
vertex 3.535533905932737 67.03553390593274 0.1
endloop
endfacet
facet normal 0.7730104533627397 0.6343932841636422 0
outer loop
vertex 4.157348061512726 66.27785116509801 0
vertex 3.535533905932737 67.03553390593274 0
vertex 3.535533905932737 67.03553390593274 0.1
endloop
endfacet
facet normal 0.7730104533627397 0.6343932841636422 0
outer loop
vertex 4.157348061512726 66.27785116509801 0
vertex 3.535533905932737 67.03553390593274 0.1
vertex 4.157348061512726 66.27785116509801 0.1
endloop
endfacet
facet normal 0.8819212643483537 0.47139673682600014 0
outer loop
vertex 4.619397662556432 65.41341716182545 0
vertex 4.157348061512726 66.27785116509801 0
vertex 4.157348061512726 66.27785116509801 0.1
endloop
endfacet
facet normal 0.8819212643483537 0.47139673682600014 0
outer loop
vertex 4.619397662556432 65.41341716182545 0
vertex 4.157348061512726 66.27785116509801 0.1
vertex 4.619397662556432 65.41341716182545 0.1
endloop
endfacet
facet normal 0.9569403357322085 0.2902846772544637 0
outer loop
vertex 4.903926402016151 64.47545161008064 0
vertex 4.619397662556432 65.41341716182545 0
vertex 4.619397662556432 65.41341716182545 0.1
endloop
endfacet
facet normal 0.9569403357322085 0.2902846772544637 0
outer loop
vertex 4.903926402016151 64.47545161008064 0
vertex 4.619397662556432 65.41341716182545 0.1
vertex 4.903926402016151 64.47545161008064 0.1
endloop
endfacet
facet normal 0.9951847266721969 0.09801714032956149 0
outer loop
vertex 5 63.5 0
vertex 4.903926402016151 64.47545161008064 0
vertex 4.903926402016151 64.47545161008064 0.1
endloop
endfacet
facet normal 0.9951847266721969 0.09801714032956149 0
outer loop
vertex 5 63.5 0
vertex 4.903926402016151 64.47545161008064 0.1
vertex 5 63.5 0.1
endloop
endfacet
facet normal 0.9951847266721969 -0.0980171403295606 0
outer loop
vertex 4.950754298321418 63 0
vertex 5 63.5 0
vertex 5 63.5 0.1
endloop
endfacet
facet normal 0.9951847266721969 -0.0980171403295606 0
outer loop
vertex 4.950754298321418 63 0
vertex 5 63.5 0.1
vertex 4.950754298321417 63 0.1
endloop
endfacet
facet normal 0.9951847266721956 -0.0980171403295738 0
outer loop
vertex 69.40392640201615 47.02454838991936 0
vertex 69.5 48 0
vertex 69.5 48 0.1
endloop
endfacet
facet normal 0.9951847266721956 -0.0980171403295738 0
outer loop
vertex 69.40392640201615 47.02454838991936 0
vertex 69.5 48 0.1
vertex 69.40392640201615 47.02454838991936 0.1
endloop
endfacet
facet normal 0.9569403357322087 -0.2902846772544629 0
outer loop
vertex 69.11939766255644 46.08658283817455 0
vertex 69.40392640201615 47.02454838991936 0
vertex 69.40392640201615 47.02454838991936 0.1
endloop
endfacet
facet normal 0.9569403357322087 -0.2902846772544629 0
outer loop
vertex 69.11939766255644 46.08658283817455 0
vertex 69.40392640201615 47.02454838991936 0.1
vertex 69.11939766255644 46.08658283817455 0.1
endloop
endfacet
facet normal 0.8819212643483508 -0.4713967368260054 0
outer loop
vertex 68.65734806151272 45.222148834901986 0
vertex 69.11939766255644 46.08658283817455 0
vertex 69.11939766255644 46.08658283817455 0.1
endloop
endfacet
facet normal 0.8819212643483508 -0.4713967368260054 0
outer loop
vertex 68.65734806151272 45.222148834901986 0
vertex 69.11939766255644 46.08658283817455 0.1
vertex 68.65734806151272 45.222148834901986 0.1
endloop
endfacet
facet normal 0.7730104533627417 -0.6343932841636398 0
outer loop
vertex 68.03553390593274 44.46446609406726 0
vertex 68.65734806151272 45.222148834901986 0
vertex 68.65734806151272 45.222148834901986 0.1
endloop
endfacet
facet normal 0.7730104533627417 -0.6343932841636398 0
outer loop
vertex 68.03553390593274 44.46446609406726 0
vertex 68.65734806151272 45.222148834901986 0.1
vertex 68.03553390593274 44.46446609406726 0.1
endloop
endfacet
facet normal 0.6343932841636518 -0.7730104533627319 0
outer loop
vertex 67.27785116509801 43.84265193848727 0
vertex 68.03553390593274 44.46446609406726 0
vertex 68.03553390593274 44.46446609406726 0.1
endloop
endfacet
facet normal 0.6343932841636518 -0.7730104533627319 0
outer loop
vertex 67.27785116509801 43.84265193848727 0
vertex 68.03553390593274 44.46446609406726 0.1
vertex 67.27785116509801 43.84265193848727 0.1
endloop
endfacet
facet normal 0.4713967368260029 -0.8819212643483523 0
outer loop
vertex 66.41341716182545 43.38060233744356 0
vertex 67.27785116509801 43.84265193848727 0
vertex 67.27785116509801 43.84265193848727 0.1
endloop
endfacet
facet normal 0.4713967368260029 -0.8819212643483523 0
outer loop
vertex 66.41341716182545 43.38060233744356 0
vertex 67.27785116509801 43.84265193848727 0.1
vertex 66.41341716182545 43.38060233744356 0.1
endloop
endfacet
facet normal 0.29028467725446094 -0.9569403357322095 0
outer loop
vertex 65.47545161008064 43.096073597983846 0
vertex 66.41341716182545 43.38060233744356 0
vertex 66.41341716182545 43.38060233744356 0.1
endloop
endfacet
facet normal 0.29028467725446094 -0.9569403357322095 0
outer loop
vertex 65.47545161008064 43.096073597983846 0
vertex 66.41341716182545 43.38060233744356 0.1
vertex 65.47545161008064 43.096073597983846 0.1
endloop
endfacet
facet normal 0.09801714032955972 -0.9951847266721969 0
outer loop
vertex 64.5 43 0
vertex 65.47545161008064 43.096073597983846 0
vertex 65.47545161008064 43.096073597983846 0.1
endloop
endfacet
facet normal 0.09801714032955972 -0.9951847266721969 0
outer loop
vertex 64.5 43 0
vertex 65.47545161008064 43.096073597983846 0.1
vertex 64.5 43 0.1
endloop
endfacet
facet normal -0.9951847266721969 0.09801714032956041 0
outer loop
vertex 59.596073597983846 48.97545161008065 0
vertex 59.5 48 0
vertex 59.50000000000001 48 0.10000000000000142
endloop
endfacet
facet normal -0.9951847266721969 0.09801714032956041 0
outer loop
vertex 59.596073597983846 48.97545161008065 0
vertex 59.50000000000001 48 0.10000000000000142
vertex 59.596073597983846 48.97545161008065 0.1
endloop
endfacet
facet normal -0.9569403357322087 0.2902846772544629 0
outer loop
vertex 59.88060233744356 49.91341716182544 0
vertex 59.596073597983846 48.97545161008065 0
vertex 59.596073597983846 48.97545161008065 0.1
endloop
endfacet
facet normal -0.9569403357322087 0.2902846772544629 0
outer loop
vertex 59.88060233744356 49.91341716182544 0
vertex 59.596073597983846 48.97545161008065 0.1
vertex 59.88060233744356 49.91341716182544 0.1
endloop
endfacet
facet normal -0.8819212643483568 0.4713967368259944 0
outer loop
vertex 60.34265193848727 50.77785116509801 0
vertex 59.88060233744356 49.91341716182544 0
vertex 59.88060233744356 49.91341716182544 0.1
endloop
endfacet
facet normal -0.8819212643483568 0.4713967368259944 0
outer loop
vertex 60.34265193848727 50.77785116509801 0
vertex 59.88060233744356 49.91341716182544 0.1
vertex 60.34265193848727 50.77785116509801 0.1
endloop
endfacet
facet normal -0.7730104533627381 0.6343932841636442 0
outer loop
vertex 60.96446609406726 51.53553390593274 0
vertex 60.34265193848727 50.77785116509801 0
vertex 60.34265193848727 50.77785116509801 0.1
endloop
endfacet
facet normal -0.7730104533627381 0.6343932841636442 0
outer loop
vertex 60.96446609406726 51.53553390593274 0
vertex 60.34265193848727 50.77785116509801 0.1
vertex 60.96446609406726 51.53553390593274 0.1
endloop
endfacet
facet normal -0.6343932841636484 0.7730104533627346 0
outer loop
vertex 61.722148834901986 52.15734806151273 0
vertex 60.96446609406726 51.53553390593274 0
vertex 60.96446609406726 51.53553390593274 0.1
endloop
endfacet
facet normal -0.6343932841636484 0.7730104533627346 0
outer loop
vertex 61.722148834901986 52.15734806151273 0
vertex 60.96446609406726 51.53553390593274 0.1
vertex 61.722148834901986 52.15734806151273 0.1
endloop
endfacet
facet normal -0.4713967368259999 0.8819212643483538 0
outer loop
vertex 62.58658283817455 52.61939766255643 0
vertex 61.722148834901986 52.15734806151273 0
vertex 61.722148834901986 52.15734806151273 0.1
endloop
endfacet
facet normal -0.4713967368259999 0.8819212643483538 0
outer loop
vertex 62.58658283817455 52.61939766255643 0
vertex 61.722148834901986 52.15734806151273 0.1
vertex 62.58658283817455 52.61939766255643 0.1
endloop
endfacet
facet normal -0.29028467725446094 0.9569403357322094 0
outer loop
vertex 63.52454838991936 52.903926402016154 0
vertex 62.58658283817455 52.61939766255643 0
vertex 62.58658283817455 52.61939766255643 0.1
endloop
endfacet
facet normal -0.29028467725446094 0.9569403357322094 0
outer loop
vertex 63.52454838991936 52.903926402016154 0
vertex 62.58658283817455 52.61939766255643 0.1
vertex 63.52454838991936 52.903926402016154 0.1
endloop
endfacet
facet normal -0.09801714032956041 0.9951847266721969 0
outer loop
vertex 64.5 53 0
vertex 63.52454838991936 52.903926402016154 0
vertex 63.52454838991936 52.903926402016154 0.1
endloop
endfacet
facet normal -0.09801714032956041 0.9951847266721969 0
outer loop
vertex 64.5 53 0
vertex 63.52454838991936 52.903926402016154 0.1
vertex 64.5 53 0.1
endloop
endfacet
facet normal 0.09801714032956041 0.9951847266721969 0
outer loop
vertex 65.47545161008064 52.903926402016154 0
vertex 64.5 53 0
vertex 64.5 53 0.1
endloop
endfacet
facet normal 0.09801714032956041 0.9951847266721969 0
outer loop
vertex 65.47545161008064 52.903926402016154 0
vertex 64.5 53 0.1
vertex 65.47545161008064 52.903926402016154 0.1
endloop
endfacet
facet normal 0.29028467725446094 0.9569403357322095 0
outer loop
vertex 66.41341716182545 52.61939766255643 0
vertex 65.47545161008064 52.903926402016154 0
vertex 65.47545161008064 52.903926402016154 0.1
endloop
endfacet
facet normal 0.29028467725446094 0.9569403357322095 0
outer loop
vertex 66.41341716182545 52.61939766255643 0
vertex 65.47545161008064 52.903926402016154 0.1
vertex 66.41341716182545 52.61939766255643 0.1
endloop
endfacet
facet normal 0.4713967368259914 0.8819212643483584 0
outer loop
vertex 67.27785116509801 52.15734806151273 0
vertex 66.41341716182545 52.61939766255643 0
vertex 66.41341716182545 52.61939766255643 0.1
endloop
endfacet
facet normal 0.4713967368259914 0.8819212643483584 0
outer loop
vertex 67.27785116509801 52.15734806151273 0
vertex 66.41341716182545 52.61939766255643 0.1
vertex 67.27785116509801 52.15734806151273 0.1
endloop
endfacet
facet normal 0.6343932841636475 0.7730104533627353 0
outer loop
vertex 68.03553390593274 51.53553390593274 0
vertex 67.27785116509801 52.15734806151273 0
vertex 67.27785116509801 52.15734806151273 0.1
endloop
endfacet
facet normal 0.6343932841636475 0.7730104533627353 0
outer loop
vertex 68.03553390593274 51.53553390593274 0
vertex 67.27785116509801 52.15734806151273 0.1
vertex 68.03553390593274 51.53553390593274 0.1
endloop
endfacet
facet normal 0.7730104533627347 0.6343932841636484 0
outer loop
vertex 68.65734806151272 50.77785116509801 0
vertex 68.03553390593274 51.53553390593274 0
vertex 68.03553390593274 51.53553390593274 0.1
endloop
endfacet
facet normal 0.7730104533627347 0.6343932841636484 0
outer loop
vertex 68.65734806151272 50.77785116509801 0
vertex 68.03553390593274 51.53553390593274 0.1
vertex 68.65734806151272 50.77785116509801 0.1
endloop
endfacet
facet normal 0.8819212643483568 0.4713967368259944 0
outer loop
vertex 69.11939766255644 49.91341716182544 0
vertex 68.65734806151272 50.77785116509801 0
vertex 68.65734806151272 50.77785116509801 0.1
endloop
endfacet
facet normal 0.8819212643483568 0.4713967368259944 0
outer loop
vertex 69.11939766255644 49.91341716182544 0
vertex 68.65734806151272 50.77785116509801 0.1
vertex 69.11939766255644 49.91341716182544 0.1
endloop
endfacet
facet normal 0.9569403357322087 0.2902846772544629 0
outer loop
vertex 69.40392640201615 48.97545161008065 0
vertex 69.11939766255644 49.91341716182544 0
vertex 69.11939766255644 49.91341716182544 0.1
endloop
endfacet
facet normal 0.9569403357322087 0.2902846772544629 0
outer loop
vertex 69.40392640201615 48.97545161008065 0
vertex 69.11939766255644 49.91341716182544 0.1
vertex 69.40392640201615 48.97545161008065 0.1
endloop
endfacet
facet normal 0.9951847266721969 0.09801714032955972 0
outer loop
vertex 69.5 48 0
vertex 69.40392640201615 48.97545161008065 0
vertex 69.40392640201615 48.97545161008065 0.1
endloop
endfacet
facet normal 0.9951847266721969 0.09801714032955972 0
outer loop
vertex 69.5 48 0
vertex 69.40392640201615 48.97545161008065 0.1
vertex 69.5 48 0.1
endloop
endfacet
facet normal 0.9951847266721956 -0.09801714032957408 0
outer loop
vertex 69.40392640201615 -0.9754516100806412 0
vertex 69.5 0 0
vertex 69.5 0 0.1
endloop
endfacet
facet normal 0.9951847266721956 -0.09801714032957408 0
outer loop
vertex 69.40392640201615 -0.9754516100806412 0
vertex 69.5 0 0.1
vertex 69.40392640201615 -0.9754516100806412 0.1
endloop
endfacet
facet normal 0.956940335732209 -0.29028467725446205 0
outer loop
vertex 69.11939766255644 -1.913417161825449 0
vertex 69.40392640201615 -0.9754516100806412 0
vertex 69.40392640201615 -0.9754516100806412 0.1
endloop
endfacet
facet normal 0.956940335732209 -0.29028467725446205 0
outer loop
vertex 69.11939766255644 -1.913417161825449 0
vertex 69.40392640201615 -0.9754516100806412 0.1
vertex 69.11939766255644 -1.913417161825449 0.1
endloop
endfacet
facet normal 0.8819212643483504 -0.4713967368260062 0
outer loop
vertex 68.65734806151272 -2.777851165098011 0
vertex 69.11939766255644 -1.913417161825449 0
vertex 69.11939766255644 -1.913417161825449 0.1
endloop
endfacet
facet normal 0.8819212643483504 -0.4713967368260062 0
outer loop
vertex 68.65734806151272 -2.777851165098011 0
vertex 69.11939766255644 -1.913417161825449 0.1
vertex 68.65734806151272 -2.777851165098011 0.1
endloop
endfacet
facet normal 0.7730104533627417 -0.6343932841636398 0
outer loop
vertex 68.03553390593274 -3.5355339059327373 0
vertex 68.65734806151272 -2.777851165098011 0
vertex 68.65734806151272 -2.777851165098011 0.1
endloop
endfacet
facet normal 0.7730104533627417 -0.6343932841636398 0
outer loop
vertex 68.03553390593274 -3.5355339059327373 0
vertex 68.65734806151272 -2.777851165098011 0.1
vertex 68.03553390593274 -3.5355339059327373 0.1
endloop
endfacet
facet normal 0.6343932841636492 -0.773010453362734 0
outer loop
vertex 67.27785116509801 -4.157348061512726 0
vertex 68.03553390593274 -3.5355339059327373 0
vertex 68.03553390593274 -3.5355339059327373 0.1
endloop
endfacet
facet normal 0.6343932841636492 -0.773010453362734 0
outer loop
vertex 67.27785116509801 -4.157348061512726 0
vertex 68.03553390593274 -3.5355339059327373 0.1
vertex 67.27785116509801 -4.157348061512726 0.1
endloop
endfacet
facet normal 0.47139673682600014 -0.8819212643483537 0
outer loop
vertex 66.41341716182545 -4.619397662556434 0
vertex 67.27785116509801 -4.157348061512726 0
vertex 67.27785116509801 -4.157348061512726 0.1
endloop
endfacet
facet normal 0.47139673682600014 -0.8819212643483537 0
outer loop
vertex 66.41341716182545 -4.619397662556434 0
vertex 67.27785116509801 -4.157348061512726 0.1
vertex 66.41341716182545 -4.619397662556434 0.1
endloop
endfacet
facet normal 0.29028467725446094 -0.9569403357322095 0
outer loop
vertex 65.47545161008064 -4.903926402016152 0
vertex 66.41341716182545 -4.619397662556434 0
vertex 66.41341716182545 -4.619397662556434 0.1
endloop
endfacet
facet normal 0.29028467725446094 -0.9569403357322095 0
outer loop
vertex 65.47545161008064 -4.903926402016152 0
vertex 66.41341716182545 -4.619397662556434 0.1
vertex 65.47545161008064 -4.903926402016152 0.1
endloop
endfacet
facet normal 0.0980171403295606 -0.9951847266721969 0
outer loop
vertex 64.5 -5 0
vertex 65.47545161008064 -4.903926402016152 0
vertex 65.47545161008064 -4.903926402016152 0.1
endloop
endfacet
facet normal 0.0980171403295606 -0.9951847266721969 0
outer loop
vertex 64.5 -5 0
vertex 65.47545161008064 -4.903926402016152 0.1
vertex 64.5 -5 0.1
endloop
endfacet
facet normal -0.09801714032955972 -0.9951847266721969 0
outer loop
vertex 63.52454838991936 -4.903926402016152 0
vertex 64.5 -5 0
vertex 64.5 -5 0.1
endloop
endfacet
facet normal -0.09801714032955972 -0.9951847266721969 0
outer loop
vertex 63.52454838991936 -4.903926402016152 0
vertex 64.5 -5 0.1
vertex 63.52454838991936 -4.903926402016152 0.1
endloop
endfacet
facet normal -0.2902846772544617 -0.956940335732209 0
outer loop
vertex 62.58658283817455 -4.619397662556434 0
vertex 63.52454838991936 -4.903926402016152 0
vertex 63.52454838991936 -4.903926402016152 0.1
endloop
endfacet
facet normal -0.2902846772544617 -0.956940335732209 0
outer loop
vertex 62.58658283817455 -4.619397662556434 0
vertex 63.52454838991936 -4.903926402016152 0.1
vertex 62.58658283817455 -4.619397662556434 0.1
endloop
endfacet
facet normal -0.47139673682599975 -0.8819212643483539 0
outer loop
vertex 61.722148834901986 -4.157348061512726 0
vertex 62.58658283817455 -4.619397662556434 0
vertex 62.58658283817455 -4.619397662556434 0.1
endloop
endfacet
facet normal -0.47139673682599975 -0.8819212643483539 0
outer loop
vertex 61.722148834901986 -4.157348061512726 0
vertex 62.58658283817455 -4.619397662556434 0.1
vertex 61.722148834901986 -4.157348061512726 0.1
endloop
endfacet
facet normal -0.6343932841636457 -0.7730104533627369 0
outer loop
vertex 60.96446609406726 -3.5355339059327373 0
vertex 61.722148834901986 -4.157348061512726 0
vertex 61.722148834901986 -4.157348061512726 0.1
endloop
endfacet
facet normal -0.6343932841636457 -0.7730104533627369 0
outer loop
vertex 60.96446609406726 -3.5355339059327373 0
vertex 61.722148834901986 -4.157348061512726 0.1
vertex 60.96446609406726 -3.5355339059327373 0.1
endloop
endfacet
facet normal -0.7730104533627346 -0.6343932841636484 0
outer loop
vertex 60.34265193848727 -2.777851165098011 0
vertex 60.96446609406726 -3.5355339059327373 0
vertex 60.96446609406726 -3.5355339059327373 0.1
endloop
endfacet
facet normal -0.7730104533627346 -0.6343932841636484 0
outer loop
vertex 60.34265193848727 -2.777851165098011 0
vertex 60.96446609406726 -3.5355339059327373 0.1
vertex 60.34265193848727 -2.777851165098011 0.1
endloop
endfacet
facet normal -0.8819212643483534 -0.47139673682600064 0
outer loop
vertex 59.88060233744356 -1.913417161825449 0
vertex 60.34265193848727 -2.777851165098011 0
vertex 60.34265193848727 -2.777851165098011 0.1
endloop
endfacet
facet normal -0.8819212643483534 -0.47139673682600064 0
outer loop
vertex 59.88060233744356 -1.913417161825449 0
vertex 60.34265193848727 -2.777851165098011 0.1
vertex 59.88060233744356 -1.913417161825449 0.1
endloop
endfacet
facet normal -0.9569403357322089 -0.2902846772544621 0
outer loop
vertex 59.596073597983846 -0.9754516100806412 0
vertex 59.88060233744356 -1.913417161825449 0
vertex 59.88060233744356 -1.913417161825449 0.1
endloop
endfacet
facet normal -0.9569403357322089 -0.2902846772544621 0
outer loop
vertex 59.596073597983846 -0.9754516100806412 0
vertex 59.88060233744356 -1.913417161825449 0.1
vertex 59.596073597983846 -0.9754516100806412 0.1
endloop
endfacet
facet normal -0.9951847266721969 -0.09801714032955999 0
outer loop
vertex 59.5 0 0
vertex 59.596073597983846 -0.9754516100806412 0
vertex 59.596073597983846 -0.9754516100806412 0.1
endloop
endfacet
facet normal -0.9951847266721969 -0.09801714032955999 0
outer loop
vertex 59.5 0 0
vertex 59.596073597983846 -0.9754516100806412 0.1
vertex 59.50000000000001 0 0.1
endloop
endfacet
facet normal 0.0980171403295613 0.9951847266721969 0
outer loop
vertex 65.47545161008064 4.903926402016151 0
vertex 64.5 5 0
vertex 64.5 5 0.1
endloop
endfacet
facet normal 0.0980171403295613 0.9951847266721969 0
outer loop
vertex 65.47545161008064 4.903926402016151 0
vertex 64.5 5 0.1
vertex 65.47545161008064 4.903926402016151 0.1
endloop
endfacet
facet normal 0.2902846772544618 0.9569403357322093 0
outer loop
vertex 66.41341716182545 4.619397662556432 0
vertex 65.47545161008064 4.903926402016151 0
vertex 65.47545161008064 4.903926402016151 0.1
endloop
endfacet
facet normal 0.2902846772544618 0.9569403357322093 0
outer loop
vertex 66.41341716182545 4.619397662556432 0
vertex 65.47545161008064 4.903926402016151 0.1
vertex 66.41341716182545 4.619397662556432 0.1
endloop
endfacet
facet normal 0.4713967368259939 0.8819212643483572 0
outer loop
vertex 67.27785116509801 4.157348061512726 0
vertex 66.41341716182545 4.619397662556432 0
vertex 66.41341716182545 4.619397662556432 0.1
endloop
endfacet
facet normal 0.4713967368259939 0.8819212643483572 0
outer loop
vertex 67.27785116509801 4.157348061512726 0
vertex 66.41341716182545 4.619397662556432 0.1
vertex 67.27785116509801 4.157348061512726 0.1
endloop
endfacet
facet normal 0.6343932841636486 0.7730104533627344 0
outer loop
vertex 68.03553390593274 3.5355339059327373 0
vertex 67.27785116509801 4.157348061512726 0
vertex 67.27785116509801 4.157348061512726 0.1
endloop
endfacet
facet normal 0.6343932841636486 0.7730104533627344 0
outer loop
vertex 68.03553390593274 3.5355339059327373 0
vertex 67.27785116509801 4.157348061512726 0.1
vertex 68.03553390593274 3.5355339059327373 0.1
endloop
endfacet
facet normal 0.7730104533627347 0.6343932841636484 0
outer loop
vertex 68.65734806151272 2.7778511650980073 0
vertex 68.03553390593274 3.5355339059327373 0
vertex 68.03553390593274 3.5355339059327373 0.1
endloop
endfacet
facet normal 0.7730104533627347 0.6343932841636484 0
outer loop
vertex 68.65734806151272 2.7778511650980073 0
vertex 68.03553390593274 3.5355339059327373 0.1
vertex 68.65734806151272 2.7778511650980073 0.1
endloop
endfacet
facet normal 0.8819212643483564 0.47139673682599514 0
outer loop
vertex 69.11939766255644 1.913417161825446 0
vertex 68.65734806151272 2.7778511650980073 0
vertex 68.65734806151272 2.7778511650980073 0.1
endloop
endfacet
facet normal 0.8819212643483564 0.47139673682599514 0
outer loop
vertex 69.11939766255644 1.913417161825446 0
vertex 68.65734806151272 2.7778511650980073 0.1
vertex 69.11939766255644 1.913417161825446 0.1
endloop
endfacet
facet normal 0.9569403357322089 0.2902846772544621 0
outer loop
vertex 69.40392640201615 0.9754516100806441 0
vertex 69.11939766255644 1.913417161825446 0
vertex 69.11939766255644 1.913417161825446 0.1
endloop
endfacet
facet normal 0.9569403357322089 0.2902846772544621 0
outer loop
vertex 69.40392640201615 0.9754516100806441 0
vertex 69.11939766255644 1.913417161825446 0.1
vertex 69.40392640201615 0.9754516100806441 0.1
endloop
endfacet
facet normal 0.9951847266721969 0.09801714032956 0
outer loop
vertex 69.5 0 0
vertex 69.40392640201615 0.9754516100806441 0
vertex 69.40392640201615 0.9754516100806441 0.1
endloop
endfacet
facet normal 0.9951847266721969 0.09801714032956 0
outer loop
vertex 69.5 0 0
vertex 69.40392640201615 0.9754516100806441 0.1
vertex 69.5 0 0.1
endloop
endfacet
facet normal 0 -1 0
outer loop
vertex 20 -15 0
vertex 20 -15 0.1
vertex 5 -15 0.1
endloop
endfacet
facet normal 0 -1 0
outer loop
vertex 20 -15 0
vertex 5 -15 0.1
vertex 5 -15 0
endloop
endfacet
facet normal 0 -1 0
outer loop
vertex 5 -15 0.1
vertex 20 -15 0.1
vertex 20 -15 4
endloop
endfacet
facet normal 0 -1 0
outer loop
vertex 5 -15 0.1
vertex 20 -15 4
vertex 0 -15 4
endloop
endfacet
facet normal 0 -1 0
outer loop
vertex 5 -15 0.1
vertex 0 -15 4
vertex 0 -15 0.10000000000000009
endloop
endfacet
facet normal 0.9951847266721969 -0.09801714032956078 0
outer loop
vertex 4.903926402016152 -15.975451610080642 0
vertex 5 -15 0
vertex 5 -15 0.1
endloop
endfacet
facet normal 0.9951847266721969 -0.09801714032956078 0
outer loop
vertex 4.903926402016152 -15.975451610080642 0
vertex 5 -15 0.1
vertex 4.903926402016152 -15.975451610080642 0.1
endloop
endfacet
facet normal 0.956940335732209 -0.29028467725446194 0
outer loop
vertex 4.619397662556434 -16.91341716182545 0
vertex 4.903926402016152 -15.975451610080642 0
vertex 4.903926402016152 -15.975451610080642 0.1
endloop
endfacet
facet normal 0.956940335732209 -0.29028467725446194 0
outer loop
vertex 4.619397662556434 -16.91341716182545 0
vertex 4.903926402016152 -15.975451610080642 0.1
vertex 4.619397662556434 -16.91341716182545 0.1
endloop
endfacet
facet normal 0.8819212643483545 -0.47139673682599864 0
outer loop
vertex 4.157348061512726 -17.77785116509801 0
vertex 4.619397662556434 -16.91341716182545 0
vertex 4.619397662556434 -16.91341716182545 0.1
endloop
endfacet
facet normal 0.8819212643483545 -0.47139673682599864 0
outer loop
vertex 4.157348061512726 -17.77785116509801 0
vertex 4.619397662556434 -16.91341716182545 0.1
vertex 4.157348061512726 -17.77785116509801 0.1
endloop
endfacet
facet normal 0.7730104533627369 -0.6343932841636457 0
outer loop
vertex 3.5355339059327378 -18.535533905932738 0
vertex 4.157348061512726 -17.77785116509801 0
vertex 4.157348061512726 -17.77785116509801 0.1
endloop
endfacet
facet normal 0.7730104533627369 -0.6343932841636457 0
outer loop
vertex 3.5355339059327378 -18.535533905932738 0
vertex 4.157348061512726 -17.77785116509801 0.1
vertex 3.5355339059327378 -18.535533905932738 0.1
endloop
endfacet
facet normal 0.6343932841636462 -0.7730104533627364 0
outer loop
vertex 2.7778511650980113 -19.157348061512728 0
vertex 3.5355339059327378 -18.535533905932738 0
vertex 3.5355339059327378 -18.535533905932738 0.1
endloop
endfacet
facet normal 0.6343932841636462 -0.7730104533627364 0
outer loop
vertex 2.7778511650980113 -19.157348061512728 0
vertex 3.5355339059327378 -18.535533905932738 0.1
vertex 2.7778511650980113 -19.157348061512728 0.1
endloop
endfacet
facet normal 0.4713967368259979 -0.8819212643483549 0
outer loop
vertex 1.9134171618254492 -19.619397662556434 0
vertex 2.7778511650980113 -19.157348061512728 0
vertex 2.7778511650980113 -19.157348061512728 0.1
endloop
endfacet
facet normal 0.4713967368259979 -0.8819212643483549 0
outer loop
vertex 1.9134171618254492 -19.619397662556434 0
vertex 2.7778511650980113 -19.157348061512728 0.1
vertex 1.9134171618254492 -19.619397662556434 0.1
endloop
endfacet
facet normal 0.29028467725446205 -0.956940335732209 0
outer loop
vertex 0.9754516100806416 -19.903926402016154 0
vertex 1.9134171618254492 -19.619397662556434 0
vertex 1.9134171618254492 -19.619397662556434 0.1
endloop
endfacet
facet normal 0.29028467725446205 -0.956940335732209 0
outer loop
vertex 0.9754516100806416 -19.903926402016154 0
vertex 1.9134171618254492 -19.619397662556434 0.1
vertex 0.9754516100806416 -19.903926402016154 0.1
endloop
endfacet
facet normal 0.09801714032955999 -0.9951847266721969 0
outer loop
vertex 3.3306690738754696e-16 -20 0
vertex 0.9754516100806416 -19.903926402016154 0
vertex 0.9754516100806416 -19.903926402016154 0.1
endloop
endfacet
facet normal 0.09801714032955999 -0.9951847266721969 0
outer loop
vertex 3.3306690738754696e-16 -20 0
vertex 0.9754516100806416 -19.903926402016154 0.1
vertex 3.061616997868383e-16 -20 0.1
endloop
endfacet
facet normal -0.09801714032955999 -0.9951847266721969 0
outer loop
vertex -0.9754516100806399 -19.903926402016154 0
vertex 3.3306690738754696e-16 -20 0
vertex 3.061616997868383e-16 -20 0.1
endloop
endfacet
facet normal -0.09801714032955999 -0.9951847266721969 0
outer loop
vertex -0.9754516100806399 -19.903926402016154 0
vertex 3.061616997868383e-16 -20 0.1
vertex -0.9754516100806399 -19.903926402016154 0.1
endloop
endfacet
facet normal -0.29028467725446216 -0.9569403357322089 0
outer loop
vertex -1.9134171618254485 -19.619397662556434 0
vertex -0.9754516100806399 -19.903926402016154 0
vertex -0.9754516100806399 -19.903926402016154 0.1
endloop
endfacet
facet normal -0.29028467725446216 -0.9569403357322089 0
outer loop
vertex -1.9134171618254485 -19.619397662556434 0
vertex -0.9754516100806399 -19.903926402016154 0.1
vertex -1.9134171618254485 -19.619397662556434 0.1
endloop
endfacet
facet normal -0.4713967368259977 -0.8819212643483549 0
outer loop
vertex -2.77785116509801 -19.157348061512728 0
vertex -1.9134171618254485 -19.619397662556434 0
vertex -1.9134171618254485 -19.619397662556434 0.1
endloop
endfacet
facet normal -0.4713967368259977 -0.8819212643483549 0
outer loop
vertex -2.77785116509801 -19.157348061512728 0
vertex -1.9134171618254485 -19.619397662556434 0.1
vertex -2.77785116509801 -19.157348061512728 0.1
endloop
endfacet
facet normal -0.6343932841636462 -0.7730104533627364 0
outer loop
vertex -3.5355339059327373 -18.535533905932738 0
vertex -2.77785116509801 -19.157348061512728 0
vertex -2.77785116509801 -19.157348061512728 0.1
endloop
endfacet
facet normal -0.6343932841636462 -0.7730104533627364 0
outer loop
vertex -3.5355339059327373 -18.535533905932738 0
vertex -2.77785116509801 -19.157348061512728 0.1
vertex -3.5355339059327373 -18.535533905932738 0.1
endloop
endfacet
facet normal -0.7730104533627369 -0.6343932841636457 0
outer loop
vertex -4.157348061512726 -17.77785116509801 0
vertex -3.5355339059327373 -18.535533905932738 0
vertex -3.5355339059327373 -18.535533905932738 0.1
endloop
endfacet
facet normal -0.7730104533627369 -0.6343932841636457 0
outer loop
vertex -4.157348061512726 -17.77785116509801 0
vertex -3.5355339059327373 -18.535533905932738 0.1
vertex -4.157348061512726 -17.77785116509801 0.1
endloop
endfacet
facet normal -0.8819212643483554 -0.4713967368259972 0
outer loop
vertex -4.619397662556434 -16.91341716182545 0
vertex -4.157348061512726 -17.77785116509801 0
vertex -4.157348061512726 -17.77785116509801 0.1
endloop
endfacet
facet normal -0.8819212643483554 -0.4713967368259972 0
outer loop
vertex -4.619397662556434 -16.91341716182545 0
vertex -4.157348061512726 -17.77785116509801 0.1
vertex -4.619397662556434 -16.91341716182545 0.1
endloop
endfacet
facet normal -0.9569403357322086 -0.2902846772544632 0
outer loop
vertex -4.903926402016152 -15.975451610080642 0
vertex -4.619397662556434 -16.91341716182545 0
vertex -4.619397662556434 -16.91341716182545 0.1
endloop
endfacet
facet normal -0.9569403357322086 -0.2902846772544632 0
outer loop
vertex -4.903926402016152 -15.975451610080642 0
vertex -4.619397662556434 -16.91341716182545 0.1
vertex -4.903926402016152 -15.975451610080642 0.1
endloop
endfacet
facet normal -0.9951847266721969 -0.09801714032956095 0
outer loop
vertex -5 -15 0
vertex -4.903926402016152 -15.975451610080642 0
vertex -4.903926402016152 -15.975451610080642 0.1
endloop
endfacet
facet normal -0.9951847266721969 -0.09801714032956095 0
outer loop
vertex -5 -15 0
vertex -4.903926402016152 -15.975451610080642 0.1
vertex -5 -15 0.1
endloop
endfacet
facet normal -0.9951847266721969 0.09801714032956077 0
outer loop
vertex -4.903926402016151 -14.024548389919357 0
vertex -5 -15 0
vertex -5 -15 0.1
endloop
endfacet
facet normal -0.9951847266721969 0.09801714032956077 0
outer loop
vertex -4.903926402016151 -14.024548389919357 0
vertex -5 -15 0.1
vertex -4.903926402016151 -14.024548389919357 0.1
endloop
endfacet
facet normal -0.956940335732209 0.29028467725446194 0
outer loop
vertex -4.619397662556435 -13.086582838174554 0
vertex -4.903926402016151 -14.024548389919357 0
vertex -4.903926402016151 -14.024548389919357 0.1
endloop
endfacet
facet normal -0.956940335732209 0.29028467725446194 0
outer loop
vertex -4.619397662556435 -13.086582838174554 0
vertex -4.903926402016151 -14.024548389919357 0.1
vertex -4.619397662556435 -13.086582838174554 0.1
endloop
endfacet
facet normal -0.8819212643483552 0.4713967368259976 0
outer loop
vertex -4.157348061512728 -12.222148834901994 0
vertex -4.619397662556435 -13.086582838174554 0
vertex -4.619397662556435 -13.086582838174554 0.1
endloop
endfacet
facet normal -0.8819212643483552 0.4713967368259976 0
outer loop
vertex -4.157348061512728 -12.222148834901994 0
vertex -4.619397662556435 -13.086582838174554 0.1
vertex -4.157348061512728 -12.222148834901994 0.1
endloop
endfacet
facet normal -0.7730104533627384 0.6343932841636438 0
outer loop
vertex -3.5355339059327386 -11.464466094067262 0
vertex -4.157348061512728 -12.222148834901994 0
vertex -4.157348061512728 -12.222148834901994 0.1
endloop
endfacet
facet normal -0.7730104533627384 0.6343932841636438 0
outer loop
vertex -3.5355339059327386 -11.464466094067262 0
vertex -4.157348061512728 -12.222148834901994 0.1
vertex -3.5355339059327386 -11.464466094067262 0.1
endloop
endfacet
facet normal -0.634393284163645 0.7730104533627374 0
outer loop
vertex -2.777851165098011 -10.842651938487274 0
vertex -3.5355339059327386 -11.464466094067262 0
vertex -3.5355339059327386 -11.464466094067262 0.1
endloop
endfacet
facet normal -0.634393284163645 0.7730104533627374 0
outer loop
vertex -2.777851165098011 -10.842651938487274 0
vertex -3.5355339059327386 -11.464466094067262 0.1
vertex -2.777851165098011 -10.842651938487274 0.1
endloop
endfacet
facet normal -0.4713967368259978 0.8819212643483549 0
outer loop
vertex -1.9134171618254516 -10.380602337443568 0
vertex -2.777851165098011 -10.842651938487274 0
vertex -2.777851165098011 -10.842651938487274 0.1
endloop
endfacet
facet normal -0.4713967368259978 0.8819212643483549 0
outer loop
vertex -1.9134171618254516 -10.380602337443568 0
vertex -2.777851165098011 -10.842651938487274 0.1
vertex -1.9134171618254516 -10.380602337443568 0.1
endloop
endfacet
facet normal -0.2902846772544621 0.9569403357322089 0
outer loop
vertex -0.9754516100806433 -10.09607359798385 0
vertex -1.9134171618254516 -10.380602337443568 0
vertex -1.9134171618254516 -10.380602337443568 0.1
endloop
endfacet
facet normal -0.2902846772544621 0.9569403357322089 0
outer loop
vertex -0.9754516100806433 -10.09607359798385 0
vertex -1.9134171618254516 -10.380602337443568 0.1
vertex -0.9754516100806433 -10.09607359798385 0.1
endloop
endfacet
facet normal -0.09801714032956177 0.9951847266721968 0
outer loop
vertex 2.265761274745215e-17 -10 0
vertex -0.9754516100806433 -10.09607359798385 0
vertex -0.9754516100806433 -10.09607359798385 0.1
endloop
endfacet
facet normal -0.09801714032956177 0.9951847266721968 0
outer loop
vertex 2.265761274745215e-17 -10 0
vertex -0.9754516100806433 -10.09607359798385 0.1
vertex 0 -10 0.10000000000000009
endloop
endfacet
facet normal 1 0 0
outer loop
vertex 20 -10 0
vertex 20 0 0
vertex 20 0 0.1
endloop
endfacet
facet normal 1 0 0
outer loop
vertex 20 -10 0
vertex 20 0 0.1
vertex 20 0 4
endloop
endfacet
facet normal 1 0 0
outer loop
vertex 20 -10 0
vertex 20 0 4
vertex 20 -15 4
endloop
endfacet
facet normal 1 0 0
outer loop
vertex 20 -10 0
vertex 20 -15 4
vertex 20 -15 0.1
endloop
endfacet
facet normal 1 0 0
outer loop
vertex 20 -10 0
vertex 20 -15 0.1
vertex 20 -15 0
endloop
endfacet
facet normal 1 0 0
outer loop
vertex 20 58.5 0
vertex 20 63 0
vertex 20 63 0.1
endloop
endfacet
facet normal 1 0 0
outer loop
vertex 20 58.5 0
vertex 20 63 0.1
vertex 20 63 4
endloop
endfacet
facet normal 1 0 0
outer loop
vertex 20 58.5 0
vertex 20 63 4
vertex 20 48 4
endloop
endfacet
facet normal 1 0 0
outer loop
vertex 20 58.5 0
vertex 20 48 4
vertex 20 48 0.10000000000000142
endloop
endfacet
facet normal 1 0 0
outer loop
vertex 20 58.5 0
vertex 20 48 0.10000000000000142
vertex 20 48 0
endloop
endfacet
facet normal 0 0 1
outer loop
vertex 20 -15 4
vertex 20 0 4
vertex 0 0 4
endloop
endfacet
facet normal 0 0 1
outer loop
vertex 20 -15 4
vertex 0 0 4
vertex 0 -15 4
endloop
endfacet
facet normal 0 0 1
outer loop
vertex 20 48 4
vertex 20 63 4
vertex 0 63 4
endloop
endfacet
facet normal 0 0 1
outer loop
vertex 20 48 4
vertex 0 63 4
vertex 0 48 4
endloop
endfacet
endsolid csg.js
